%TF.GenerationSoftware,KiCad,Pcbnew,(7.0.0)*%
%TF.CreationDate,2023-07-04T17:47:27+03:00*%
%TF.ProjectId,IoT_Agrifarm,496f545f-4167-4726-9966-61726d2e6b69,rev?*%
%TF.SameCoordinates,Original*%
%TF.FileFunction,Paste,Top*%
%TF.FilePolarity,Positive*%
%FSLAX46Y46*%
G04 Gerber Fmt 4.6, Leading zero omitted, Abs format (unit mm)*
G04 Created by KiCad (PCBNEW (7.0.0)) date 2023-07-04 17:47:27*
%MOMM*%
%LPD*%
G01*
G04 APERTURE LIST*
G04 Aperture macros list*
%AMRoundRect*
0 Rectangle with rounded corners*
0 $1 Rounding radius*
0 $2 $3 $4 $5 $6 $7 $8 $9 X,Y pos of 4 corners*
0 Add a 4 corners polygon primitive as box body*
4,1,4,$2,$3,$4,$5,$6,$7,$8,$9,$2,$3,0*
0 Add four circle primitives for the rounded corners*
1,1,$1+$1,$2,$3*
1,1,$1+$1,$4,$5*
1,1,$1+$1,$6,$7*
1,1,$1+$1,$8,$9*
0 Add four rect primitives between the rounded corners*
20,1,$1+$1,$2,$3,$4,$5,0*
20,1,$1+$1,$4,$5,$6,$7,0*
20,1,$1+$1,$6,$7,$8,$9,0*
20,1,$1+$1,$8,$9,$2,$3,0*%
%AMHorizOval*
0 Thick line with rounded ends*
0 $1 width*
0 $2 $3 position (X,Y) of the first rounded end (center of the circle)*
0 $4 $5 position (X,Y) of the second rounded end (center of the circle)*
0 Add line between two ends*
20,1,$1,$2,$3,$4,$5,0*
0 Add two circle primitives to create the rounded ends*
1,1,$1,$2,$3*
1,1,$1,$4,$5*%
%AMRotRect*
0 Rectangle, with rotation*
0 The origin of the aperture is its center*
0 $1 length*
0 $2 width*
0 $3 Rotation angle, in degrees counterclockwise*
0 Add horizontal line*
21,1,$1,$2,0,0,$3*%
%AMFreePoly0*
4,1,9,3.862500,-0.866500,0.737500,-0.866500,0.737500,-0.450000,-0.737500,-0.450000,-0.737500,0.450000,0.737500,0.450000,0.737500,0.866500,3.862500,0.866500,3.862500,-0.866500,3.862500,-0.866500,$1*%
G04 Aperture macros list end*
%ADD10RoundRect,0.147500X-0.147500X-0.172500X0.147500X-0.172500X0.147500X0.172500X-0.147500X0.172500X0*%
%ADD11RoundRect,0.135000X0.135000X0.185000X-0.135000X0.185000X-0.135000X-0.185000X0.135000X-0.185000X0*%
%ADD12RoundRect,0.225000X0.250000X-0.225000X0.250000X0.225000X-0.250000X0.225000X-0.250000X-0.225000X0*%
%ADD13RoundRect,0.079500X0.079500X0.100500X-0.079500X0.100500X-0.079500X-0.100500X0.079500X-0.100500X0*%
%ADD14RoundRect,0.048038X0.406384X-0.048037X0.406384X0.048037X-0.406384X0.048037X-0.406384X-0.048037X0*%
%ADD15RoundRect,0.050000X-0.050000X-0.250000X0.050000X-0.250000X0.050000X0.250000X-0.050000X0.250000X0*%
%ADD16R,0.599999X0.200000*%
%ADD17R,0.200000X0.599999*%
%ADD18RoundRect,0.050000X0.050000X0.250000X-0.050000X0.250000X-0.050000X-0.250000X0.050000X-0.250000X0*%
%ADD19RoundRect,0.048038X-0.406384X0.048037X-0.406384X-0.048037X0.406384X-0.048037X0.406384X0.048037X0*%
%ADD20R,0.700001X0.200000*%
%ADD21R,0.650001X0.200000*%
%ADD22R,0.680001X0.200000*%
%ADD23R,0.200000X1.000000*%
%ADD24R,0.200000X0.950001*%
%ADD25R,2.500000X1.500000*%
%ADD26RoundRect,0.150000X0.200000X-0.150000X0.200000X0.150000X-0.200000X0.150000X-0.200000X-0.150000X0*%
%ADD27RoundRect,0.079500X-0.127279X-0.014849X-0.014849X-0.127279X0.127279X0.014849X0.014849X0.127279X0*%
%ADD28RoundRect,0.079500X0.100500X-0.079500X0.100500X0.079500X-0.100500X0.079500X-0.100500X-0.079500X0*%
%ADD29RoundRect,0.135000X-0.185000X0.135000X-0.185000X-0.135000X0.185000X-0.135000X0.185000X0.135000X0*%
%ADD30RoundRect,0.079500X-0.079500X-0.100500X0.079500X-0.100500X0.079500X0.100500X-0.079500X0.100500X0*%
%ADD31R,1.700000X0.900000*%
%ADD32RoundRect,0.150000X-0.512500X-0.150000X0.512500X-0.150000X0.512500X0.150000X-0.512500X0.150000X0*%
%ADD33RoundRect,0.150000X0.150000X-0.512500X0.150000X0.512500X-0.150000X0.512500X-0.150000X-0.512500X0*%
%ADD34RoundRect,0.079500X-0.014849X0.127279X-0.127279X0.014849X0.014849X-0.127279X0.127279X-0.014849X0*%
%ADD35RoundRect,0.250000X-0.375000X-0.625000X0.375000X-0.625000X0.375000X0.625000X-0.375000X0.625000X0*%
%ADD36RoundRect,0.079500X-0.100500X0.079500X-0.100500X-0.079500X0.100500X-0.079500X0.100500X0.079500X0*%
%ADD37RoundRect,0.135000X-0.135000X-0.185000X0.135000X-0.185000X0.135000X0.185000X-0.135000X0.185000X0*%
%ADD38RoundRect,0.225000X0.225000X0.250000X-0.225000X0.250000X-0.225000X-0.250000X0.225000X-0.250000X0*%
%ADD39RoundRect,0.218750X-0.218750X-0.256250X0.218750X-0.256250X0.218750X0.256250X-0.218750X0.256250X0*%
%ADD40R,0.500000X0.375000*%
%ADD41R,0.650000X0.300000*%
%ADD42RoundRect,0.150000X0.150000X-0.587500X0.150000X0.587500X-0.150000X0.587500X-0.150000X-0.587500X0*%
%ADD43RoundRect,0.135000X0.035355X-0.226274X0.226274X-0.035355X-0.035355X0.226274X-0.226274X0.035355X0*%
%ADD44R,0.900000X1.300000*%
%ADD45FreePoly0,90.000000*%
%ADD46RoundRect,0.125000X0.125000X0.125000X-0.125000X0.125000X-0.125000X-0.125000X0.125000X-0.125000X0*%
%ADD47RoundRect,0.147500X0.147500X0.172500X-0.147500X0.172500X-0.147500X-0.172500X0.147500X-0.172500X0*%
%ADD48RoundRect,0.140000X0.140000X0.170000X-0.140000X0.170000X-0.140000X-0.170000X0.140000X-0.170000X0*%
%ADD49RoundRect,0.225000X-0.225000X-0.250000X0.225000X-0.250000X0.225000X0.250000X-0.225000X0.250000X0*%
%ADD50RoundRect,0.225000X-0.250000X0.225000X-0.250000X-0.225000X0.250000X-0.225000X0.250000X0.225000X0*%
%ADD51RoundRect,0.200000X0.275000X-0.200000X0.275000X0.200000X-0.275000X0.200000X-0.275000X-0.200000X0*%
%ADD52HorizOval,0.450000X0.229810X0.229810X-0.229810X-0.229810X0*%
%ADD53RotRect,0.720000X0.615000X45.000000*%
%ADD54RoundRect,0.135000X0.185000X-0.135000X0.185000X0.135000X-0.185000X0.135000X-0.185000X-0.135000X0*%
%ADD55RoundRect,0.200000X-0.275000X0.200000X-0.275000X-0.200000X0.275000X-0.200000X0.275000X0.200000X0*%
%ADD56RoundRect,0.112500X-0.112500X0.187500X-0.112500X-0.187500X0.112500X-0.187500X0.112500X0.187500X0*%
%ADD57RoundRect,0.200000X-0.200000X-0.275000X0.200000X-0.275000X0.200000X0.275000X-0.200000X0.275000X0*%
%ADD58RoundRect,0.249999X-0.395001X-0.395001X0.395001X-0.395001X0.395001X0.395001X-0.395001X0.395001X0*%
%ADD59RoundRect,0.050000X-0.387500X-0.050000X0.387500X-0.050000X0.387500X0.050000X-0.387500X0.050000X0*%
%ADD60RoundRect,0.050000X-0.050000X-0.387500X0.050000X-0.387500X0.050000X0.387500X-0.050000X0.387500X0*%
%ADD61RoundRect,0.100000X-0.100000X0.637500X-0.100000X-0.637500X0.100000X-0.637500X0.100000X0.637500X0*%
%ADD62RoundRect,0.140000X0.170000X-0.140000X0.170000X0.140000X-0.170000X0.140000X-0.170000X-0.140000X0*%
%ADD63RoundRect,0.150000X-0.200000X0.150000X-0.200000X-0.150000X0.200000X-0.150000X0.200000X0.150000X0*%
%ADD64RoundRect,0.079500X0.127279X0.014849X0.014849X0.127279X-0.127279X-0.014849X-0.014849X-0.127279X0*%
%ADD65R,1.500000X2.500000*%
%ADD66R,1.150000X0.600000*%
%ADD67R,1.150000X0.300000*%
%ADD68RoundRect,0.225000X-0.225000X-0.375000X0.225000X-0.375000X0.225000X0.375000X-0.225000X0.375000X0*%
%ADD69R,1.500000X2.000000*%
%ADD70RotRect,1.400000X1.200000X315.000000*%
%ADD71RoundRect,0.125000X0.537500X0.125000X-0.537500X0.125000X-0.537500X-0.125000X0.537500X-0.125000X0*%
G04 APERTURE END LIST*
D10*
%TO.C,D201*%
X139164200Y-72720200D03*
X140134200Y-72720200D03*
%TD*%
D11*
%TO.C,R102*%
X136146000Y-70485000D03*
X135126000Y-70485000D03*
%TD*%
D12*
%TO.C,C211*%
X139683001Y-67564000D03*
X139683001Y-66014000D03*
%TD*%
D13*
%TO.C,C207*%
X141776001Y-70954600D03*
X141086001Y-70954600D03*
%TD*%
D14*
%TO.C,U203*%
X143057655Y-69004325D03*
D15*
X143412201Y-68694000D03*
D16*
X142858401Y-69398999D03*
X142858401Y-69798998D03*
X142858401Y-70199000D03*
X142858401Y-70598999D03*
X142858401Y-70998998D03*
X142858401Y-71399000D03*
X142858401Y-71798999D03*
D14*
X143005801Y-72199200D03*
D15*
X143361401Y-72504000D03*
D17*
X143758399Y-72498998D03*
X144158401Y-72498998D03*
X144558400Y-72498998D03*
X144958400Y-72498998D03*
X145358399Y-72498998D03*
X145758401Y-72498998D03*
D18*
X146157951Y-72504800D03*
D19*
X146512497Y-72194475D03*
D20*
X146608399Y-71798999D03*
D21*
X146633400Y-71398997D03*
D22*
X146618399Y-70998998D03*
D16*
X146658399Y-70598999D03*
X146658399Y-70199000D03*
X146658399Y-69798998D03*
X146658399Y-69398999D03*
D18*
X146130001Y-68694000D03*
D19*
X146485601Y-68998800D03*
D23*
X145658401Y-68899000D03*
X145208399Y-68899000D03*
X144758400Y-68899000D03*
X144308401Y-68899000D03*
D24*
X143858399Y-68873999D03*
%TD*%
D25*
%TO.C,L202*%
X149772399Y-81279999D03*
X149772399Y-77579999D03*
%TD*%
D12*
%TO.C,C210*%
X138129001Y-67564000D03*
X138129001Y-66014000D03*
%TD*%
D26*
%TO.C,D402*%
X125857000Y-93088000D03*
X125857000Y-94488000D03*
%TD*%
D11*
%TO.C,R212*%
X155958000Y-82550000D03*
X154938000Y-82550000D03*
%TD*%
D27*
%TO.C,C309*%
X132953648Y-101559248D03*
X133441552Y-102047152D03*
%TD*%
D28*
%TO.C,C312*%
X136144000Y-87645000D03*
X136144000Y-86955000D03*
%TD*%
D29*
%TO.C,R406*%
X127254000Y-95121000D03*
X127254000Y-96141000D03*
%TD*%
D30*
%TO.C,C205*%
X156637200Y-63184400D03*
X157327200Y-63184400D03*
%TD*%
D29*
%TO.C,R208*%
X147091400Y-73581800D03*
X147091400Y-74601800D03*
%TD*%
D30*
%TO.C,C218*%
X156677800Y-54610000D03*
X157367800Y-54610000D03*
%TD*%
D31*
%TO.C,SW301*%
X141731999Y-102283999D03*
X141731999Y-98883999D03*
%TD*%
D32*
%TO.C,U201*%
X155047100Y-64368000D03*
X155047100Y-65318000D03*
X155047100Y-66268000D03*
X157322100Y-66268000D03*
X157322100Y-65318000D03*
X157322100Y-64368000D03*
%TD*%
D28*
%TO.C,C304*%
X131064000Y-93055000D03*
X131064000Y-92365000D03*
%TD*%
D33*
%TO.C,U207*%
X153902400Y-80507000D03*
X154852400Y-80507000D03*
X155802400Y-80507000D03*
X155802400Y-78232000D03*
X154852400Y-78232000D03*
X153902400Y-78232000D03*
%TD*%
D34*
%TO.C,C310*%
X136768952Y-101838648D03*
X136281048Y-102326552D03*
%TD*%
D13*
%TO.C,C502*%
X148970600Y-104522000D03*
X148280600Y-104522000D03*
%TD*%
D30*
%TO.C,R209*%
X147925000Y-75057000D03*
X148615000Y-75057000D03*
%TD*%
D13*
%TO.C,C206*%
X148405401Y-68719400D03*
X147715401Y-68719400D03*
%TD*%
D35*
%TO.C,F101*%
X129994200Y-67056000D03*
X132794200Y-67056000D03*
%TD*%
D32*
%TO.C,U101*%
X156566900Y-70776000D03*
X156566900Y-71726000D03*
X156566900Y-72676000D03*
X158841900Y-72676000D03*
X158841900Y-70776000D03*
%TD*%
D36*
%TO.C,C202*%
X140411200Y-69547400D03*
X140411200Y-70237400D03*
%TD*%
%TO.C,C305*%
X136194800Y-97191000D03*
X136194800Y-97881000D03*
%TD*%
D37*
%TO.C,R404*%
X128964933Y-97905000D03*
X129984933Y-97905000D03*
%TD*%
D38*
%TO.C,C221*%
X142901400Y-79375000D03*
X141351400Y-79375000D03*
%TD*%
D39*
%TO.C,Q401*%
X119481500Y-81661000D03*
X121056500Y-81661000D03*
%TD*%
D28*
%TO.C,C306*%
X140716000Y-93182000D03*
X140716000Y-92492000D03*
%TD*%
D13*
%TO.C,C214*%
X145829401Y-67678000D03*
X145139401Y-67678000D03*
%TD*%
D37*
%TO.C,R407*%
X139105000Y-79121000D03*
X140125000Y-79121000D03*
%TD*%
D32*
%TO.C,U204*%
X155072500Y-55742800D03*
X155072500Y-56692800D03*
X155072500Y-57642800D03*
X157347500Y-57642800D03*
X157347500Y-56692800D03*
X157347500Y-55742800D03*
%TD*%
D37*
%TO.C,R403*%
X122299000Y-81661000D03*
X123319000Y-81661000D03*
%TD*%
D40*
%TO.C,U102*%
X160361999Y-76195699D03*
D41*
X160436999Y-75658199D03*
D40*
X160361999Y-75120699D03*
X158661999Y-75120699D03*
D41*
X158586999Y-75658199D03*
D40*
X158661999Y-76195699D03*
%TD*%
D28*
%TO.C,C307*%
X140638400Y-89332000D03*
X140638400Y-88642000D03*
%TD*%
D42*
%TO.C,Q201*%
X152947400Y-72819500D03*
X154847400Y-72819500D03*
X153897400Y-70944500D03*
%TD*%
D43*
%TO.C,R304*%
X125826576Y-83748824D03*
X126547824Y-83027576D03*
%TD*%
D44*
%TO.C,U206*%
X139401399Y-77652999D03*
D45*
X140901400Y-77565500D03*
D44*
X142401399Y-77652999D03*
%TD*%
D46*
%TO.C,D202*%
X155448000Y-74803000D03*
X153248000Y-74803000D03*
%TD*%
D47*
%TO.C,L101*%
X160632000Y-80010000D03*
X159662000Y-80010000D03*
%TD*%
D12*
%TO.C,C212*%
X141177001Y-67564000D03*
X141177001Y-66014000D03*
%TD*%
D48*
%TO.C,C501*%
X149105600Y-105410000D03*
X148145600Y-105410000D03*
%TD*%
D49*
%TO.C,C226*%
X150635400Y-83687500D03*
X152185400Y-83687500D03*
%TD*%
D29*
%TO.C,R202*%
X154813000Y-67502400D03*
X154813000Y-68522400D03*
%TD*%
D50*
%TO.C,C225*%
X153709400Y-82163500D03*
X153709400Y-83713500D03*
%TD*%
D28*
%TO.C,C313*%
X138403200Y-87645000D03*
X138403200Y-86955000D03*
%TD*%
D51*
%TO.C,R201*%
X157454600Y-69343400D03*
X157454600Y-67693400D03*
%TD*%
D52*
%TO.C,U302*%
X126924262Y-84702767D03*
X127822287Y-85600792D03*
X128720313Y-86498818D03*
X129618338Y-87396843D03*
X133578136Y-83437045D03*
X132680111Y-82539020D03*
X131782085Y-81640994D03*
X130884060Y-80742969D03*
D53*
X128739758Y-83406993D03*
X129464543Y-84131778D03*
X130189326Y-84856562D03*
X130914112Y-85581347D03*
X129588286Y-82558465D03*
X130313071Y-83283250D03*
X131037855Y-84008033D03*
X131762640Y-84732819D03*
%TD*%
D50*
%TO.C,C204*%
X139319000Y-69011200D03*
X139319000Y-70561200D03*
%TD*%
D54*
%TO.C,R203*%
X148102001Y-73908400D03*
X148102001Y-72888400D03*
%TD*%
D28*
%TO.C,C303*%
X137692000Y-87645000D03*
X137692000Y-86955000D03*
%TD*%
D55*
%TO.C,R205*%
X150368000Y-73089000D03*
X150368000Y-74739000D03*
%TD*%
D42*
%TO.C,Q101*%
X134457400Y-68958700D03*
X136357400Y-68958700D03*
X135407400Y-67083700D03*
%TD*%
D56*
%TO.C,D102*%
X130200400Y-63228800D03*
X130200400Y-65328800D03*
%TD*%
D29*
%TO.C,R408*%
X127254000Y-97028000D03*
X127254000Y-98048000D03*
%TD*%
D57*
%TO.C,R101*%
X120968000Y-58293000D03*
X122618000Y-58293000D03*
%TD*%
D51*
%TO.C,R207*%
X157429200Y-60730400D03*
X157429200Y-59080400D03*
%TD*%
D11*
%TO.C,R104*%
X160530000Y-74041000D03*
X159510000Y-74041000D03*
%TD*%
D58*
%TO.C,U301*%
X135355400Y-91364000D03*
X135355400Y-92964000D03*
X136955400Y-91364000D03*
X136955400Y-92964000D03*
D59*
X132717900Y-89564000D03*
X132717900Y-89964000D03*
X132717900Y-90364000D03*
X132717900Y-90764000D03*
X132717900Y-91164000D03*
X132717900Y-91564000D03*
X132717900Y-91964000D03*
X132717900Y-92364000D03*
X132717900Y-92764000D03*
X132717900Y-93164000D03*
X132717900Y-93564000D03*
X132717900Y-93964000D03*
X132717900Y-94364000D03*
X132717900Y-94764000D03*
D60*
X133555400Y-95601500D03*
X133955400Y-95601500D03*
X134355400Y-95601500D03*
X134755400Y-95601500D03*
X135155400Y-95601500D03*
X135555400Y-95601500D03*
X135955400Y-95601500D03*
X136355400Y-95601500D03*
X136755400Y-95601500D03*
X137155400Y-95601500D03*
X137555400Y-95601500D03*
X137955400Y-95601500D03*
X138355400Y-95601500D03*
X138755400Y-95601500D03*
D59*
X139592900Y-94764000D03*
X139592900Y-94364000D03*
X139592900Y-93964000D03*
X139592900Y-93564000D03*
X139592900Y-93164000D03*
X139592900Y-92764000D03*
X139592900Y-92364000D03*
X139592900Y-91964000D03*
X139592900Y-91564000D03*
X139592900Y-91164000D03*
X139592900Y-90764000D03*
X139592900Y-90364000D03*
X139592900Y-89964000D03*
X139592900Y-89564000D03*
D60*
X138755400Y-88726500D03*
X138355400Y-88726500D03*
X137955400Y-88726500D03*
X137555400Y-88726500D03*
X137155400Y-88726500D03*
X136755400Y-88726500D03*
X136355400Y-88726500D03*
X135955400Y-88726500D03*
X135555400Y-88726500D03*
X135155400Y-88726500D03*
X134755400Y-88726500D03*
X134355400Y-88726500D03*
X133955400Y-88726500D03*
X133555400Y-88726500D03*
%TD*%
D61*
%TO.C,U202*%
X160969600Y-62466300D03*
X160319600Y-62466300D03*
X159669600Y-62466300D03*
X159019600Y-62466300D03*
X159019600Y-68191300D03*
X159669600Y-68191300D03*
X160319600Y-68191300D03*
X160969600Y-68191300D03*
%TD*%
D36*
%TO.C,C201*%
X141122400Y-69555800D03*
X141122400Y-70245800D03*
%TD*%
D62*
%TO.C,C223*%
X152566400Y-79849500D03*
X152566400Y-78889500D03*
%TD*%
D63*
%TO.C,D401*%
X125857000Y-98428000D03*
X125857000Y-97028000D03*
%TD*%
D12*
%TO.C,C222*%
X137554400Y-77673200D03*
X137554400Y-76123200D03*
%TD*%
D50*
%TO.C,C203*%
X137845800Y-69011200D03*
X137845800Y-70561200D03*
%TD*%
D28*
%TO.C,C301*%
X131621400Y-89550000D03*
X131621400Y-88860000D03*
%TD*%
D37*
%TO.C,R305*%
X141713600Y-97688000D03*
X142733600Y-97688000D03*
%TD*%
D61*
%TO.C,U205*%
X160987001Y-53683500D03*
X160337001Y-53683500D03*
X159687001Y-53683500D03*
X159037001Y-53683500D03*
X159037001Y-59408500D03*
X159687001Y-59408500D03*
X160337001Y-59408500D03*
X160987001Y-59408500D03*
%TD*%
D29*
%TO.C,R204*%
X149118001Y-72888400D03*
X149118001Y-73908400D03*
%TD*%
D38*
%TO.C,C224*%
X154852400Y-76581000D03*
X153302400Y-76581000D03*
%TD*%
D64*
%TO.C,R301*%
X136906000Y-99644200D03*
X136418096Y-99156296D03*
%TD*%
D12*
%TO.C,C215*%
X148339801Y-67564000D03*
X148339801Y-66014000D03*
%TD*%
D54*
%TO.C,R402*%
X118872000Y-103126000D03*
X118872000Y-102106000D03*
%TD*%
D28*
%TO.C,R306*%
X122015000Y-88278000D03*
X122015000Y-87588000D03*
%TD*%
D36*
%TO.C,R211*%
X151638000Y-74397000D03*
X151638000Y-75087000D03*
%TD*%
D65*
%TO.C,L201*%
X142908400Y-64883999D03*
X146608400Y-64883999D03*
%TD*%
D12*
%TO.C,C217*%
X151387801Y-67564000D03*
X151387801Y-66014000D03*
%TD*%
D28*
%TO.C,C308*%
X139114400Y-87645000D03*
X139114400Y-86955000D03*
%TD*%
D66*
%TO.C,J104*%
X162181999Y-78860999D03*
X162181999Y-78060999D03*
D67*
X162181999Y-76910999D03*
X162181999Y-75910999D03*
X162181999Y-75410999D03*
X162181999Y-74410999D03*
D66*
X162181999Y-73260999D03*
X162181999Y-72460999D03*
X162181999Y-72460999D03*
X162181999Y-73260999D03*
D67*
X162181999Y-73910999D03*
X162181999Y-74910999D03*
X162181999Y-76410999D03*
X162181999Y-77410999D03*
D66*
X162181999Y-78060999D03*
X162181999Y-78860999D03*
%TD*%
D30*
%TO.C,C209*%
X143687401Y-67678000D03*
X144377401Y-67678000D03*
%TD*%
D28*
%TO.C,C302*%
X136980800Y-87645000D03*
X136980800Y-86955000D03*
%TD*%
D36*
%TO.C,C311*%
X136906000Y-97191000D03*
X136906000Y-97881000D03*
%TD*%
D31*
%TO.C,SW302*%
X120014999Y-89583999D03*
X120014999Y-86183999D03*
%TD*%
D29*
%TO.C,R210*%
X154686000Y-58875200D03*
X154686000Y-59895200D03*
%TD*%
D37*
%TO.C,R405*%
X137198000Y-79121000D03*
X138218000Y-79121000D03*
%TD*%
D68*
%TO.C,D101*%
X124561400Y-58674000D03*
X127861400Y-58674000D03*
%TD*%
D29*
%TO.C,R401*%
X161340800Y-83310000D03*
X161340800Y-84330000D03*
%TD*%
%TO.C,R213*%
X157099000Y-80008000D03*
X157099000Y-81028000D03*
%TD*%
D69*
%TO.C,U501*%
X145633999Y-102869999D03*
X147633999Y-102869999D03*
X149633999Y-102869999D03*
X151633999Y-102869999D03*
X153633999Y-102869999D03*
X155633999Y-102869999D03*
X157633999Y-102869999D03*
X159633999Y-102869999D03*
X159633999Y-86869999D03*
X157633999Y-86869999D03*
X155633999Y-86869999D03*
X153633999Y-86869999D03*
X151633999Y-86869999D03*
X149633999Y-86869999D03*
X147633999Y-86869999D03*
X145633999Y-86869999D03*
%TD*%
D13*
%TO.C,R206*%
X141776001Y-71665800D03*
X141086001Y-71665800D03*
%TD*%
D70*
%TO.C,Y301*%
X133311189Y-100188870D03*
X134866824Y-101744505D03*
X136068905Y-100542424D03*
X134513270Y-98986789D03*
%TD*%
D34*
%TO.C,C314*%
X129895600Y-79883000D03*
X129407696Y-80370904D03*
%TD*%
D54*
%TO.C,R215*%
X151638000Y-73537000D03*
X151638000Y-72517000D03*
%TD*%
D12*
%TO.C,C216*%
X149863801Y-67564000D03*
X149863801Y-66014000D03*
%TD*%
D50*
%TO.C,C219*%
X150495000Y-69811000D03*
X150495000Y-71361000D03*
%TD*%
%TO.C,C220*%
X148971000Y-69811000D03*
X148971000Y-71361000D03*
%TD*%
D71*
%TO.C,U403*%
X130937000Y-96596200D03*
X130937000Y-95946200D03*
X130937000Y-95296200D03*
X130937000Y-94646200D03*
X128662000Y-94646200D03*
X128662000Y-95296200D03*
X128662000Y-95946200D03*
X128662000Y-96596200D03*
%TD*%
D11*
%TO.C,R103*%
X160530000Y-77233000D03*
X159510000Y-77233000D03*
%TD*%
M02*
