%TF.GenerationSoftware,KiCad,Pcbnew,(7.0.0)*%
%TF.CreationDate,2023-07-04T17:47:27+03:00*%
%TF.ProjectId,IoT_Agrifarm,496f545f-4167-4726-9966-61726d2e6b69,rev?*%
%TF.SameCoordinates,Original*%
%TF.FileFunction,Soldermask,Bot*%
%TF.FilePolarity,Negative*%
%FSLAX46Y46*%
G04 Gerber Fmt 4.6, Leading zero omitted, Abs format (unit mm)*
G04 Created by KiCad (PCBNEW (7.0.0)) date 2023-07-04 17:47:27*
%MOMM*%
%LPD*%
G01*
G04 APERTURE LIST*
G04 Aperture macros list*
%AMRoundRect*
0 Rectangle with rounded corners*
0 $1 Rounding radius*
0 $2 $3 $4 $5 $6 $7 $8 $9 X,Y pos of 4 corners*
0 Add a 4 corners polygon primitive as box body*
4,1,4,$2,$3,$4,$5,$6,$7,$8,$9,$2,$3,0*
0 Add four circle primitives for the rounded corners*
1,1,$1+$1,$2,$3*
1,1,$1+$1,$4,$5*
1,1,$1+$1,$6,$7*
1,1,$1+$1,$8,$9*
0 Add four rect primitives between the rounded corners*
20,1,$1+$1,$2,$3,$4,$5,0*
20,1,$1+$1,$4,$5,$6,$7,0*
20,1,$1+$1,$6,$7,$8,$9,0*
20,1,$1+$1,$8,$9,$2,$3,0*%
G04 Aperture macros list end*
%ADD10RoundRect,0.250000X0.750000X-0.600000X0.750000X0.600000X-0.750000X0.600000X-0.750000X-0.600000X0*%
%ADD11O,2.000000X1.700000*%
%ADD12R,2.600000X2.600000*%
%ADD13C,2.600000*%
%ADD14RoundRect,0.250000X-0.750000X0.600000X-0.750000X-0.600000X0.750000X-0.600000X0.750000X0.600000X0*%
%ADD15R,1.905000X2.000000*%
%ADD16O,1.905000X2.000000*%
%ADD17R,1.500000X1.500000*%
%ADD18C,1.500000*%
%ADD19RoundRect,0.250000X0.600000X0.725000X-0.600000X0.725000X-0.600000X-0.725000X0.600000X-0.725000X0*%
%ADD20O,1.700000X1.950000*%
%ADD21C,0.650000*%
%ADD22O,2.100000X1.000000*%
%ADD23O,1.800000X1.000000*%
%ADD24RoundRect,0.250000X0.725000X-0.600000X0.725000X0.600000X-0.725000X0.600000X-0.725000X-0.600000X0*%
%ADD25O,1.950000X1.700000*%
%ADD26RoundRect,0.100000X-0.100000X0.130000X-0.100000X-0.130000X0.100000X-0.130000X0.100000X0.130000X0*%
%ADD27RoundRect,0.100000X0.130000X0.100000X-0.130000X0.100000X-0.130000X-0.100000X0.130000X-0.100000X0*%
G04 APERTURE END LIST*
D10*
%TO.C,BT201*%
X164693600Y-66598800D03*
D11*
X164693599Y-64098799D03*
%TD*%
D10*
%TO.C,BT202*%
X164719000Y-57785000D03*
D11*
X164718999Y-55284999D03*
%TD*%
D12*
%TO.C,J101*%
X151103399Y-56006999D03*
D13*
X146023400Y-56007000D03*
X140943400Y-56007000D03*
X135863400Y-56007000D03*
%TD*%
D14*
%TO.C,J103*%
X122191000Y-94528000D03*
D11*
X122190999Y-97027999D03*
%TD*%
D15*
%TO.C,Q102*%
X122401399Y-56006999D03*
D16*
X124941399Y-56006999D03*
X127481399Y-56006999D03*
%TD*%
D17*
%TO.C,U402*%
X121792999Y-103123999D03*
D18*
X124333000Y-103124000D03*
X126873000Y-103124000D03*
X129413000Y-103124000D03*
%TD*%
D12*
%TO.C,J102*%
X123392999Y-63621999D03*
D13*
X123393000Y-68702000D03*
%TD*%
D19*
%TO.C,J401*%
X133731000Y-76200000D03*
D20*
X131230999Y-76199999D03*
X128730999Y-76199999D03*
X126230999Y-76199999D03*
X123730999Y-76199999D03*
X121230999Y-76199999D03*
%TD*%
D21*
%TO.C,J104*%
X163257000Y-78551000D03*
X163257000Y-72771000D03*
D22*
X162756999Y-79980999D03*
D23*
X166936999Y-79980999D03*
D22*
X162756999Y-71340999D03*
D23*
X166936999Y-71340999D03*
%TD*%
D24*
%TO.C,J402*%
X164719000Y-100290000D03*
D25*
X164718999Y-97789999D03*
X164718999Y-95289999D03*
%TD*%
D24*
%TO.C,U401*%
X164719000Y-89241000D03*
D25*
X164718999Y-86740999D03*
X164718999Y-84240999D03*
%TD*%
D26*
%TO.C,R302*%
X136906000Y-88580000D03*
X136906000Y-89220000D03*
%TD*%
D27*
%TO.C,C208*%
X142458400Y-70916800D03*
X141818400Y-70916800D03*
%TD*%
D26*
%TO.C,C213*%
X146685000Y-70025000D03*
X146685000Y-70665000D03*
%TD*%
%TO.C,R303*%
X137668000Y-88580000D03*
X137668000Y-89220000D03*
%TD*%
M02*
