M48
; DRILL file {KiCad (7.0.0)} date Tue Jul  4 17:47:29 2023
; FORMAT={-:-/ absolute / inch / decimal}
; #@! TF.CreationDate,2023-07-04T17:47:29+03:00
; #@! TF.GenerationSoftware,Kicad,Pcbnew,(7.0.0)
; #@! TF.FileFunction,Plated,1,4,PTH
FMAT,2
INCH
; #@! TA.AperFunction,Plated,PTH,ViaDrill
T1C0.0079
; #@! TA.AperFunction,Plated,PTH,ViaDrill
T2C0.0118
; #@! TA.AperFunction,Plated,PTH,ViaDrill
T3C0.0157
; #@! TA.AperFunction,Plated,PTH,ComponentDrill
T4C0.0236
; #@! TA.AperFunction,Plated,PTH,ComponentDrill
T5C0.0315
; #@! TA.AperFunction,Plated,PTH,ComponentDrill
T6C0.0374
; #@! TA.AperFunction,Plated,PTH,ComponentDrill
T7C0.0394
; #@! TA.AperFunction,Plated,PTH,ComponentDrill
T8C0.0433
; #@! TA.AperFunction,Plated,PTH,ComponentDrill
T9C0.0512
%
G90
G05
T1
X5.654Y-2.753
X5.654Y-2.773
X5.674Y-2.753
X5.674Y-2.773
X5.724Y-2.753
X5.724Y-2.773
X5.744Y-2.753
X5.744Y-2.773
T2
X4.7164Y-2.2936
X4.774Y-3.278
X4.885Y-3.215
X5.045Y-3.855
X5.065Y-3.445
X5.133Y-3.557
X5.1339Y-3.6844
X5.135Y-3.615
X5.155Y-3.85
X5.1564Y-3.5246
X5.16Y-3.59
X5.174Y-3.927
X5.18Y-3.56
X5.185Y-3.147
X5.2Y-3.89
X5.23Y-3.855
X5.255Y-3.83
X5.27Y-3.5685
X5.275Y-3.715
X5.275Y-4.045
X5.2767Y-3.6833
X5.2771Y-3.6503
X5.2778Y-3.615
X5.32Y-3.54
X5.334Y-3.6
X5.334Y-3.65
X5.354Y-4.0786
X5.355Y-3.72
X5.36Y-3.545
X5.363Y-3.8791
X5.375Y-3.395
X5.382Y-3.6
X5.39Y-3.88
X5.3929Y-3.5448
X5.394Y-2.776
X5.4Y-2.82
X5.4098Y-3.3948
X5.415Y-2.955
X5.42Y-3.72
X5.42Y-3.855
X5.422Y-3.937
X5.422Y-3.98
X5.44Y-2.56
X5.45Y-3.3825
X5.45Y-3.58
X5.45Y-3.66
X5.45Y-3.695
X5.454Y-4.078
X5.4543Y-3.5436
X5.4789Y-2.8969
X5.485Y-3.3825
X5.485Y-3.505
X5.49Y-2.945
X5.49Y-2.99
X5.5Y-2.56
X5.511Y-2.821
X5.5234Y-2.793
X5.54Y-3.765
X5.5516Y-2.861
X5.555Y-4.075
X5.558Y-2.56
X5.575Y-3.69
X5.5835Y-2.7651
X5.585Y-2.861
X5.588Y-2.714
X5.609Y-2.622
X5.62Y-3.69
X5.62Y-3.81
X5.621Y-2.6991
X5.63Y-3.582
X5.643Y-2.622
X5.664Y-2.811
X5.665Y-2.895
X5.674Y-2.529
X5.674Y-2.583
X5.685Y-2.92
X5.699Y-2.645
X5.699Y-2.811
X5.706Y-3.574
X5.715Y-2.93
X5.724Y-2.529
X5.724Y-2.583
X5.733Y-2.811
X5.75Y-2.93
X5.753Y-2.621
X5.754Y-3.542
X5.778Y-2.8657
X5.781Y-2.621
X5.8Y-4.15
X5.81Y-4.116
X5.8124Y-3.48
X5.82Y-2.77
X5.84Y-2.56
X5.84Y-3.27
X5.84Y-3.31
X5.8622Y-2.7042
X5.871Y-2.935
X5.88Y-3.31
X5.892Y-4.116
X5.9Y-2.56
X5.9Y-2.715
X5.902Y-4.15
X5.905Y-3.255
X5.92Y-2.915
X5.93Y-2.715
X5.93Y-3.549
X5.946Y-3.688
X5.95Y-3.255
X5.96Y-2.56
X5.96Y-2.81
X5.97Y-3.48
X5.97Y-3.99
X5.99Y-3.3314
X5.995Y-3.015
X6.0Y-2.929
X6.005Y-3.195
X6.005Y-3.235
X6.01Y-3.548
X6.0486Y-3.9914
X6.06Y-3.3314
X6.095Y-3.295
X6.0966Y-3.1257
X6.0966Y-3.2162
X6.148Y-2.39
X6.154Y-2.7231
X6.2088Y-2.8239
X6.2103Y-2.9575
X6.2103Y-2.9998
X6.27Y-2.28
X6.28Y-3.075
X6.3Y-2.272
X6.345Y-3.105
X6.3478Y-2.8528
X6.525Y-2.9
X6.525Y-2.975
X6.525Y-3.05
T3
X5.08Y-3.355
X5.175Y-3.26
T5
X4.795Y-4.06
X4.895Y-4.06
X4.995Y-4.06
X5.095Y-4.06
T6
X4.7729Y-3.0
X4.8713Y-3.0
X4.9697Y-3.0
X5.0681Y-3.0
X5.1666Y-3.0
X5.265Y-3.0
X6.485Y-3.3166
X6.485Y-3.415
X6.485Y-3.5134
X6.485Y-3.7516
X6.485Y-3.85
X6.485Y-3.9484
T7
X4.8107Y-3.7216
X4.8107Y-3.82
X6.484Y-2.5236
X6.484Y-2.622
X6.485Y-2.1766
X6.485Y-2.275
T8
X4.819Y-2.205
X4.919Y-2.205
X5.019Y-2.205
T9
X4.858Y-2.5048
X4.858Y-2.7048
X5.349Y-2.205
X5.549Y-2.205
X5.749Y-2.205
X5.949Y-2.205
T4
G00X6.3861Y-2.8087
M15
G01X6.4294Y-2.8087
M16
G05
G00X6.3861Y-3.1489
M15
G01X6.4294Y-3.1489
M16
G05
G00X6.5566Y-2.8087
M15
G01X6.5881Y-2.8087
M16
G05
G00X6.5566Y-3.1489
M15
G01X6.5881Y-3.1489
M16
G05
T0
M30
