%TF.GenerationSoftware,KiCad,Pcbnew,(7.0.0)*%
%TF.CreationDate,2023-07-06T14:26:49+03:00*%
%TF.ProjectId,IoT_Agrifarm,496f545f-4167-4726-9966-61726d2e6b69,rev?*%
%TF.SameCoordinates,Original*%
%TF.FileFunction,Legend,Bot*%
%TF.FilePolarity,Positive*%
%FSLAX46Y46*%
G04 Gerber Fmt 4.6, Leading zero omitted, Abs format (unit mm)*
G04 Created by KiCad (PCBNEW (7.0.0)) date 2023-07-06 14:26:49*
%MOMM*%
%LPD*%
G01*
G04 APERTURE LIST*
%ADD10C,0.150000*%
G04 APERTURE END LIST*
D10*
%TO.C,R302*%
X136364428Y-87720571D02*
X136078714Y-87520571D01*
X136364428Y-87377714D02*
X135764428Y-87377714D01*
X135764428Y-87377714D02*
X135764428Y-87606285D01*
X135764428Y-87606285D02*
X135793000Y-87663428D01*
X135793000Y-87663428D02*
X135821571Y-87691999D01*
X135821571Y-87691999D02*
X135878714Y-87720571D01*
X135878714Y-87720571D02*
X135964428Y-87720571D01*
X135964428Y-87720571D02*
X136021571Y-87691999D01*
X136021571Y-87691999D02*
X136050142Y-87663428D01*
X136050142Y-87663428D02*
X136078714Y-87606285D01*
X136078714Y-87606285D02*
X136078714Y-87377714D01*
X135764428Y-87920571D02*
X135764428Y-88291999D01*
X135764428Y-88291999D02*
X135993000Y-88091999D01*
X135993000Y-88091999D02*
X135993000Y-88177714D01*
X135993000Y-88177714D02*
X136021571Y-88234857D01*
X136021571Y-88234857D02*
X136050142Y-88263428D01*
X136050142Y-88263428D02*
X136107285Y-88291999D01*
X136107285Y-88291999D02*
X136250142Y-88291999D01*
X136250142Y-88291999D02*
X136307285Y-88263428D01*
X136307285Y-88263428D02*
X136335857Y-88234857D01*
X136335857Y-88234857D02*
X136364428Y-88177714D01*
X136364428Y-88177714D02*
X136364428Y-88006285D01*
X136364428Y-88006285D02*
X136335857Y-87949142D01*
X136335857Y-87949142D02*
X136307285Y-87920571D01*
X135764428Y-88663428D02*
X135764428Y-88720571D01*
X135764428Y-88720571D02*
X135793000Y-88777714D01*
X135793000Y-88777714D02*
X135821571Y-88806286D01*
X135821571Y-88806286D02*
X135878714Y-88834857D01*
X135878714Y-88834857D02*
X135993000Y-88863428D01*
X135993000Y-88863428D02*
X136135857Y-88863428D01*
X136135857Y-88863428D02*
X136250142Y-88834857D01*
X136250142Y-88834857D02*
X136307285Y-88806286D01*
X136307285Y-88806286D02*
X136335857Y-88777714D01*
X136335857Y-88777714D02*
X136364428Y-88720571D01*
X136364428Y-88720571D02*
X136364428Y-88663428D01*
X136364428Y-88663428D02*
X136335857Y-88606286D01*
X136335857Y-88606286D02*
X136307285Y-88577714D01*
X136307285Y-88577714D02*
X136250142Y-88549143D01*
X136250142Y-88549143D02*
X136135857Y-88520571D01*
X136135857Y-88520571D02*
X135993000Y-88520571D01*
X135993000Y-88520571D02*
X135878714Y-88549143D01*
X135878714Y-88549143D02*
X135821571Y-88577714D01*
X135821571Y-88577714D02*
X135793000Y-88606286D01*
X135793000Y-88606286D02*
X135764428Y-88663428D01*
X135821571Y-89092000D02*
X135793000Y-89120572D01*
X135793000Y-89120572D02*
X135764428Y-89177715D01*
X135764428Y-89177715D02*
X135764428Y-89320572D01*
X135764428Y-89320572D02*
X135793000Y-89377715D01*
X135793000Y-89377715D02*
X135821571Y-89406286D01*
X135821571Y-89406286D02*
X135878714Y-89434857D01*
X135878714Y-89434857D02*
X135935857Y-89434857D01*
X135935857Y-89434857D02*
X136021571Y-89406286D01*
X136021571Y-89406286D02*
X136364428Y-89063429D01*
X136364428Y-89063429D02*
X136364428Y-89434857D01*
%TO.C,C208*%
X142911428Y-72045285D02*
X142940000Y-72073857D01*
X142940000Y-72073857D02*
X143025714Y-72102428D01*
X143025714Y-72102428D02*
X143082857Y-72102428D01*
X143082857Y-72102428D02*
X143168571Y-72073857D01*
X143168571Y-72073857D02*
X143225714Y-72016714D01*
X143225714Y-72016714D02*
X143254285Y-71959571D01*
X143254285Y-71959571D02*
X143282857Y-71845285D01*
X143282857Y-71845285D02*
X143282857Y-71759571D01*
X143282857Y-71759571D02*
X143254285Y-71645285D01*
X143254285Y-71645285D02*
X143225714Y-71588142D01*
X143225714Y-71588142D02*
X143168571Y-71531000D01*
X143168571Y-71531000D02*
X143082857Y-71502428D01*
X143082857Y-71502428D02*
X143025714Y-71502428D01*
X143025714Y-71502428D02*
X142940000Y-71531000D01*
X142940000Y-71531000D02*
X142911428Y-71559571D01*
X142682857Y-71559571D02*
X142654285Y-71531000D01*
X142654285Y-71531000D02*
X142597143Y-71502428D01*
X142597143Y-71502428D02*
X142454285Y-71502428D01*
X142454285Y-71502428D02*
X142397143Y-71531000D01*
X142397143Y-71531000D02*
X142368571Y-71559571D01*
X142368571Y-71559571D02*
X142340000Y-71616714D01*
X142340000Y-71616714D02*
X142340000Y-71673857D01*
X142340000Y-71673857D02*
X142368571Y-71759571D01*
X142368571Y-71759571D02*
X142711428Y-72102428D01*
X142711428Y-72102428D02*
X142340000Y-72102428D01*
X141968571Y-71502428D02*
X141911428Y-71502428D01*
X141911428Y-71502428D02*
X141854285Y-71531000D01*
X141854285Y-71531000D02*
X141825714Y-71559571D01*
X141825714Y-71559571D02*
X141797142Y-71616714D01*
X141797142Y-71616714D02*
X141768571Y-71731000D01*
X141768571Y-71731000D02*
X141768571Y-71873857D01*
X141768571Y-71873857D02*
X141797142Y-71988142D01*
X141797142Y-71988142D02*
X141825714Y-72045285D01*
X141825714Y-72045285D02*
X141854285Y-72073857D01*
X141854285Y-72073857D02*
X141911428Y-72102428D01*
X141911428Y-72102428D02*
X141968571Y-72102428D01*
X141968571Y-72102428D02*
X142025714Y-72073857D01*
X142025714Y-72073857D02*
X142054285Y-72045285D01*
X142054285Y-72045285D02*
X142082856Y-71988142D01*
X142082856Y-71988142D02*
X142111428Y-71873857D01*
X142111428Y-71873857D02*
X142111428Y-71731000D01*
X142111428Y-71731000D02*
X142082856Y-71616714D01*
X142082856Y-71616714D02*
X142054285Y-71559571D01*
X142054285Y-71559571D02*
X142025714Y-71531000D01*
X142025714Y-71531000D02*
X141968571Y-71502428D01*
X141425713Y-71759571D02*
X141482856Y-71731000D01*
X141482856Y-71731000D02*
X141511427Y-71702428D01*
X141511427Y-71702428D02*
X141539999Y-71645285D01*
X141539999Y-71645285D02*
X141539999Y-71616714D01*
X141539999Y-71616714D02*
X141511427Y-71559571D01*
X141511427Y-71559571D02*
X141482856Y-71531000D01*
X141482856Y-71531000D02*
X141425713Y-71502428D01*
X141425713Y-71502428D02*
X141311427Y-71502428D01*
X141311427Y-71502428D02*
X141254285Y-71531000D01*
X141254285Y-71531000D02*
X141225713Y-71559571D01*
X141225713Y-71559571D02*
X141197142Y-71616714D01*
X141197142Y-71616714D02*
X141197142Y-71645285D01*
X141197142Y-71645285D02*
X141225713Y-71702428D01*
X141225713Y-71702428D02*
X141254285Y-71731000D01*
X141254285Y-71731000D02*
X141311427Y-71759571D01*
X141311427Y-71759571D02*
X141425713Y-71759571D01*
X141425713Y-71759571D02*
X141482856Y-71788142D01*
X141482856Y-71788142D02*
X141511427Y-71816714D01*
X141511427Y-71816714D02*
X141539999Y-71873857D01*
X141539999Y-71873857D02*
X141539999Y-71988142D01*
X141539999Y-71988142D02*
X141511427Y-72045285D01*
X141511427Y-72045285D02*
X141482856Y-72073857D01*
X141482856Y-72073857D02*
X141425713Y-72102428D01*
X141425713Y-72102428D02*
X141311427Y-72102428D01*
X141311427Y-72102428D02*
X141254285Y-72073857D01*
X141254285Y-72073857D02*
X141225713Y-72045285D01*
X141225713Y-72045285D02*
X141197142Y-71988142D01*
X141197142Y-71988142D02*
X141197142Y-71873857D01*
X141197142Y-71873857D02*
X141225713Y-71816714D01*
X141225713Y-71816714D02*
X141254285Y-71788142D01*
X141254285Y-71788142D02*
X141311427Y-71759571D01*
%TO.C,C213*%
X146848285Y-67654571D02*
X146876857Y-67625999D01*
X146876857Y-67625999D02*
X146905428Y-67540285D01*
X146905428Y-67540285D02*
X146905428Y-67483142D01*
X146905428Y-67483142D02*
X146876857Y-67397428D01*
X146876857Y-67397428D02*
X146819714Y-67340285D01*
X146819714Y-67340285D02*
X146762571Y-67311714D01*
X146762571Y-67311714D02*
X146648285Y-67283142D01*
X146648285Y-67283142D02*
X146562571Y-67283142D01*
X146562571Y-67283142D02*
X146448285Y-67311714D01*
X146448285Y-67311714D02*
X146391142Y-67340285D01*
X146391142Y-67340285D02*
X146334000Y-67397428D01*
X146334000Y-67397428D02*
X146305428Y-67483142D01*
X146305428Y-67483142D02*
X146305428Y-67540285D01*
X146305428Y-67540285D02*
X146334000Y-67625999D01*
X146334000Y-67625999D02*
X146362571Y-67654571D01*
X146362571Y-67883142D02*
X146334000Y-67911714D01*
X146334000Y-67911714D02*
X146305428Y-67968857D01*
X146305428Y-67968857D02*
X146305428Y-68111714D01*
X146305428Y-68111714D02*
X146334000Y-68168857D01*
X146334000Y-68168857D02*
X146362571Y-68197428D01*
X146362571Y-68197428D02*
X146419714Y-68225999D01*
X146419714Y-68225999D02*
X146476857Y-68225999D01*
X146476857Y-68225999D02*
X146562571Y-68197428D01*
X146562571Y-68197428D02*
X146905428Y-67854571D01*
X146905428Y-67854571D02*
X146905428Y-68225999D01*
X146905428Y-68797428D02*
X146905428Y-68454571D01*
X146905428Y-68626000D02*
X146305428Y-68626000D01*
X146305428Y-68626000D02*
X146391142Y-68568857D01*
X146391142Y-68568857D02*
X146448285Y-68511714D01*
X146448285Y-68511714D02*
X146476857Y-68454571D01*
X146305428Y-68997429D02*
X146305428Y-69368857D01*
X146305428Y-69368857D02*
X146534000Y-69168857D01*
X146534000Y-69168857D02*
X146534000Y-69254572D01*
X146534000Y-69254572D02*
X146562571Y-69311715D01*
X146562571Y-69311715D02*
X146591142Y-69340286D01*
X146591142Y-69340286D02*
X146648285Y-69368857D01*
X146648285Y-69368857D02*
X146791142Y-69368857D01*
X146791142Y-69368857D02*
X146848285Y-69340286D01*
X146848285Y-69340286D02*
X146876857Y-69311715D01*
X146876857Y-69311715D02*
X146905428Y-69254572D01*
X146905428Y-69254572D02*
X146905428Y-69083143D01*
X146905428Y-69083143D02*
X146876857Y-69026000D01*
X146876857Y-69026000D02*
X146848285Y-68997429D01*
%TO.C,R303*%
X138777428Y-87720571D02*
X138491714Y-87520571D01*
X138777428Y-87377714D02*
X138177428Y-87377714D01*
X138177428Y-87377714D02*
X138177428Y-87606285D01*
X138177428Y-87606285D02*
X138206000Y-87663428D01*
X138206000Y-87663428D02*
X138234571Y-87691999D01*
X138234571Y-87691999D02*
X138291714Y-87720571D01*
X138291714Y-87720571D02*
X138377428Y-87720571D01*
X138377428Y-87720571D02*
X138434571Y-87691999D01*
X138434571Y-87691999D02*
X138463142Y-87663428D01*
X138463142Y-87663428D02*
X138491714Y-87606285D01*
X138491714Y-87606285D02*
X138491714Y-87377714D01*
X138177428Y-87920571D02*
X138177428Y-88291999D01*
X138177428Y-88291999D02*
X138406000Y-88091999D01*
X138406000Y-88091999D02*
X138406000Y-88177714D01*
X138406000Y-88177714D02*
X138434571Y-88234857D01*
X138434571Y-88234857D02*
X138463142Y-88263428D01*
X138463142Y-88263428D02*
X138520285Y-88291999D01*
X138520285Y-88291999D02*
X138663142Y-88291999D01*
X138663142Y-88291999D02*
X138720285Y-88263428D01*
X138720285Y-88263428D02*
X138748857Y-88234857D01*
X138748857Y-88234857D02*
X138777428Y-88177714D01*
X138777428Y-88177714D02*
X138777428Y-88006285D01*
X138777428Y-88006285D02*
X138748857Y-87949142D01*
X138748857Y-87949142D02*
X138720285Y-87920571D01*
X138177428Y-88663428D02*
X138177428Y-88720571D01*
X138177428Y-88720571D02*
X138206000Y-88777714D01*
X138206000Y-88777714D02*
X138234571Y-88806286D01*
X138234571Y-88806286D02*
X138291714Y-88834857D01*
X138291714Y-88834857D02*
X138406000Y-88863428D01*
X138406000Y-88863428D02*
X138548857Y-88863428D01*
X138548857Y-88863428D02*
X138663142Y-88834857D01*
X138663142Y-88834857D02*
X138720285Y-88806286D01*
X138720285Y-88806286D02*
X138748857Y-88777714D01*
X138748857Y-88777714D02*
X138777428Y-88720571D01*
X138777428Y-88720571D02*
X138777428Y-88663428D01*
X138777428Y-88663428D02*
X138748857Y-88606286D01*
X138748857Y-88606286D02*
X138720285Y-88577714D01*
X138720285Y-88577714D02*
X138663142Y-88549143D01*
X138663142Y-88549143D02*
X138548857Y-88520571D01*
X138548857Y-88520571D02*
X138406000Y-88520571D01*
X138406000Y-88520571D02*
X138291714Y-88549143D01*
X138291714Y-88549143D02*
X138234571Y-88577714D01*
X138234571Y-88577714D02*
X138206000Y-88606286D01*
X138206000Y-88606286D02*
X138177428Y-88663428D01*
X138177428Y-89063429D02*
X138177428Y-89434857D01*
X138177428Y-89434857D02*
X138406000Y-89234857D01*
X138406000Y-89234857D02*
X138406000Y-89320572D01*
X138406000Y-89320572D02*
X138434571Y-89377715D01*
X138434571Y-89377715D02*
X138463142Y-89406286D01*
X138463142Y-89406286D02*
X138520285Y-89434857D01*
X138520285Y-89434857D02*
X138663142Y-89434857D01*
X138663142Y-89434857D02*
X138720285Y-89406286D01*
X138720285Y-89406286D02*
X138748857Y-89377715D01*
X138748857Y-89377715D02*
X138777428Y-89320572D01*
X138777428Y-89320572D02*
X138777428Y-89149143D01*
X138777428Y-89149143D02*
X138748857Y-89092000D01*
X138748857Y-89092000D02*
X138720285Y-89063429D01*
%TD*%
M02*
