%TF.GenerationSoftware,KiCad,Pcbnew,(7.0.0)*%
%TF.CreationDate,2023-07-04T17:47:27+03:00*%
%TF.ProjectId,IoT_Agrifarm,496f545f-4167-4726-9966-61726d2e6b69,rev?*%
%TF.SameCoordinates,Original*%
%TF.FileFunction,Copper,L2,Inr*%
%TF.FilePolarity,Positive*%
%FSLAX46Y46*%
G04 Gerber Fmt 4.6, Leading zero omitted, Abs format (unit mm)*
G04 Created by KiCad (PCBNEW (7.0.0)) date 2023-07-04 17:47:27*
%MOMM*%
%LPD*%
G01*
G04 APERTURE LIST*
G04 Aperture macros list*
%AMRoundRect*
0 Rectangle with rounded corners*
0 $1 Rounding radius*
0 $2 $3 $4 $5 $6 $7 $8 $9 X,Y pos of 4 corners*
0 Add a 4 corners polygon primitive as box body*
4,1,4,$2,$3,$4,$5,$6,$7,$8,$9,$2,$3,0*
0 Add four circle primitives for the rounded corners*
1,1,$1+$1,$2,$3*
1,1,$1+$1,$4,$5*
1,1,$1+$1,$6,$7*
1,1,$1+$1,$8,$9*
0 Add four rect primitives between the rounded corners*
20,1,$1+$1,$2,$3,$4,$5,0*
20,1,$1+$1,$4,$5,$6,$7,0*
20,1,$1+$1,$6,$7,$8,$9,0*
20,1,$1+$1,$8,$9,$2,$3,0*%
G04 Aperture macros list end*
%TA.AperFunction,ComponentPad*%
%ADD10RoundRect,0.250000X0.750000X-0.600000X0.750000X0.600000X-0.750000X0.600000X-0.750000X-0.600000X0*%
%TD*%
%TA.AperFunction,ComponentPad*%
%ADD11O,2.000000X1.700000*%
%TD*%
%TA.AperFunction,ComponentPad*%
%ADD12R,2.600000X2.600000*%
%TD*%
%TA.AperFunction,ComponentPad*%
%ADD13C,2.600000*%
%TD*%
%TA.AperFunction,ComponentPad*%
%ADD14RoundRect,0.250000X-0.750000X0.600000X-0.750000X-0.600000X0.750000X-0.600000X0.750000X0.600000X0*%
%TD*%
%TA.AperFunction,ComponentPad*%
%ADD15R,1.905000X2.000000*%
%TD*%
%TA.AperFunction,ComponentPad*%
%ADD16O,1.905000X2.000000*%
%TD*%
%TA.AperFunction,ComponentPad*%
%ADD17R,1.500000X1.500000*%
%TD*%
%TA.AperFunction,ComponentPad*%
%ADD18C,1.500000*%
%TD*%
%TA.AperFunction,ComponentPad*%
%ADD19RoundRect,0.250000X0.600000X0.725000X-0.600000X0.725000X-0.600000X-0.725000X0.600000X-0.725000X0*%
%TD*%
%TA.AperFunction,ComponentPad*%
%ADD20O,1.700000X1.950000*%
%TD*%
%TA.AperFunction,ComponentPad*%
%ADD21O,2.100000X1.000000*%
%TD*%
%TA.AperFunction,ComponentPad*%
%ADD22O,1.800000X1.000000*%
%TD*%
%TA.AperFunction,ComponentPad*%
%ADD23RoundRect,0.250000X0.725000X-0.600000X0.725000X0.600000X-0.725000X0.600000X-0.725000X-0.600000X0*%
%TD*%
%TA.AperFunction,ComponentPad*%
%ADD24O,1.950000X1.700000*%
%TD*%
%TA.AperFunction,ViaPad*%
%ADD25C,0.600000*%
%TD*%
%TA.AperFunction,ViaPad*%
%ADD26C,0.800000*%
%TD*%
%TA.AperFunction,ViaPad*%
%ADD27C,0.500000*%
%TD*%
G04 APERTURE END LIST*
D10*
%TO.N,/IOT_AGRIFARM_POWER/BATT2+*%
%TO.C,BT201*%
X164693600Y-66598800D03*
D11*
%TO.N,/IOT_AGRIFARM_POWER/BATT2-*%
X164693599Y-64098799D03*
%TD*%
D10*
%TO.N,/IOT_AGRIFARM_POWER/BATT1+*%
%TO.C,BT202*%
X164719000Y-57785000D03*
D11*
%TO.N,/IOT_AGRIFARM_POWER/BATT1-*%
X164718999Y-55284999D03*
%TD*%
D12*
%TO.N,/+24V*%
%TO.C,J101*%
X151103399Y-56006999D03*
D13*
%TO.N,GND*%
X146023400Y-56007000D03*
X140943400Y-56007000D03*
%TO.N,/PUMP+*%
X135863400Y-56007000D03*
%TD*%
D14*
%TO.N,/IOT_AGRIFARM_SENSORS/NPK_A*%
%TO.C,J103*%
X122191000Y-94528000D03*
D11*
%TO.N,/IOT_AGRIFARM_SENSORS/NPK_B*%
X122190999Y-97027999D03*
%TD*%
D15*
%TO.N,Net-(Q102-G)*%
%TO.C,Q102*%
X122401399Y-56006999D03*
D16*
%TO.N,/+24V*%
X124941399Y-56006999D03*
%TO.N,/PUMP+*%
X127481399Y-56006999D03*
%TD*%
D17*
%TO.N,+3V3*%
%TO.C,U402*%
X121792999Y-103123999D03*
D18*
%TO.N,/IOT_AGRIFARM_SENSORS/DHT_SENSOR*%
X124333000Y-103124000D03*
%TO.N,unconnected-(U402-NC-Pad3)*%
X126873000Y-103124000D03*
%TO.N,GND*%
X129413000Y-103124000D03*
%TD*%
D12*
%TO.N,GND*%
%TO.C,J102*%
X123392999Y-63621999D03*
D13*
%TO.N,Net-(D102-A2)*%
X123393000Y-68702000D03*
%TD*%
D19*
%TO.N,+5V*%
%TO.C,J401*%
X133731000Y-76200000D03*
D20*
%TO.N,GND*%
X131230999Y-76199999D03*
X128730999Y-76199999D03*
%TO.N,Net-(J401-Pin_4)*%
X126230999Y-76199999D03*
%TO.N,unconnected-(J401-Pin_5-Pad5)*%
X123730999Y-76199999D03*
%TO.N,unconnected-(J401-Pin_6-Pad6)*%
X121230999Y-76199999D03*
%TD*%
D21*
%TO.N,Earth*%
%TO.C,J104*%
X162756999Y-79980999D03*
D22*
X166936999Y-79980999D03*
D21*
X162756999Y-71340999D03*
D22*
X166936999Y-71340999D03*
%TD*%
D23*
%TO.N,+3V3*%
%TO.C,J402*%
X164719000Y-100290000D03*
D24*
%TO.N,/IOT_AGRIFARM_SENSORS/SOIL_MOISTURE*%
X164718999Y-97789999D03*
%TO.N,GND*%
X164718999Y-95289999D03*
%TD*%
D23*
%TO.N,GND*%
%TO.C,U401*%
X164719000Y-89241000D03*
D24*
%TO.N,/IOT_AGRIFARM_SENSORS/SOIL_TEMP*%
X164718999Y-86740999D03*
%TO.N,+3V3*%
X164718999Y-84240999D03*
%TD*%
D25*
%TO.N,GND*%
X154852400Y-79394000D03*
X138531600Y-103581200D03*
X165735000Y-73660000D03*
X160020000Y-57708800D03*
X141173200Y-65024000D03*
X151384000Y-65024000D03*
X161163000Y-78867000D03*
X144932400Y-90779600D03*
X151028400Y-93675200D03*
X139446000Y-74803000D03*
X152273000Y-76581000D03*
X152400000Y-74396600D03*
X128651000Y-87503000D03*
X132080000Y-98806000D03*
X157704400Y-71726000D03*
X150622000Y-90144600D03*
X131419600Y-99745800D03*
X135483600Y-91440000D03*
X139446000Y-75946000D03*
X165735000Y-77470000D03*
X138176000Y-65024000D03*
X140294300Y-70942200D03*
X137407839Y-86226839D03*
X147320000Y-105410000D03*
X138430000Y-85916500D03*
X147574000Y-104546400D03*
X152654000Y-90119200D03*
X124079000Y-81661000D03*
X148336000Y-65024000D03*
X149123400Y-74549000D03*
X137160000Y-71628000D03*
X146151600Y-89966800D03*
X139319000Y-85916500D03*
X149860000Y-65024000D03*
X144754600Y-67183000D03*
X137718800Y-99999800D03*
X135991600Y-103596500D03*
X151384000Y-71374000D03*
D26*
X129032000Y-85217000D03*
D25*
X144754600Y-71399400D03*
X137007600Y-70510400D03*
X135483600Y-92710000D03*
X159258000Y-57912000D03*
X136219203Y-98528857D03*
X153924000Y-84617500D03*
X165735000Y-75565000D03*
X139979400Y-71653400D03*
X142748000Y-93726000D03*
X130378200Y-90347800D03*
X136702800Y-91440000D03*
X130429000Y-91821000D03*
X136525000Y-86233000D03*
X133477000Y-97282000D03*
X137718800Y-101092000D03*
X132842000Y-97917000D03*
X137541000Y-75057000D03*
X136906000Y-98552000D03*
X161234000Y-72461000D03*
X143865600Y-71399400D03*
X148898956Y-68686416D03*
X154852400Y-81691100D03*
X159512000Y-78105000D03*
D26*
X131445000Y-82804000D03*
D25*
X154813000Y-83693000D03*
X152146000Y-84617500D03*
X133985000Y-102743000D03*
X139700000Y-65024000D03*
%TO.N,/IOT_AGRIFARM_POWER/BATT2+*%
X150622000Y-68961000D03*
X149860000Y-68961000D03*
X156311600Y-69167900D03*
X150368000Y-74041000D03*
%TO.N,/IOT_AGRIFARM_POWER/BATT1+*%
X156159200Y-60706000D03*
%TO.N,/IOT_AGRIFARM_POWER/V_PANEL*%
X141935200Y-68935600D03*
X141859000Y-72669400D03*
%TO.N,+3V3*%
X149352000Y-84074000D03*
X139319000Y-89027000D03*
X130400791Y-93584895D03*
X149910800Y-105410000D03*
X152527000Y-81153000D03*
X141097000Y-103505000D03*
X136017000Y-94488000D03*
X130972500Y-89525000D03*
X136144000Y-90043000D03*
X148336000Y-83058000D03*
X149987000Y-82677000D03*
X151130000Y-82677000D03*
X152527000Y-82169000D03*
X128143000Y-97917000D03*
X141605000Y-93726000D03*
X149656800Y-104546400D03*
X131699000Y-79933800D03*
X121259600Y-83261200D03*
X148336000Y-84074000D03*
X142748000Y-96774000D03*
%TO.N,+1V1*%
X135128000Y-89916000D03*
X137668000Y-97917000D03*
X138538600Y-90007500D03*
%TO.N,Net-(D201-K)*%
X139164200Y-73581400D03*
X142773400Y-68556061D03*
%TO.N,/IOT_AGRIFARM_POWER/REGN*%
X141010430Y-72668653D03*
X146761200Y-72790050D03*
%TO.N,/IOT_AGRIFARM_SENSORS/SOIL_TEMP*%
X143002000Y-90982800D03*
%TO.N,/MCU_RP2040/USB_DP*%
X157740600Y-75120700D03*
%TO.N,/MCU_RP2040/USB_DN*%
X157740600Y-76195700D03*
%TO.N,/IOT_AGRIFARM_SENSORS/485_RX*%
X133985000Y-94361000D03*
X130937000Y-97790000D03*
%TO.N,Net-(U203-BTST1)*%
X141821900Y-70232500D03*
%TO.N,Net-(U203-BTST2)*%
X145618200Y-71399400D03*
%TO.N,/MCU_RP2040/GPIO16*%
X151638000Y-88392000D03*
X137668000Y-94488000D03*
%TO.N,/MCU_RP2040/GPIO17*%
X140716000Y-95631000D03*
X147634000Y-88392000D03*
%TO.N,/MCU_RP2040/GPIO20*%
X138430000Y-93853000D03*
X151638000Y-101346000D03*
%TO.N,/MCU_RP2040/GPIO21*%
X153634000Y-101382000D03*
X138430000Y-92964000D03*
%TO.N,/PUMP_EN*%
X134027911Y-93556089D03*
X119796000Y-58258000D03*
%TO.N,/IOT_AGRIFARM_POWER/BQ_~{QON}*%
X143891000Y-73533000D03*
X131572000Y-90424000D03*
%TO.N,/IOT_AGRIFARM_POWER/BQ_~{CE}*%
X131064000Y-91186000D03*
X144399000Y-74168000D03*
%TO.N,/IOT_AGRIFARM_POWER/BQ_SCL*%
X134055898Y-91821000D03*
X145161000Y-74422000D03*
%TO.N,/IOT_AGRIFARM_POWER/BQ_SDA*%
X146050000Y-74422000D03*
X133858000Y-90640497D03*
%TO.N,/IOT_AGRIFARM_POWER/BQ_~{INT}*%
X147828000Y-70358000D03*
X134038341Y-92718697D03*
%TO.N,Net-(U301-USB_DP)*%
X136978957Y-90037494D03*
%TO.N,Net-(U301-USB_DM)*%
X138430000Y-90932000D03*
%TO.N,/IOT_AGRIFARM_POWER/SW2*%
X145389600Y-64236600D03*
X146837400Y-66573400D03*
D27*
X145389600Y-70434200D03*
X145897600Y-70434200D03*
D25*
X145389600Y-65608200D03*
D27*
X145897600Y-69926200D03*
D25*
X146126200Y-66573400D03*
D27*
X145389600Y-69926200D03*
D25*
%TO.N,/IOT_AGRIFARM_POWER/SW1*%
X144119600Y-65608200D03*
X142468600Y-66598800D03*
D27*
X144119600Y-70434200D03*
X144119600Y-69926200D03*
X143611600Y-69926200D03*
X143611600Y-70434200D03*
D25*
X143332200Y-66598800D03*
X144119600Y-64236600D03*
%TD*%
%TA.AperFunction,Conductor*%
%TO.N,GND*%
G36*
X167643736Y-49830726D02*
G01*
X167902457Y-49846375D01*
X167917320Y-49848180D01*
X168168575Y-49894225D01*
X168183097Y-49897804D01*
X168426990Y-49973803D01*
X168440967Y-49979104D01*
X168673915Y-50083946D01*
X168687161Y-50090898D01*
X168905768Y-50223051D01*
X168918079Y-50231549D01*
X169119161Y-50389086D01*
X169130369Y-50399016D01*
X169310983Y-50579630D01*
X169320913Y-50590838D01*
X169478446Y-50791914D01*
X169486952Y-50804237D01*
X169619098Y-51022832D01*
X169626057Y-51036091D01*
X169730893Y-51269028D01*
X169736199Y-51283018D01*
X169812191Y-51526886D01*
X169815774Y-51541424D01*
X169861819Y-51792679D01*
X169863624Y-51807544D01*
X169879274Y-52066264D01*
X169879500Y-52073751D01*
X169879500Y-104136249D01*
X169879274Y-104143736D01*
X169863624Y-104402455D01*
X169861819Y-104417320D01*
X169815774Y-104668575D01*
X169812191Y-104683112D01*
X169748399Y-104887832D01*
X169736203Y-104926970D01*
X169730893Y-104940971D01*
X169626057Y-105173908D01*
X169619098Y-105187167D01*
X169486952Y-105405762D01*
X169478446Y-105418085D01*
X169320913Y-105619161D01*
X169310983Y-105630369D01*
X169130369Y-105810983D01*
X169119161Y-105820913D01*
X168918085Y-105978446D01*
X168905762Y-105986952D01*
X168687167Y-106119098D01*
X168673908Y-106126057D01*
X168440971Y-106230893D01*
X168426975Y-106236200D01*
X168183113Y-106312191D01*
X168168575Y-106315774D01*
X167917320Y-106361819D01*
X167902455Y-106363624D01*
X167643736Y-106379274D01*
X167636249Y-106379500D01*
X119383751Y-106379500D01*
X119376264Y-106379274D01*
X119117544Y-106363624D01*
X119102679Y-106361819D01*
X118851424Y-106315774D01*
X118836890Y-106312192D01*
X118593018Y-106236199D01*
X118579028Y-106230893D01*
X118346091Y-106126057D01*
X118332832Y-106119098D01*
X118114237Y-105986952D01*
X118101914Y-105978446D01*
X118083716Y-105964189D01*
X117900838Y-105820913D01*
X117889630Y-105810983D01*
X117709016Y-105630369D01*
X117699086Y-105619161D01*
X117541549Y-105418079D01*
X117533051Y-105405768D01*
X117400898Y-105187161D01*
X117393946Y-105173915D01*
X117289104Y-104940967D01*
X117283803Y-104926990D01*
X117207804Y-104683097D01*
X117204225Y-104668575D01*
X117181835Y-104546400D01*
X149101550Y-104546400D01*
X149102611Y-104554459D01*
X149118605Y-104675947D01*
X149120470Y-104690109D01*
X149175939Y-104824025D01*
X149264179Y-104939021D01*
X149270621Y-104943964D01*
X149270626Y-104943969D01*
X149375248Y-105024249D01*
X149409750Y-105065367D01*
X149423643Y-105117214D01*
X149414323Y-105170075D01*
X149390030Y-105228725D01*
X149374470Y-105266291D01*
X149373409Y-105274348D01*
X149373408Y-105274353D01*
X149356611Y-105401941D01*
X149355550Y-105410000D01*
X149356611Y-105418059D01*
X149369527Y-105516169D01*
X149374470Y-105553709D01*
X149429939Y-105687625D01*
X149518179Y-105802621D01*
X149633175Y-105890861D01*
X149767091Y-105946330D01*
X149910800Y-105965250D01*
X150054509Y-105946330D01*
X150188425Y-105890861D01*
X150303421Y-105802621D01*
X150391661Y-105687625D01*
X150447130Y-105553709D01*
X150466050Y-105410000D01*
X150447130Y-105266291D01*
X150391661Y-105132375D01*
X150303421Y-105017379D01*
X150296978Y-105012435D01*
X150296973Y-105012430D01*
X150192351Y-104932150D01*
X150157848Y-104891031D01*
X150143956Y-104839184D01*
X150153276Y-104786325D01*
X150193130Y-104690109D01*
X150212050Y-104546400D01*
X150193130Y-104402691D01*
X150137661Y-104268775D01*
X150049421Y-104153779D01*
X149983478Y-104103179D01*
X149940871Y-104070485D01*
X149940869Y-104070484D01*
X149934425Y-104065539D01*
X149878540Y-104042391D01*
X149808023Y-104013182D01*
X149808020Y-104013181D01*
X149800509Y-104010070D01*
X149792449Y-104009008D01*
X149792446Y-104009008D01*
X149664859Y-103992211D01*
X149656800Y-103991150D01*
X149648741Y-103992211D01*
X149521153Y-104009008D01*
X149521148Y-104009009D01*
X149513091Y-104010070D01*
X149505581Y-104013180D01*
X149505576Y-104013182D01*
X149386685Y-104062428D01*
X149386683Y-104062429D01*
X149379175Y-104065539D01*
X149372733Y-104070482D01*
X149372728Y-104070485D01*
X149270621Y-104148835D01*
X149270617Y-104148838D01*
X149264179Y-104153779D01*
X149259238Y-104160217D01*
X149259235Y-104160221D01*
X149180885Y-104262328D01*
X149180882Y-104262333D01*
X149175939Y-104268775D01*
X149172829Y-104276283D01*
X149172828Y-104276285D01*
X149123582Y-104395176D01*
X149123580Y-104395181D01*
X149120470Y-104402691D01*
X149119409Y-104410748D01*
X149119408Y-104410753D01*
X149102611Y-104538341D01*
X149101550Y-104546400D01*
X117181835Y-104546400D01*
X117158180Y-104417320D01*
X117156375Y-104402455D01*
X117140726Y-104143736D01*
X117140500Y-104136249D01*
X117140500Y-103898674D01*
X120792500Y-103898674D01*
X120793688Y-103904649D01*
X120793689Y-103904653D01*
X120804650Y-103959759D01*
X120804651Y-103959762D01*
X120807034Y-103971740D01*
X120862399Y-104054601D01*
X120945260Y-104109966D01*
X121018326Y-104124500D01*
X122561579Y-104124500D01*
X122567674Y-104124500D01*
X122640740Y-104109966D01*
X122723601Y-104054601D01*
X122778966Y-103971740D01*
X122793500Y-103898674D01*
X122793500Y-103124000D01*
X123327659Y-103124000D01*
X123328256Y-103130061D01*
X123328256Y-103130062D01*
X123346378Y-103314067D01*
X123346379Y-103314073D01*
X123346976Y-103320132D01*
X123348743Y-103325957D01*
X123348744Y-103325962D01*
X123361907Y-103369353D01*
X123404186Y-103508727D01*
X123407055Y-103514095D01*
X123407057Y-103514099D01*
X123494215Y-103677161D01*
X123494219Y-103677167D01*
X123497090Y-103682538D01*
X123622117Y-103834883D01*
X123774462Y-103959910D01*
X123779834Y-103962781D01*
X123779838Y-103962784D01*
X123874127Y-104013182D01*
X123948273Y-104052814D01*
X124136868Y-104110024D01*
X124333000Y-104129341D01*
X124529132Y-104110024D01*
X124717727Y-104052814D01*
X124891538Y-103959910D01*
X125043883Y-103834883D01*
X125168910Y-103682538D01*
X125261814Y-103508727D01*
X125319024Y-103320132D01*
X125338341Y-103124000D01*
X125867659Y-103124000D01*
X125868256Y-103130061D01*
X125868256Y-103130062D01*
X125886378Y-103314067D01*
X125886379Y-103314073D01*
X125886976Y-103320132D01*
X125888743Y-103325957D01*
X125888744Y-103325962D01*
X125901907Y-103369353D01*
X125944186Y-103508727D01*
X125947055Y-103514095D01*
X125947057Y-103514099D01*
X126034215Y-103677161D01*
X126034219Y-103677167D01*
X126037090Y-103682538D01*
X126162117Y-103834883D01*
X126314462Y-103959910D01*
X126319834Y-103962781D01*
X126319838Y-103962784D01*
X126414127Y-104013182D01*
X126488273Y-104052814D01*
X126676868Y-104110024D01*
X126873000Y-104129341D01*
X127069132Y-104110024D01*
X127257727Y-104052814D01*
X127383790Y-103985432D01*
X128908813Y-103985432D01*
X128917285Y-103992923D01*
X129023092Y-104049478D01*
X129034292Y-104054117D01*
X129211135Y-104107762D01*
X129223030Y-104110128D01*
X129406939Y-104128242D01*
X129419061Y-104128242D01*
X129602969Y-104110128D01*
X129614864Y-104107762D01*
X129791707Y-104054117D01*
X129802907Y-104049478D01*
X129908713Y-103992923D01*
X129917185Y-103985432D01*
X129911254Y-103975808D01*
X129424542Y-103489095D01*
X129413000Y-103482431D01*
X129401457Y-103489095D01*
X128914743Y-103975809D01*
X128908813Y-103985432D01*
X127383790Y-103985432D01*
X127431538Y-103959910D01*
X127583883Y-103834883D01*
X127708910Y-103682538D01*
X127801814Y-103508727D01*
X127859024Y-103320132D01*
X127877744Y-103130061D01*
X128408758Y-103130061D01*
X128426871Y-103313969D01*
X128429237Y-103325864D01*
X128482882Y-103502707D01*
X128487520Y-103513904D01*
X128544076Y-103619716D01*
X128551565Y-103628185D01*
X128561189Y-103622255D01*
X129047903Y-103135541D01*
X129054567Y-103123999D01*
X129054566Y-103123998D01*
X129771431Y-103123998D01*
X129778095Y-103135541D01*
X130264807Y-103622253D01*
X130274433Y-103628184D01*
X130281923Y-103619713D01*
X130338478Y-103513907D01*
X130342167Y-103505000D01*
X140541750Y-103505000D01*
X140542811Y-103513059D01*
X140557967Y-103628185D01*
X140560670Y-103648709D01*
X140616139Y-103782625D01*
X140621084Y-103789069D01*
X140621085Y-103789071D01*
X140699435Y-103891178D01*
X140704379Y-103897621D01*
X140819375Y-103985861D01*
X140953291Y-104041330D01*
X141097000Y-104060250D01*
X141240709Y-104041330D01*
X141374625Y-103985861D01*
X141489621Y-103897621D01*
X141577861Y-103782625D01*
X141633330Y-103648709D01*
X141652250Y-103505000D01*
X141633330Y-103361291D01*
X141577861Y-103227375D01*
X141489621Y-103112379D01*
X141374625Y-103024139D01*
X141338592Y-103009214D01*
X141248223Y-102971782D01*
X141248220Y-102971781D01*
X141240709Y-102968670D01*
X141232649Y-102967608D01*
X141232646Y-102967608D01*
X141105059Y-102950811D01*
X141097000Y-102949750D01*
X141088941Y-102950811D01*
X140961353Y-102967608D01*
X140961348Y-102967609D01*
X140953291Y-102968670D01*
X140945781Y-102971780D01*
X140945776Y-102971782D01*
X140826885Y-103021028D01*
X140826883Y-103021029D01*
X140819375Y-103024139D01*
X140812933Y-103029082D01*
X140812928Y-103029085D01*
X140710821Y-103107435D01*
X140710817Y-103107438D01*
X140704379Y-103112379D01*
X140699438Y-103118817D01*
X140699435Y-103118821D01*
X140621085Y-103220928D01*
X140621082Y-103220933D01*
X140616139Y-103227375D01*
X140613029Y-103234883D01*
X140613028Y-103234885D01*
X140563782Y-103353776D01*
X140563780Y-103353781D01*
X140560670Y-103361291D01*
X140559609Y-103369348D01*
X140559608Y-103369353D01*
X140544721Y-103482431D01*
X140541750Y-103505000D01*
X130342167Y-103505000D01*
X130343117Y-103502707D01*
X130396762Y-103325864D01*
X130399128Y-103313969D01*
X130417242Y-103130061D01*
X130417242Y-103117939D01*
X130399128Y-102934030D01*
X130396762Y-102922135D01*
X130343117Y-102745292D01*
X130338478Y-102734092D01*
X130281923Y-102628285D01*
X130274432Y-102619813D01*
X130264808Y-102625744D01*
X129778095Y-103112456D01*
X129771431Y-103123998D01*
X129054566Y-103123998D01*
X129047903Y-103112456D01*
X128561190Y-102625744D01*
X128551566Y-102619813D01*
X128544075Y-102628284D01*
X128487520Y-102734093D01*
X128482882Y-102745292D01*
X128429237Y-102922135D01*
X128426871Y-102934030D01*
X128408758Y-103117939D01*
X128408758Y-103130061D01*
X127877744Y-103130061D01*
X127878341Y-103124000D01*
X127859024Y-102927868D01*
X127801814Y-102739273D01*
X127742489Y-102628284D01*
X127711784Y-102570838D01*
X127711781Y-102570834D01*
X127708910Y-102565462D01*
X127583883Y-102413117D01*
X127431538Y-102288090D01*
X127426167Y-102285219D01*
X127426161Y-102285215D01*
X127383787Y-102262566D01*
X128908813Y-102262566D01*
X128914744Y-102272190D01*
X129401456Y-102758903D01*
X129412999Y-102765567D01*
X129424541Y-102758903D01*
X129911255Y-102272189D01*
X129917185Y-102262565D01*
X129908716Y-102255076D01*
X129802904Y-102198520D01*
X129791707Y-102193882D01*
X129614864Y-102140237D01*
X129602969Y-102137871D01*
X129419061Y-102119758D01*
X129406939Y-102119758D01*
X129223030Y-102137871D01*
X129211135Y-102140237D01*
X129034292Y-102193882D01*
X129023093Y-102198520D01*
X128917284Y-102255075D01*
X128908813Y-102262566D01*
X127383787Y-102262566D01*
X127263099Y-102198057D01*
X127263095Y-102198055D01*
X127257727Y-102195186D01*
X127251836Y-102193399D01*
X127074962Y-102139744D01*
X127074957Y-102139743D01*
X127069132Y-102137976D01*
X127063073Y-102137379D01*
X127063067Y-102137378D01*
X126879062Y-102119256D01*
X126873000Y-102118659D01*
X126866938Y-102119256D01*
X126682932Y-102137378D01*
X126682924Y-102137379D01*
X126676868Y-102137976D01*
X126671044Y-102139742D01*
X126671037Y-102139744D01*
X126494100Y-102193418D01*
X126494096Y-102193419D01*
X126488273Y-102195186D01*
X126482907Y-102198053D01*
X126482900Y-102198057D01*
X126319838Y-102285215D01*
X126319827Y-102285222D01*
X126314462Y-102288090D01*
X126309754Y-102291953D01*
X126309749Y-102291957D01*
X126166823Y-102409254D01*
X126166818Y-102409258D01*
X126162117Y-102413117D01*
X126158258Y-102417818D01*
X126158254Y-102417823D01*
X126040957Y-102560749D01*
X126040953Y-102560754D01*
X126037090Y-102565462D01*
X126034222Y-102570827D01*
X126034215Y-102570838D01*
X125947057Y-102733900D01*
X125947053Y-102733907D01*
X125944186Y-102739273D01*
X125942419Y-102745096D01*
X125942418Y-102745100D01*
X125888744Y-102922037D01*
X125888742Y-102922044D01*
X125886976Y-102927868D01*
X125886379Y-102933924D01*
X125886378Y-102933932D01*
X125868796Y-103112456D01*
X125867659Y-103124000D01*
X125338341Y-103124000D01*
X125319024Y-102927868D01*
X125261814Y-102739273D01*
X125202489Y-102628284D01*
X125171784Y-102570838D01*
X125171781Y-102570834D01*
X125168910Y-102565462D01*
X125043883Y-102413117D01*
X124891538Y-102288090D01*
X124886167Y-102285219D01*
X124886161Y-102285215D01*
X124723099Y-102198057D01*
X124723095Y-102198055D01*
X124717727Y-102195186D01*
X124711836Y-102193399D01*
X124534962Y-102139744D01*
X124534957Y-102139743D01*
X124529132Y-102137976D01*
X124523073Y-102137379D01*
X124523067Y-102137378D01*
X124339062Y-102119256D01*
X124333000Y-102118659D01*
X124326938Y-102119256D01*
X124142932Y-102137378D01*
X124142924Y-102137379D01*
X124136868Y-102137976D01*
X124131044Y-102139742D01*
X124131037Y-102139744D01*
X123954100Y-102193418D01*
X123954096Y-102193419D01*
X123948273Y-102195186D01*
X123942907Y-102198053D01*
X123942900Y-102198057D01*
X123779838Y-102285215D01*
X123779827Y-102285222D01*
X123774462Y-102288090D01*
X123769754Y-102291953D01*
X123769749Y-102291957D01*
X123626823Y-102409254D01*
X123626818Y-102409258D01*
X123622117Y-102413117D01*
X123618258Y-102417818D01*
X123618254Y-102417823D01*
X123500957Y-102560749D01*
X123500953Y-102560754D01*
X123497090Y-102565462D01*
X123494222Y-102570827D01*
X123494215Y-102570838D01*
X123407057Y-102733900D01*
X123407053Y-102733907D01*
X123404186Y-102739273D01*
X123402419Y-102745096D01*
X123402418Y-102745100D01*
X123348744Y-102922037D01*
X123348742Y-102922044D01*
X123346976Y-102927868D01*
X123346379Y-102933924D01*
X123346378Y-102933932D01*
X123328796Y-103112456D01*
X123327659Y-103124000D01*
X122793500Y-103124000D01*
X122793500Y-102349326D01*
X122778966Y-102276260D01*
X122723601Y-102193399D01*
X122640740Y-102138034D01*
X122628762Y-102135651D01*
X122628759Y-102135650D01*
X122573653Y-102124689D01*
X122573649Y-102124688D01*
X122567674Y-102123500D01*
X121018326Y-102123500D01*
X121012351Y-102124688D01*
X121012346Y-102124689D01*
X120957240Y-102135650D01*
X120957235Y-102135651D01*
X120945260Y-102138034D01*
X120935105Y-102144819D01*
X120935103Y-102144820D01*
X120872551Y-102186615D01*
X120872548Y-102186617D01*
X120862399Y-102193399D01*
X120855617Y-102203548D01*
X120855615Y-102203551D01*
X120813820Y-102266103D01*
X120813819Y-102266105D01*
X120807034Y-102276260D01*
X120804651Y-102288235D01*
X120804650Y-102288240D01*
X120793689Y-102343346D01*
X120793688Y-102343351D01*
X120792500Y-102349326D01*
X120792500Y-103898674D01*
X117140500Y-103898674D01*
X117140500Y-101346000D01*
X151082750Y-101346000D01*
X151083811Y-101354059D01*
X151088608Y-101390499D01*
X151101670Y-101489709D01*
X151104781Y-101497220D01*
X151104782Y-101497223D01*
X151116581Y-101525709D01*
X151157139Y-101623625D01*
X151245379Y-101738621D01*
X151360375Y-101826861D01*
X151494291Y-101882330D01*
X151638000Y-101901250D01*
X151781709Y-101882330D01*
X151915625Y-101826861D01*
X152030621Y-101738621D01*
X152118861Y-101623625D01*
X152174330Y-101489709D01*
X152188510Y-101382000D01*
X153078750Y-101382000D01*
X153079811Y-101390059D01*
X153093919Y-101497223D01*
X153097670Y-101525709D01*
X153153139Y-101659625D01*
X153241379Y-101774621D01*
X153356375Y-101862861D01*
X153490291Y-101918330D01*
X153634000Y-101937250D01*
X153777709Y-101918330D01*
X153911625Y-101862861D01*
X154026621Y-101774621D01*
X154114861Y-101659625D01*
X154170330Y-101525709D01*
X154189250Y-101382000D01*
X154170330Y-101238291D01*
X154114861Y-101104375D01*
X154026621Y-100989379D01*
X154020178Y-100984435D01*
X153955204Y-100934578D01*
X163493500Y-100934578D01*
X163493501Y-100937872D01*
X163493853Y-100941150D01*
X163493854Y-100941161D01*
X163499079Y-100989768D01*
X163499080Y-100989773D01*
X163499909Y-100997483D01*
X163502619Y-101004749D01*
X163502620Y-101004753D01*
X163523945Y-101061928D01*
X163550204Y-101132331D01*
X163636454Y-101247546D01*
X163751669Y-101333796D01*
X163886517Y-101384091D01*
X163946127Y-101390500D01*
X165491872Y-101390499D01*
X165551483Y-101384091D01*
X165686331Y-101333796D01*
X165801546Y-101247546D01*
X165887796Y-101132331D01*
X165938091Y-100997483D01*
X165944500Y-100937873D01*
X165944499Y-99642128D01*
X165938091Y-99582517D01*
X165887796Y-99447669D01*
X165801546Y-99332454D01*
X165686331Y-99246204D01*
X165551483Y-99195909D01*
X165543770Y-99195079D01*
X165543767Y-99195079D01*
X165495180Y-99189855D01*
X165495169Y-99189854D01*
X165491873Y-99189500D01*
X165488550Y-99189500D01*
X163949439Y-99189500D01*
X163949420Y-99189500D01*
X163946128Y-99189501D01*
X163942850Y-99189853D01*
X163942838Y-99189854D01*
X163894231Y-99195079D01*
X163894225Y-99195080D01*
X163886517Y-99195909D01*
X163879252Y-99198618D01*
X163879246Y-99198620D01*
X163759980Y-99243104D01*
X163759978Y-99243104D01*
X163751669Y-99246204D01*
X163744572Y-99251516D01*
X163744568Y-99251519D01*
X163643550Y-99327141D01*
X163643546Y-99327144D01*
X163636454Y-99332454D01*
X163631144Y-99339546D01*
X163631141Y-99339550D01*
X163555519Y-99440568D01*
X163555516Y-99440572D01*
X163550204Y-99447669D01*
X163547104Y-99455978D01*
X163547104Y-99455980D01*
X163502620Y-99575247D01*
X163502619Y-99575250D01*
X163499909Y-99582517D01*
X163499079Y-99590227D01*
X163499079Y-99590232D01*
X163493855Y-99638819D01*
X163493854Y-99638831D01*
X163493500Y-99642127D01*
X163493500Y-99645448D01*
X163493500Y-99645449D01*
X163493500Y-100934560D01*
X163493500Y-100934578D01*
X153955204Y-100934578D01*
X153918071Y-100906085D01*
X153918069Y-100906084D01*
X153911625Y-100901139D01*
X153836653Y-100870085D01*
X153785223Y-100848782D01*
X153785220Y-100848781D01*
X153777709Y-100845670D01*
X153769649Y-100844608D01*
X153769646Y-100844608D01*
X153642059Y-100827811D01*
X153634000Y-100826750D01*
X153625941Y-100827811D01*
X153498353Y-100844608D01*
X153498348Y-100844609D01*
X153490291Y-100845670D01*
X153482781Y-100848780D01*
X153482776Y-100848782D01*
X153363885Y-100898028D01*
X153363883Y-100898029D01*
X153356375Y-100901139D01*
X153349933Y-100906082D01*
X153349928Y-100906085D01*
X153247821Y-100984435D01*
X153247817Y-100984438D01*
X153241379Y-100989379D01*
X153236438Y-100995817D01*
X153236435Y-100995821D01*
X153158085Y-101097928D01*
X153158082Y-101097933D01*
X153153139Y-101104375D01*
X153150029Y-101111883D01*
X153150028Y-101111885D01*
X153100782Y-101230776D01*
X153100780Y-101230781D01*
X153097670Y-101238291D01*
X153096609Y-101246348D01*
X153096608Y-101246353D01*
X153079811Y-101373941D01*
X153078750Y-101382000D01*
X152188510Y-101382000D01*
X152193250Y-101346000D01*
X152174330Y-101202291D01*
X152118861Y-101068375D01*
X152030621Y-100953379D01*
X151915625Y-100865139D01*
X151825506Y-100827811D01*
X151789223Y-100812782D01*
X151789220Y-100812781D01*
X151781709Y-100809670D01*
X151773649Y-100808608D01*
X151773646Y-100808608D01*
X151646059Y-100791811D01*
X151638000Y-100790750D01*
X151629941Y-100791811D01*
X151502353Y-100808608D01*
X151502348Y-100808609D01*
X151494291Y-100809670D01*
X151486781Y-100812780D01*
X151486776Y-100812782D01*
X151367885Y-100862028D01*
X151367883Y-100862029D01*
X151360375Y-100865139D01*
X151353933Y-100870082D01*
X151353928Y-100870085D01*
X151251821Y-100948435D01*
X151251817Y-100948438D01*
X151245379Y-100953379D01*
X151240438Y-100959817D01*
X151240435Y-100959821D01*
X151162085Y-101061928D01*
X151162082Y-101061933D01*
X151157139Y-101068375D01*
X151154029Y-101075883D01*
X151154028Y-101075885D01*
X151104782Y-101194776D01*
X151104780Y-101194781D01*
X151101670Y-101202291D01*
X151100609Y-101210348D01*
X151100608Y-101210353D01*
X151085057Y-101328480D01*
X151082750Y-101346000D01*
X117140500Y-101346000D01*
X117140500Y-96975398D01*
X120936746Y-96975398D01*
X120937026Y-96981282D01*
X120937026Y-96981289D01*
X120941757Y-97080602D01*
X120946746Y-97185330D01*
X120948135Y-97191058D01*
X120948137Y-97191067D01*
X120981661Y-97329250D01*
X120996296Y-97389576D01*
X120998749Y-97394947D01*
X121062805Y-97535211D01*
X121083604Y-97580753D01*
X121087031Y-97585566D01*
X121087032Y-97585567D01*
X121190991Y-97731558D01*
X121205514Y-97751952D01*
X121357622Y-97896986D01*
X121534428Y-98010613D01*
X121539911Y-98012808D01*
X121539913Y-98012809D01*
X121678331Y-98068223D01*
X121729543Y-98088725D01*
X121935915Y-98128500D01*
X122390471Y-98128500D01*
X122393425Y-98128500D01*
X122550218Y-98113528D01*
X122751875Y-98054316D01*
X122938682Y-97958011D01*
X122990831Y-97917000D01*
X127587750Y-97917000D01*
X127588811Y-97925059D01*
X127604573Y-98044788D01*
X127606670Y-98060709D01*
X127609781Y-98068220D01*
X127609782Y-98068223D01*
X127641931Y-98145839D01*
X127662139Y-98194625D01*
X127667084Y-98201069D01*
X127667085Y-98201071D01*
X127716841Y-98265914D01*
X127750379Y-98309621D01*
X127865375Y-98397861D01*
X127999291Y-98453330D01*
X128143000Y-98472250D01*
X128286709Y-98453330D01*
X128420625Y-98397861D01*
X128535621Y-98309621D01*
X128623861Y-98194625D01*
X128679330Y-98060709D01*
X128698250Y-97917000D01*
X128681530Y-97790000D01*
X130381750Y-97790000D01*
X130382811Y-97798059D01*
X130395298Y-97892911D01*
X130400670Y-97933709D01*
X130403781Y-97941220D01*
X130403782Y-97941223D01*
X130410736Y-97958011D01*
X130456139Y-98067625D01*
X130461084Y-98074069D01*
X130461085Y-98074071D01*
X130539435Y-98176178D01*
X130544379Y-98182621D01*
X130659375Y-98270861D01*
X130793291Y-98326330D01*
X130937000Y-98345250D01*
X131080709Y-98326330D01*
X131214625Y-98270861D01*
X131329621Y-98182621D01*
X131417861Y-98067625D01*
X131473330Y-97933709D01*
X131475530Y-97917000D01*
X137112750Y-97917000D01*
X137113811Y-97925059D01*
X137129573Y-98044788D01*
X137131670Y-98060709D01*
X137134781Y-98068220D01*
X137134782Y-98068223D01*
X137166931Y-98145839D01*
X137187139Y-98194625D01*
X137192084Y-98201069D01*
X137192085Y-98201071D01*
X137241841Y-98265914D01*
X137275379Y-98309621D01*
X137390375Y-98397861D01*
X137524291Y-98453330D01*
X137668000Y-98472250D01*
X137811709Y-98453330D01*
X137945625Y-98397861D01*
X138060621Y-98309621D01*
X138148861Y-98194625D01*
X138204330Y-98060709D01*
X138223250Y-97917000D01*
X138204330Y-97773291D01*
X138189463Y-97737398D01*
X163489746Y-97737398D01*
X163490026Y-97743282D01*
X163490026Y-97743289D01*
X163494757Y-97842602D01*
X163499746Y-97947330D01*
X163501135Y-97953058D01*
X163501137Y-97953067D01*
X163543698Y-98128500D01*
X163549296Y-98151576D01*
X163551749Y-98156947D01*
X163618530Y-98303178D01*
X163636604Y-98342753D01*
X163640031Y-98347566D01*
X163640032Y-98347567D01*
X163699626Y-98431256D01*
X163758514Y-98513952D01*
X163910622Y-98658986D01*
X164087428Y-98772613D01*
X164092911Y-98774808D01*
X164092913Y-98774809D01*
X164277060Y-98848530D01*
X164282543Y-98850725D01*
X164488915Y-98890500D01*
X164893471Y-98890500D01*
X164896425Y-98890500D01*
X165053218Y-98875528D01*
X165254875Y-98816316D01*
X165441682Y-98720011D01*
X165606886Y-98590092D01*
X165744519Y-98431256D01*
X165849604Y-98249244D01*
X165918344Y-98050633D01*
X165948254Y-97842602D01*
X165938254Y-97632670D01*
X165888704Y-97428424D01*
X165801396Y-97237247D01*
X165679486Y-97066048D01*
X165578290Y-96969558D01*
X165531651Y-96925088D01*
X165531649Y-96925086D01*
X165527378Y-96921014D01*
X165428210Y-96857282D01*
X165355544Y-96810582D01*
X165355541Y-96810580D01*
X165350572Y-96807387D01*
X165345092Y-96805193D01*
X165345086Y-96805190D01*
X165160939Y-96731469D01*
X165160932Y-96731467D01*
X165155457Y-96729275D01*
X165149662Y-96728158D01*
X165149655Y-96728156D01*
X164954882Y-96690617D01*
X164954879Y-96690616D01*
X164949085Y-96689500D01*
X164541575Y-96689500D01*
X164538646Y-96689779D01*
X164538639Y-96689780D01*
X164390662Y-96703910D01*
X164390656Y-96703911D01*
X164384782Y-96704472D01*
X164379112Y-96706136D01*
X164379111Y-96706137D01*
X164188787Y-96762021D01*
X164188782Y-96762022D01*
X164183125Y-96763684D01*
X164177884Y-96766385D01*
X164177881Y-96766387D01*
X164001568Y-96857282D01*
X164001564Y-96857284D01*
X163996318Y-96859989D01*
X163991676Y-96863638D01*
X163991672Y-96863642D01*
X163835759Y-96986254D01*
X163835752Y-96986260D01*
X163831114Y-96989908D01*
X163827250Y-96994367D01*
X163827245Y-96994372D01*
X163747467Y-97086441D01*
X163693481Y-97148744D01*
X163690530Y-97153854D01*
X163690528Y-97153858D01*
X163591352Y-97325635D01*
X163591349Y-97325640D01*
X163588396Y-97330756D01*
X163586465Y-97336335D01*
X163586461Y-97336344D01*
X163521587Y-97523785D01*
X163521584Y-97523794D01*
X163519656Y-97529367D01*
X163518816Y-97535203D01*
X163518815Y-97535211D01*
X163490585Y-97731558D01*
X163490584Y-97731564D01*
X163489746Y-97737398D01*
X138189463Y-97737398D01*
X138148861Y-97639375D01*
X138060621Y-97524379D01*
X138036575Y-97505928D01*
X137952071Y-97441085D01*
X137952069Y-97441084D01*
X137945625Y-97436139D01*
X137909592Y-97421214D01*
X137819223Y-97383782D01*
X137819220Y-97383781D01*
X137811709Y-97380670D01*
X137803649Y-97379608D01*
X137803646Y-97379608D01*
X137676059Y-97362811D01*
X137668000Y-97361750D01*
X137659941Y-97362811D01*
X137532353Y-97379608D01*
X137532348Y-97379609D01*
X137524291Y-97380670D01*
X137516781Y-97383780D01*
X137516776Y-97383782D01*
X137397885Y-97433028D01*
X137397883Y-97433029D01*
X137390375Y-97436139D01*
X137383933Y-97441082D01*
X137383928Y-97441085D01*
X137281821Y-97519435D01*
X137281817Y-97519438D01*
X137275379Y-97524379D01*
X137270438Y-97530817D01*
X137270435Y-97530821D01*
X137192085Y-97632928D01*
X137192082Y-97632933D01*
X137187139Y-97639375D01*
X137184029Y-97646883D01*
X137184028Y-97646885D01*
X137134782Y-97765776D01*
X137134780Y-97765781D01*
X137131670Y-97773291D01*
X137130609Y-97781348D01*
X137130608Y-97781353D01*
X137122545Y-97842602D01*
X137112750Y-97917000D01*
X131475530Y-97917000D01*
X131492250Y-97790000D01*
X131473330Y-97646291D01*
X131417861Y-97512375D01*
X131329621Y-97397379D01*
X131319452Y-97389576D01*
X131221071Y-97314085D01*
X131221069Y-97314084D01*
X131214625Y-97309139D01*
X131178592Y-97294214D01*
X131088223Y-97256782D01*
X131088220Y-97256781D01*
X131080709Y-97253670D01*
X131072649Y-97252608D01*
X131072646Y-97252608D01*
X130945059Y-97235811D01*
X130937000Y-97234750D01*
X130928941Y-97235811D01*
X130801353Y-97252608D01*
X130801348Y-97252609D01*
X130793291Y-97253670D01*
X130785781Y-97256780D01*
X130785776Y-97256782D01*
X130666885Y-97306028D01*
X130666883Y-97306029D01*
X130659375Y-97309139D01*
X130652933Y-97314082D01*
X130652928Y-97314085D01*
X130550821Y-97392435D01*
X130550817Y-97392438D01*
X130544379Y-97397379D01*
X130539438Y-97403817D01*
X130539435Y-97403821D01*
X130461085Y-97505928D01*
X130461082Y-97505933D01*
X130456139Y-97512375D01*
X130453029Y-97519883D01*
X130453028Y-97519885D01*
X130403782Y-97638776D01*
X130403780Y-97638781D01*
X130400670Y-97646291D01*
X130399609Y-97654348D01*
X130399608Y-97654353D01*
X130386759Y-97751952D01*
X130381750Y-97790000D01*
X128681530Y-97790000D01*
X128679330Y-97773291D01*
X128623861Y-97639375D01*
X128535621Y-97524379D01*
X128511575Y-97505928D01*
X128427071Y-97441085D01*
X128427069Y-97441084D01*
X128420625Y-97436139D01*
X128384592Y-97421214D01*
X128294223Y-97383782D01*
X128294220Y-97383781D01*
X128286709Y-97380670D01*
X128278649Y-97379608D01*
X128278646Y-97379608D01*
X128151059Y-97362811D01*
X128143000Y-97361750D01*
X128134941Y-97362811D01*
X128007353Y-97379608D01*
X128007348Y-97379609D01*
X127999291Y-97380670D01*
X127991781Y-97383780D01*
X127991776Y-97383782D01*
X127872885Y-97433028D01*
X127872883Y-97433029D01*
X127865375Y-97436139D01*
X127858933Y-97441082D01*
X127858928Y-97441085D01*
X127756821Y-97519435D01*
X127756817Y-97519438D01*
X127750379Y-97524379D01*
X127745438Y-97530817D01*
X127745435Y-97530821D01*
X127667085Y-97632928D01*
X127667082Y-97632933D01*
X127662139Y-97639375D01*
X127659029Y-97646883D01*
X127659028Y-97646885D01*
X127609782Y-97765776D01*
X127609780Y-97765781D01*
X127606670Y-97773291D01*
X127605609Y-97781348D01*
X127605608Y-97781353D01*
X127597545Y-97842602D01*
X127587750Y-97917000D01*
X122990831Y-97917000D01*
X123103886Y-97828092D01*
X123241519Y-97669256D01*
X123346604Y-97487244D01*
X123415344Y-97288633D01*
X123445254Y-97080602D01*
X123435254Y-96870670D01*
X123411802Y-96774000D01*
X142192750Y-96774000D01*
X142193811Y-96782059D01*
X142204721Y-96864932D01*
X142211670Y-96917709D01*
X142267139Y-97051625D01*
X142272084Y-97058069D01*
X142272085Y-97058071D01*
X142350435Y-97160178D01*
X142355379Y-97166621D01*
X142470375Y-97254861D01*
X142604291Y-97310330D01*
X142748000Y-97329250D01*
X142891709Y-97310330D01*
X143025625Y-97254861D01*
X143140621Y-97166621D01*
X143228861Y-97051625D01*
X143284330Y-96917709D01*
X143303250Y-96774000D01*
X143284330Y-96630291D01*
X143228861Y-96496375D01*
X143140621Y-96381379D01*
X143097185Y-96348049D01*
X143032071Y-96298085D01*
X143032069Y-96298084D01*
X143025625Y-96293139D01*
X142980295Y-96274363D01*
X142899223Y-96240782D01*
X142899220Y-96240781D01*
X142891709Y-96237670D01*
X142883649Y-96236608D01*
X142883646Y-96236608D01*
X142756059Y-96219811D01*
X142748000Y-96218750D01*
X142739941Y-96219811D01*
X142612353Y-96236608D01*
X142612348Y-96236609D01*
X142604291Y-96237670D01*
X142596781Y-96240780D01*
X142596776Y-96240782D01*
X142477885Y-96290028D01*
X142477883Y-96290029D01*
X142470375Y-96293139D01*
X142463933Y-96298082D01*
X142463928Y-96298085D01*
X142361821Y-96376435D01*
X142361817Y-96376438D01*
X142355379Y-96381379D01*
X142350438Y-96387817D01*
X142350435Y-96387821D01*
X142272085Y-96489928D01*
X142272082Y-96489933D01*
X142267139Y-96496375D01*
X142264029Y-96503883D01*
X142264028Y-96503885D01*
X142214782Y-96622776D01*
X142214780Y-96622781D01*
X142211670Y-96630291D01*
X142210609Y-96638348D01*
X142210608Y-96638353D01*
X142198638Y-96729275D01*
X142192750Y-96774000D01*
X123411802Y-96774000D01*
X123385704Y-96666424D01*
X123298396Y-96475247D01*
X123176486Y-96304048D01*
X123110134Y-96240782D01*
X123028651Y-96163088D01*
X123028649Y-96163086D01*
X123024378Y-96159014D01*
X122922253Y-96093382D01*
X122852544Y-96048582D01*
X122852541Y-96048580D01*
X122847572Y-96045387D01*
X122842092Y-96043193D01*
X122842086Y-96043190D01*
X122657939Y-95969469D01*
X122657932Y-95969467D01*
X122652457Y-95967275D01*
X122646662Y-95966158D01*
X122646655Y-95966156D01*
X122451882Y-95928617D01*
X122451879Y-95928616D01*
X122446085Y-95927500D01*
X121988575Y-95927500D01*
X121985646Y-95927779D01*
X121985639Y-95927780D01*
X121837662Y-95941910D01*
X121837656Y-95941911D01*
X121831782Y-95942472D01*
X121826112Y-95944136D01*
X121826111Y-95944137D01*
X121635787Y-96000021D01*
X121635782Y-96000022D01*
X121630125Y-96001684D01*
X121624884Y-96004385D01*
X121624881Y-96004387D01*
X121448568Y-96095282D01*
X121448564Y-96095284D01*
X121443318Y-96097989D01*
X121438676Y-96101638D01*
X121438672Y-96101642D01*
X121282759Y-96224254D01*
X121282752Y-96224260D01*
X121278114Y-96227908D01*
X121274250Y-96232367D01*
X121274245Y-96232372D01*
X121145094Y-96381420D01*
X121140481Y-96386744D01*
X121137530Y-96391854D01*
X121137528Y-96391858D01*
X121038352Y-96563635D01*
X121038349Y-96563640D01*
X121035396Y-96568756D01*
X121033465Y-96574335D01*
X121033461Y-96574344D01*
X120968587Y-96761785D01*
X120968584Y-96761794D01*
X120966656Y-96767367D01*
X120965816Y-96773203D01*
X120965815Y-96773211D01*
X120937585Y-96969558D01*
X120937584Y-96969564D01*
X120936746Y-96975398D01*
X117140500Y-96975398D01*
X117140500Y-95631000D01*
X140160750Y-95631000D01*
X140161811Y-95639059D01*
X140176963Y-95754153D01*
X140179670Y-95774709D01*
X140182781Y-95782220D01*
X140182782Y-95782223D01*
X140209746Y-95847319D01*
X140235139Y-95908625D01*
X140240084Y-95915069D01*
X140240085Y-95915071D01*
X140261111Y-95942472D01*
X140323379Y-96023621D01*
X140438375Y-96111861D01*
X140572291Y-96167330D01*
X140716000Y-96186250D01*
X140859709Y-96167330D01*
X140993625Y-96111861D01*
X141108621Y-96023621D01*
X141196861Y-95908625D01*
X141252330Y-95774709D01*
X141271250Y-95631000D01*
X141259599Y-95542505D01*
X163525927Y-95542505D01*
X163526060Y-95553679D01*
X163548377Y-95645670D01*
X163552225Y-95656788D01*
X163634580Y-95837121D01*
X163640468Y-95847319D01*
X163755463Y-96008806D01*
X163763172Y-96017703D01*
X163906658Y-96154517D01*
X163915899Y-96161784D01*
X164082685Y-96268971D01*
X164093143Y-96274363D01*
X164277201Y-96348049D01*
X164288485Y-96351362D01*
X164455542Y-96383559D01*
X164466587Y-96383230D01*
X164469000Y-96372448D01*
X164469000Y-96365740D01*
X164969000Y-96365740D01*
X164972760Y-96378931D01*
X164986251Y-96381420D01*
X165047234Y-96375597D01*
X165058796Y-96373369D01*
X165249026Y-96317512D01*
X165259932Y-96313146D01*
X165436159Y-96222295D01*
X165446055Y-96215935D01*
X165601894Y-96093382D01*
X165610408Y-96085264D01*
X165740243Y-95935427D01*
X165747062Y-95925850D01*
X165846191Y-95754153D01*
X165851079Y-95743450D01*
X165915924Y-95556095D01*
X165917279Y-95550511D01*
X165916693Y-95542318D01*
X165906036Y-95540000D01*
X164985326Y-95540000D01*
X164972450Y-95543450D01*
X164969000Y-95556326D01*
X164969000Y-96365740D01*
X164469000Y-96365740D01*
X164469000Y-95556326D01*
X164465549Y-95543450D01*
X164452674Y-95540000D01*
X163536819Y-95540000D01*
X163525927Y-95542505D01*
X141259599Y-95542505D01*
X141252330Y-95487291D01*
X141196861Y-95353375D01*
X141108621Y-95238379D01*
X141027161Y-95175872D01*
X141000071Y-95155085D01*
X141000069Y-95155084D01*
X140993625Y-95150139D01*
X140957592Y-95135214D01*
X140867223Y-95097782D01*
X140867220Y-95097781D01*
X140859709Y-95094670D01*
X140851649Y-95093608D01*
X140851646Y-95093608D01*
X140724059Y-95076811D01*
X140716000Y-95075750D01*
X140707941Y-95076811D01*
X140580353Y-95093608D01*
X140580348Y-95093609D01*
X140572291Y-95094670D01*
X140564781Y-95097780D01*
X140564776Y-95097782D01*
X140445885Y-95147028D01*
X140445883Y-95147029D01*
X140438375Y-95150139D01*
X140431933Y-95155082D01*
X140431928Y-95155085D01*
X140329821Y-95233435D01*
X140329817Y-95233438D01*
X140323379Y-95238379D01*
X140318438Y-95244817D01*
X140318435Y-95244821D01*
X140240085Y-95346928D01*
X140240082Y-95346933D01*
X140235139Y-95353375D01*
X140232029Y-95360883D01*
X140232028Y-95360885D01*
X140182782Y-95479776D01*
X140182780Y-95479781D01*
X140179670Y-95487291D01*
X140178609Y-95495348D01*
X140178608Y-95495353D01*
X140162280Y-95619379D01*
X140160750Y-95631000D01*
X117140500Y-95631000D01*
X117140500Y-95172578D01*
X120940500Y-95172578D01*
X120940501Y-95175872D01*
X120940853Y-95179150D01*
X120940854Y-95179161D01*
X120946079Y-95227768D01*
X120946080Y-95227773D01*
X120946909Y-95235483D01*
X120949619Y-95242749D01*
X120949620Y-95242753D01*
X120983217Y-95332831D01*
X120997204Y-95370331D01*
X121083454Y-95485546D01*
X121198669Y-95571796D01*
X121333517Y-95622091D01*
X121393127Y-95628500D01*
X122988872Y-95628499D01*
X123048483Y-95622091D01*
X123183331Y-95571796D01*
X123298546Y-95485546D01*
X123384796Y-95370331D01*
X123435091Y-95235483D01*
X123441500Y-95175873D01*
X123441499Y-93880128D01*
X123435091Y-93820517D01*
X123384796Y-93685669D01*
X123309357Y-93584895D01*
X129845541Y-93584895D01*
X129846602Y-93592954D01*
X129862979Y-93717353D01*
X129864461Y-93728604D01*
X129919930Y-93862520D01*
X129924875Y-93868964D01*
X129924876Y-93868966D01*
X129990725Y-93954782D01*
X130008170Y-93977516D01*
X130123166Y-94065756D01*
X130257082Y-94121225D01*
X130400791Y-94140145D01*
X130544500Y-94121225D01*
X130678416Y-94065756D01*
X130793412Y-93977516D01*
X130881652Y-93862520D01*
X130937121Y-93728604D01*
X130956041Y-93584895D01*
X130937121Y-93441186D01*
X130881652Y-93307270D01*
X130793412Y-93192274D01*
X130765362Y-93170750D01*
X130684862Y-93108980D01*
X130684860Y-93108979D01*
X130678416Y-93104034D01*
X130593116Y-93068702D01*
X130552014Y-93051677D01*
X130552011Y-93051676D01*
X130544500Y-93048565D01*
X130536440Y-93047503D01*
X130536437Y-93047503D01*
X130408850Y-93030706D01*
X130400791Y-93029645D01*
X130392732Y-93030706D01*
X130265144Y-93047503D01*
X130265139Y-93047504D01*
X130257082Y-93048565D01*
X130249572Y-93051675D01*
X130249567Y-93051677D01*
X130130676Y-93100923D01*
X130130674Y-93100924D01*
X130123166Y-93104034D01*
X130116724Y-93108977D01*
X130116719Y-93108980D01*
X130014612Y-93187330D01*
X130014608Y-93187333D01*
X130008170Y-93192274D01*
X130003229Y-93198712D01*
X130003226Y-93198716D01*
X129924876Y-93300823D01*
X129924873Y-93300828D01*
X129919930Y-93307270D01*
X129916820Y-93314778D01*
X129916819Y-93314780D01*
X129867573Y-93433671D01*
X129867571Y-93433676D01*
X129864461Y-93441186D01*
X129863400Y-93449243D01*
X129863399Y-93449248D01*
X129850394Y-93548030D01*
X129845541Y-93584895D01*
X123309357Y-93584895D01*
X123298546Y-93570454D01*
X123290122Y-93564148D01*
X123190431Y-93489519D01*
X123190430Y-93489518D01*
X123183331Y-93484204D01*
X123089609Y-93449248D01*
X123055752Y-93436620D01*
X123055750Y-93436619D01*
X123048483Y-93433909D01*
X123040770Y-93433079D01*
X123040767Y-93433079D01*
X122992180Y-93427855D01*
X122992169Y-93427854D01*
X122988873Y-93427500D01*
X122985550Y-93427500D01*
X121396439Y-93427500D01*
X121396420Y-93427500D01*
X121393128Y-93427501D01*
X121389850Y-93427853D01*
X121389838Y-93427854D01*
X121341231Y-93433079D01*
X121341225Y-93433080D01*
X121333517Y-93433909D01*
X121326252Y-93436618D01*
X121326246Y-93436620D01*
X121206980Y-93481104D01*
X121206978Y-93481104D01*
X121198669Y-93484204D01*
X121191572Y-93489516D01*
X121191568Y-93489519D01*
X121090550Y-93565141D01*
X121090546Y-93565144D01*
X121083454Y-93570454D01*
X121078144Y-93577546D01*
X121078141Y-93577550D01*
X121002519Y-93678568D01*
X121002516Y-93678572D01*
X120997204Y-93685669D01*
X120994104Y-93693978D01*
X120994104Y-93693980D01*
X120949620Y-93813247D01*
X120949619Y-93813250D01*
X120946909Y-93820517D01*
X120946079Y-93828227D01*
X120946079Y-93828232D01*
X120940855Y-93876819D01*
X120940854Y-93876831D01*
X120940500Y-93880127D01*
X120940500Y-93883448D01*
X120940500Y-93883449D01*
X120940500Y-95172560D01*
X120940500Y-95172578D01*
X117140500Y-95172578D01*
X117140500Y-89525000D01*
X130417250Y-89525000D01*
X130418311Y-89533059D01*
X130434425Y-89655459D01*
X130436170Y-89668709D01*
X130491639Y-89802625D01*
X130496584Y-89809069D01*
X130496585Y-89809071D01*
X130560307Y-89892114D01*
X130579879Y-89917621D01*
X130694875Y-90005861D01*
X130828791Y-90061330D01*
X130930929Y-90074777D01*
X130950761Y-90077388D01*
X131003465Y-90097224D01*
X131041961Y-90138326D01*
X131058309Y-90192215D01*
X131049137Y-90247777D01*
X131038782Y-90272776D01*
X131038780Y-90272781D01*
X131035670Y-90280291D01*
X131034609Y-90288348D01*
X131034608Y-90288353D01*
X131019894Y-90400121D01*
X131016750Y-90424000D01*
X131017811Y-90432059D01*
X131017811Y-90432060D01*
X131028125Y-90510403D01*
X131019757Y-90574017D01*
X130980713Y-90624933D01*
X130935450Y-90643708D01*
X130936200Y-90646506D01*
X130928352Y-90648608D01*
X130920291Y-90649670D01*
X130912781Y-90652780D01*
X130912776Y-90652782D01*
X130793885Y-90702028D01*
X130793883Y-90702029D01*
X130786375Y-90705139D01*
X130779933Y-90710082D01*
X130779928Y-90710085D01*
X130677821Y-90788435D01*
X130677817Y-90788438D01*
X130671379Y-90793379D01*
X130666438Y-90799817D01*
X130666435Y-90799821D01*
X130588085Y-90901928D01*
X130588082Y-90901933D01*
X130583139Y-90908375D01*
X130580029Y-90915883D01*
X130580028Y-90915885D01*
X130530782Y-91034776D01*
X130530780Y-91034781D01*
X130527670Y-91042291D01*
X130526609Y-91050348D01*
X130526608Y-91050353D01*
X130517644Y-91118446D01*
X130508750Y-91186000D01*
X130509811Y-91194059D01*
X130526151Y-91318178D01*
X130527670Y-91329709D01*
X130530781Y-91337220D01*
X130530782Y-91337223D01*
X130549343Y-91382034D01*
X130583139Y-91463625D01*
X130588084Y-91470069D01*
X130588085Y-91470071D01*
X130644334Y-91543375D01*
X130671379Y-91578621D01*
X130786375Y-91666861D01*
X130920291Y-91722330D01*
X131064000Y-91741250D01*
X131207709Y-91722330D01*
X131341625Y-91666861D01*
X131456621Y-91578621D01*
X131544861Y-91463625D01*
X131600330Y-91329709D01*
X131619250Y-91186000D01*
X131607874Y-91099594D01*
X131616256Y-91035948D01*
X131655345Y-90985021D01*
X131700553Y-90966307D01*
X131699800Y-90963494D01*
X131707646Y-90961391D01*
X131715709Y-90960330D01*
X131849625Y-90904861D01*
X131964621Y-90816621D01*
X132052861Y-90701625D01*
X132078181Y-90640497D01*
X133302750Y-90640497D01*
X133303811Y-90648556D01*
X133311911Y-90710085D01*
X133321670Y-90784206D01*
X133324781Y-90791717D01*
X133324782Y-90791720D01*
X133337144Y-90821564D01*
X133377139Y-90918122D01*
X133382084Y-90924566D01*
X133382085Y-90924568D01*
X133423832Y-90978973D01*
X133465379Y-91033118D01*
X133580375Y-91121358D01*
X133695639Y-91169101D01*
X133746558Y-91208172D01*
X133771122Y-91267473D01*
X133762745Y-91331111D01*
X133723671Y-91382034D01*
X133669725Y-91423429D01*
X133669715Y-91423438D01*
X133663277Y-91428379D01*
X133658336Y-91434817D01*
X133658333Y-91434821D01*
X133579983Y-91536928D01*
X133579980Y-91536933D01*
X133575037Y-91543375D01*
X133571927Y-91550883D01*
X133571926Y-91550885D01*
X133522680Y-91669776D01*
X133522678Y-91669781D01*
X133519568Y-91677291D01*
X133518507Y-91685348D01*
X133518506Y-91685353D01*
X133511287Y-91740189D01*
X133500648Y-91821000D01*
X133519568Y-91964709D01*
X133575037Y-92098625D01*
X133579982Y-92105069D01*
X133579983Y-92105071D01*
X133639720Y-92182921D01*
X133662405Y-92231569D01*
X133662405Y-92285246D01*
X133639720Y-92333895D01*
X133562427Y-92434624D01*
X133562424Y-92434627D01*
X133557480Y-92441072D01*
X133554370Y-92448580D01*
X133554369Y-92448582D01*
X133505123Y-92567473D01*
X133505121Y-92567478D01*
X133502011Y-92574988D01*
X133500950Y-92583045D01*
X133500949Y-92583050D01*
X133488195Y-92679928D01*
X133483091Y-92718697D01*
X133484152Y-92726756D01*
X133497527Y-92828353D01*
X133502011Y-92862406D01*
X133557480Y-92996322D01*
X133562423Y-93002763D01*
X133562426Y-93002769D01*
X133602589Y-93055109D01*
X133625274Y-93103757D01*
X133625274Y-93157434D01*
X133602589Y-93206082D01*
X133551999Y-93272012D01*
X133551993Y-93272021D01*
X133547050Y-93278464D01*
X133543940Y-93285972D01*
X133543939Y-93285974D01*
X133494693Y-93404865D01*
X133494691Y-93404870D01*
X133491581Y-93412380D01*
X133490520Y-93420437D01*
X133490519Y-93420442D01*
X133482125Y-93484204D01*
X133472661Y-93556089D01*
X133473722Y-93564148D01*
X133489720Y-93685669D01*
X133491581Y-93699798D01*
X133494692Y-93707309D01*
X133494693Y-93707312D01*
X133505772Y-93734059D01*
X133547050Y-93833714D01*
X133551998Y-93840162D01*
X133551999Y-93840164D01*
X133563457Y-93855096D01*
X133586142Y-93903743D01*
X133586142Y-93957420D01*
X133563457Y-94006068D01*
X133509088Y-94076923D01*
X133509082Y-94076932D01*
X133504139Y-94083375D01*
X133501029Y-94090883D01*
X133501028Y-94090885D01*
X133451782Y-94209776D01*
X133451780Y-94209781D01*
X133448670Y-94217291D01*
X133447609Y-94225348D01*
X133447608Y-94225353D01*
X133431950Y-94344291D01*
X133429750Y-94361000D01*
X133430811Y-94369059D01*
X133447356Y-94494735D01*
X133448670Y-94504709D01*
X133504139Y-94638625D01*
X133509084Y-94645069D01*
X133509085Y-94645071D01*
X133587435Y-94747178D01*
X133592379Y-94753621D01*
X133707375Y-94841861D01*
X133841291Y-94897330D01*
X133985000Y-94916250D01*
X134128709Y-94897330D01*
X134262625Y-94841861D01*
X134377621Y-94753621D01*
X134465861Y-94638625D01*
X134521330Y-94504709D01*
X134523530Y-94488000D01*
X135461750Y-94488000D01*
X135462811Y-94496059D01*
X135472702Y-94571193D01*
X135480670Y-94631709D01*
X135483781Y-94639220D01*
X135483782Y-94639223D01*
X135489965Y-94654149D01*
X135536139Y-94765625D01*
X135624379Y-94880621D01*
X135739375Y-94968861D01*
X135873291Y-95024330D01*
X136017000Y-95043250D01*
X136160709Y-95024330D01*
X136294625Y-94968861D01*
X136409621Y-94880621D01*
X136497861Y-94765625D01*
X136553330Y-94631709D01*
X136572250Y-94488000D01*
X137112750Y-94488000D01*
X137113811Y-94496059D01*
X137123702Y-94571193D01*
X137131670Y-94631709D01*
X137134781Y-94639220D01*
X137134782Y-94639223D01*
X137140965Y-94654149D01*
X137187139Y-94765625D01*
X137275379Y-94880621D01*
X137390375Y-94968861D01*
X137524291Y-95024330D01*
X137668000Y-95043250D01*
X137772531Y-95029488D01*
X163520720Y-95029488D01*
X163521306Y-95037681D01*
X163531964Y-95040000D01*
X164452674Y-95040000D01*
X164465549Y-95036549D01*
X164469000Y-95023674D01*
X164969000Y-95023674D01*
X164972450Y-95036549D01*
X164985326Y-95040000D01*
X165901181Y-95040000D01*
X165912072Y-95037494D01*
X165911939Y-95026320D01*
X165889622Y-94934329D01*
X165885774Y-94923211D01*
X165803419Y-94742878D01*
X165797531Y-94732680D01*
X165682536Y-94571193D01*
X165674827Y-94562296D01*
X165531341Y-94425482D01*
X165522100Y-94418215D01*
X165355314Y-94311028D01*
X165344856Y-94305636D01*
X165160798Y-94231950D01*
X165149514Y-94228637D01*
X164982457Y-94196440D01*
X164971412Y-94196769D01*
X164969000Y-94207552D01*
X164969000Y-95023674D01*
X164469000Y-95023674D01*
X164469000Y-94214260D01*
X164465239Y-94201068D01*
X164451748Y-94198579D01*
X164390765Y-94204402D01*
X164379203Y-94206630D01*
X164188973Y-94262487D01*
X164178067Y-94266853D01*
X164001840Y-94357704D01*
X163991944Y-94364064D01*
X163836105Y-94486617D01*
X163827591Y-94494735D01*
X163697756Y-94644572D01*
X163690937Y-94654149D01*
X163591808Y-94825846D01*
X163586920Y-94836549D01*
X163522075Y-95023904D01*
X163520720Y-95029488D01*
X137772531Y-95029488D01*
X137811709Y-95024330D01*
X137945625Y-94968861D01*
X138060621Y-94880621D01*
X138148861Y-94765625D01*
X138204330Y-94631709D01*
X138220907Y-94505789D01*
X138245470Y-94446491D01*
X138296394Y-94407416D01*
X138360030Y-94399038D01*
X138430000Y-94408250D01*
X138573709Y-94389330D01*
X138707625Y-94333861D01*
X138822621Y-94245621D01*
X138910861Y-94130625D01*
X138966330Y-93996709D01*
X138985250Y-93853000D01*
X138968530Y-93726000D01*
X141049750Y-93726000D01*
X141050811Y-93734059D01*
X141066734Y-93855009D01*
X141068670Y-93869709D01*
X141071781Y-93877220D01*
X141071782Y-93877223D01*
X141097936Y-93940365D01*
X141124139Y-94003625D01*
X141129084Y-94010069D01*
X141129085Y-94010071D01*
X141171814Y-94065756D01*
X141212379Y-94118621D01*
X141327375Y-94206861D01*
X141461291Y-94262330D01*
X141605000Y-94281250D01*
X141748709Y-94262330D01*
X141882625Y-94206861D01*
X141997621Y-94118621D01*
X142085861Y-94003625D01*
X142141330Y-93869709D01*
X142160250Y-93726000D01*
X142141330Y-93582291D01*
X142085861Y-93448375D01*
X141997621Y-93333379D01*
X141991178Y-93328435D01*
X141889071Y-93250085D01*
X141889069Y-93250084D01*
X141882625Y-93245139D01*
X141788332Y-93206082D01*
X141756223Y-93192782D01*
X141756220Y-93192781D01*
X141748709Y-93189670D01*
X141740649Y-93188608D01*
X141740646Y-93188608D01*
X141613059Y-93171811D01*
X141605000Y-93170750D01*
X141596941Y-93171811D01*
X141469353Y-93188608D01*
X141469348Y-93188609D01*
X141461291Y-93189670D01*
X141453781Y-93192780D01*
X141453776Y-93192782D01*
X141334885Y-93242028D01*
X141334883Y-93242029D01*
X141327375Y-93245139D01*
X141320933Y-93250082D01*
X141320928Y-93250085D01*
X141218821Y-93328435D01*
X141218817Y-93328438D01*
X141212379Y-93333379D01*
X141207438Y-93339817D01*
X141207435Y-93339821D01*
X141129085Y-93441928D01*
X141129082Y-93441933D01*
X141124139Y-93448375D01*
X141121029Y-93455883D01*
X141121028Y-93455885D01*
X141071782Y-93574776D01*
X141071780Y-93574781D01*
X141068670Y-93582291D01*
X141067609Y-93590348D01*
X141067608Y-93590353D01*
X141053200Y-93699798D01*
X141049750Y-93726000D01*
X138968530Y-93726000D01*
X138966330Y-93709291D01*
X138910861Y-93575375D01*
X138840735Y-93483985D01*
X138818051Y-93435339D01*
X138818051Y-93381661D01*
X138840736Y-93333013D01*
X138854727Y-93314780D01*
X138910861Y-93241625D01*
X138966330Y-93107709D01*
X138985250Y-92964000D01*
X138966330Y-92820291D01*
X138910861Y-92686375D01*
X138822621Y-92571379D01*
X138707625Y-92483139D01*
X138590486Y-92434619D01*
X138581223Y-92430782D01*
X138581220Y-92430781D01*
X138573709Y-92427670D01*
X138565649Y-92426608D01*
X138565646Y-92426608D01*
X138438059Y-92409811D01*
X138430000Y-92408750D01*
X138421941Y-92409811D01*
X138294353Y-92426608D01*
X138294348Y-92426609D01*
X138286291Y-92427670D01*
X138278781Y-92430780D01*
X138278776Y-92430782D01*
X138159885Y-92480028D01*
X138159883Y-92480029D01*
X138152375Y-92483139D01*
X138145933Y-92488082D01*
X138145928Y-92488085D01*
X138043821Y-92566435D01*
X138043817Y-92566438D01*
X138037379Y-92571379D01*
X138032438Y-92577817D01*
X138032435Y-92577821D01*
X137954085Y-92679928D01*
X137954082Y-92679933D01*
X137949139Y-92686375D01*
X137946029Y-92693883D01*
X137946028Y-92693885D01*
X137896782Y-92812776D01*
X137896780Y-92812781D01*
X137893670Y-92820291D01*
X137892609Y-92828348D01*
X137892608Y-92828353D01*
X137888125Y-92862406D01*
X137874750Y-92964000D01*
X137875811Y-92972059D01*
X137888534Y-93068702D01*
X137893670Y-93107709D01*
X137896781Y-93115220D01*
X137896782Y-93115223D01*
X137926650Y-93187330D01*
X137949139Y-93241625D01*
X137954084Y-93248069D01*
X137954085Y-93248071D01*
X138019263Y-93333012D01*
X138041948Y-93381660D01*
X138041948Y-93435337D01*
X138019263Y-93483985D01*
X137954088Y-93568923D01*
X137954082Y-93568932D01*
X137949139Y-93575375D01*
X137946029Y-93582883D01*
X137946028Y-93582885D01*
X137896782Y-93701776D01*
X137896780Y-93701781D01*
X137893670Y-93709291D01*
X137892609Y-93717348D01*
X137892608Y-93717353D01*
X137877092Y-93835208D01*
X137852529Y-93894509D01*
X137801606Y-93933583D01*
X137737968Y-93941961D01*
X137676060Y-93933811D01*
X137676059Y-93933811D01*
X137668000Y-93932750D01*
X137659941Y-93933811D01*
X137532353Y-93950608D01*
X137532348Y-93950609D01*
X137524291Y-93951670D01*
X137516781Y-93954780D01*
X137516776Y-93954782D01*
X137397885Y-94004028D01*
X137397883Y-94004029D01*
X137390375Y-94007139D01*
X137383933Y-94012082D01*
X137383928Y-94012085D01*
X137281821Y-94090435D01*
X137281817Y-94090438D01*
X137275379Y-94095379D01*
X137270438Y-94101817D01*
X137270435Y-94101821D01*
X137192085Y-94203928D01*
X137192082Y-94203933D01*
X137187139Y-94210375D01*
X137184029Y-94217883D01*
X137184028Y-94217885D01*
X137134782Y-94336776D01*
X137134780Y-94336781D01*
X137131670Y-94344291D01*
X137130609Y-94352348D01*
X137130608Y-94352353D01*
X137120981Y-94425482D01*
X137112750Y-94488000D01*
X136572250Y-94488000D01*
X136553330Y-94344291D01*
X136497861Y-94210375D01*
X136409621Y-94095379D01*
X136294625Y-94007139D01*
X136241125Y-93984979D01*
X136168223Y-93954782D01*
X136168220Y-93954781D01*
X136160709Y-93951670D01*
X136152649Y-93950608D01*
X136152646Y-93950608D01*
X136025059Y-93933811D01*
X136017000Y-93932750D01*
X136008941Y-93933811D01*
X135881353Y-93950608D01*
X135881348Y-93950609D01*
X135873291Y-93951670D01*
X135865781Y-93954780D01*
X135865776Y-93954782D01*
X135746885Y-94004028D01*
X135746883Y-94004029D01*
X135739375Y-94007139D01*
X135732933Y-94012082D01*
X135732928Y-94012085D01*
X135630821Y-94090435D01*
X135630817Y-94090438D01*
X135624379Y-94095379D01*
X135619438Y-94101817D01*
X135619435Y-94101821D01*
X135541085Y-94203928D01*
X135541082Y-94203933D01*
X135536139Y-94210375D01*
X135533029Y-94217883D01*
X135533028Y-94217885D01*
X135483782Y-94336776D01*
X135483780Y-94336781D01*
X135480670Y-94344291D01*
X135479609Y-94352348D01*
X135479608Y-94352353D01*
X135469981Y-94425482D01*
X135461750Y-94488000D01*
X134523530Y-94488000D01*
X134540250Y-94361000D01*
X134521330Y-94217291D01*
X134465861Y-94083375D01*
X134460913Y-94076927D01*
X134460911Y-94076923D01*
X134449454Y-94061993D01*
X134426768Y-94013345D01*
X134426768Y-93959667D01*
X134449454Y-93911019D01*
X134503822Y-93840166D01*
X134503824Y-93840161D01*
X134508772Y-93833714D01*
X134564241Y-93699798D01*
X134583161Y-93556089D01*
X134564241Y-93412380D01*
X134508772Y-93278464D01*
X134463661Y-93219675D01*
X134440977Y-93171028D01*
X134440977Y-93117350D01*
X134463663Y-93068702D01*
X134514252Y-93002773D01*
X134514252Y-93002772D01*
X134519202Y-92996322D01*
X134574671Y-92862406D01*
X134593591Y-92718697D01*
X134574671Y-92574988D01*
X134519202Y-92441072D01*
X134514256Y-92434627D01*
X134514252Y-92434619D01*
X134454519Y-92356775D01*
X134431833Y-92308126D01*
X134431833Y-92254449D01*
X134454516Y-92205804D01*
X134536759Y-92098625D01*
X134592228Y-91964709D01*
X134611148Y-91821000D01*
X134592228Y-91677291D01*
X134536759Y-91543375D01*
X134448519Y-91428379D01*
X134421849Y-91407914D01*
X134339969Y-91345085D01*
X134339967Y-91345084D01*
X134333523Y-91340139D01*
X134218262Y-91292397D01*
X134167338Y-91253323D01*
X134142775Y-91194022D01*
X134151153Y-91130383D01*
X134190228Y-91079460D01*
X134229480Y-91049339D01*
X134250621Y-91033118D01*
X134328212Y-90932000D01*
X137874750Y-90932000D01*
X137875811Y-90940059D01*
X137890331Y-91050353D01*
X137893670Y-91075709D01*
X137896781Y-91083220D01*
X137896782Y-91083223D01*
X137910529Y-91116411D01*
X137949139Y-91209625D01*
X137954084Y-91216069D01*
X137954085Y-91216071D01*
X138032435Y-91318178D01*
X138037379Y-91324621D01*
X138152375Y-91412861D01*
X138286291Y-91468330D01*
X138430000Y-91487250D01*
X138573709Y-91468330D01*
X138707625Y-91412861D01*
X138822621Y-91324621D01*
X138910861Y-91209625D01*
X138966330Y-91075709D01*
X138978562Y-90982800D01*
X142446750Y-90982800D01*
X142447811Y-90990859D01*
X142464340Y-91116411D01*
X142465670Y-91126509D01*
X142468781Y-91134020D01*
X142468782Y-91134023D01*
X142493634Y-91194022D01*
X142521139Y-91260425D01*
X142526084Y-91266869D01*
X142526085Y-91266871D01*
X142579919Y-91337028D01*
X142609379Y-91375421D01*
X142724375Y-91463661D01*
X142858291Y-91519130D01*
X143002000Y-91538050D01*
X143145709Y-91519130D01*
X143279625Y-91463661D01*
X143394621Y-91375421D01*
X143482861Y-91260425D01*
X143538330Y-91126509D01*
X143557250Y-90982800D01*
X143538330Y-90839091D01*
X143482861Y-90705175D01*
X143394621Y-90590179D01*
X143381865Y-90580391D01*
X143286071Y-90506885D01*
X143286069Y-90506884D01*
X143279625Y-90501939D01*
X143243592Y-90487014D01*
X143153223Y-90449582D01*
X143153220Y-90449581D01*
X143145709Y-90446470D01*
X143137649Y-90445408D01*
X143137646Y-90445408D01*
X143010059Y-90428611D01*
X143002000Y-90427550D01*
X142993941Y-90428611D01*
X142866353Y-90445408D01*
X142866348Y-90445409D01*
X142858291Y-90446470D01*
X142850781Y-90449580D01*
X142850776Y-90449582D01*
X142731885Y-90498828D01*
X142731883Y-90498829D01*
X142724375Y-90501939D01*
X142717933Y-90506882D01*
X142717928Y-90506885D01*
X142615821Y-90585235D01*
X142615817Y-90585238D01*
X142609379Y-90590179D01*
X142604438Y-90596617D01*
X142604435Y-90596621D01*
X142526085Y-90698728D01*
X142526082Y-90698733D01*
X142521139Y-90705175D01*
X142518029Y-90712683D01*
X142518028Y-90712685D01*
X142468782Y-90831576D01*
X142468780Y-90831581D01*
X142465670Y-90839091D01*
X142464609Y-90847148D01*
X142464608Y-90847153D01*
X142453438Y-90932000D01*
X142446750Y-90982800D01*
X138978562Y-90982800D01*
X138985250Y-90932000D01*
X138966330Y-90788291D01*
X138910861Y-90654375D01*
X138905914Y-90647928D01*
X138905911Y-90647922D01*
X138871098Y-90602554D01*
X138846534Y-90543252D01*
X138854913Y-90479613D01*
X138893986Y-90428692D01*
X138931221Y-90400121D01*
X139019461Y-90285125D01*
X139074930Y-90151209D01*
X139093850Y-90007500D01*
X139077790Y-89885518D01*
X163494000Y-89885518D01*
X163494353Y-89892114D01*
X163499573Y-89940667D01*
X163503111Y-89955641D01*
X163547547Y-90074777D01*
X163555962Y-90090189D01*
X163631498Y-90191092D01*
X163643907Y-90203501D01*
X163744810Y-90279037D01*
X163760222Y-90287452D01*
X163879358Y-90331888D01*
X163894332Y-90335426D01*
X163942885Y-90340646D01*
X163949482Y-90341000D01*
X164452674Y-90341000D01*
X164465549Y-90337549D01*
X164469000Y-90324674D01*
X164969000Y-90324674D01*
X164972450Y-90337549D01*
X164985326Y-90341000D01*
X165488518Y-90341000D01*
X165495114Y-90340646D01*
X165543667Y-90335426D01*
X165558641Y-90331888D01*
X165677777Y-90287452D01*
X165693189Y-90279037D01*
X165794092Y-90203501D01*
X165806501Y-90191092D01*
X165882037Y-90090189D01*
X165890452Y-90074777D01*
X165934888Y-89955641D01*
X165938426Y-89940667D01*
X165943646Y-89892114D01*
X165944000Y-89885518D01*
X165944000Y-89507326D01*
X165940549Y-89494450D01*
X165927674Y-89491000D01*
X164985326Y-89491000D01*
X164972450Y-89494450D01*
X164969000Y-89507326D01*
X164969000Y-90324674D01*
X164469000Y-90324674D01*
X164469000Y-89507326D01*
X164465549Y-89494450D01*
X164452674Y-89491000D01*
X163510326Y-89491000D01*
X163497450Y-89494450D01*
X163494000Y-89507326D01*
X163494000Y-89885518D01*
X139077790Y-89885518D01*
X139074930Y-89863791D01*
X139019461Y-89729875D01*
X139021160Y-89729171D01*
X139008228Y-89685507D01*
X139018780Y-89628582D01*
X139054025Y-89582653D01*
X139106280Y-89557730D01*
X139164155Y-89559247D01*
X139167776Y-89560217D01*
X139175291Y-89563330D01*
X139319000Y-89582250D01*
X139462709Y-89563330D01*
X139596625Y-89507861D01*
X139711621Y-89419621D01*
X139799861Y-89304625D01*
X139855330Y-89170709D01*
X139874250Y-89027000D01*
X139867361Y-88974674D01*
X163494000Y-88974674D01*
X163497450Y-88987549D01*
X163510326Y-88991000D01*
X164452674Y-88991000D01*
X164465549Y-88987549D01*
X164469000Y-88974674D01*
X164969000Y-88974674D01*
X164972450Y-88987549D01*
X164985326Y-88991000D01*
X165927674Y-88991000D01*
X165940549Y-88987549D01*
X165944000Y-88974674D01*
X165944000Y-88596482D01*
X165943646Y-88589885D01*
X165938426Y-88541332D01*
X165934888Y-88526358D01*
X165890452Y-88407222D01*
X165882037Y-88391810D01*
X165806501Y-88290907D01*
X165794092Y-88278498D01*
X165693189Y-88202962D01*
X165677777Y-88194547D01*
X165558641Y-88150111D01*
X165543667Y-88146573D01*
X165495114Y-88141353D01*
X165488518Y-88141000D01*
X164985326Y-88141000D01*
X164972450Y-88144450D01*
X164969000Y-88157326D01*
X164969000Y-88974674D01*
X164469000Y-88974674D01*
X164469000Y-88157326D01*
X164465549Y-88144450D01*
X164452674Y-88141000D01*
X163949482Y-88141000D01*
X163942885Y-88141353D01*
X163894332Y-88146573D01*
X163879358Y-88150111D01*
X163760222Y-88194547D01*
X163744810Y-88202962D01*
X163643907Y-88278498D01*
X163631498Y-88290907D01*
X163555962Y-88391810D01*
X163547547Y-88407222D01*
X163503111Y-88526358D01*
X163499573Y-88541332D01*
X163494353Y-88589885D01*
X163494000Y-88596482D01*
X163494000Y-88974674D01*
X139867361Y-88974674D01*
X139855330Y-88883291D01*
X139799861Y-88749375D01*
X139711621Y-88634379D01*
X139596625Y-88546139D01*
X139548869Y-88526358D01*
X139470223Y-88493782D01*
X139470220Y-88493781D01*
X139462709Y-88490670D01*
X139454649Y-88489608D01*
X139454646Y-88489608D01*
X139327059Y-88472811D01*
X139319000Y-88471750D01*
X139310941Y-88472811D01*
X139183353Y-88489608D01*
X139183348Y-88489609D01*
X139175291Y-88490670D01*
X139167781Y-88493780D01*
X139167776Y-88493782D01*
X139048885Y-88543028D01*
X139048883Y-88543029D01*
X139041375Y-88546139D01*
X139034933Y-88551082D01*
X139034928Y-88551085D01*
X138932821Y-88629435D01*
X138932817Y-88629438D01*
X138926379Y-88634379D01*
X138921438Y-88640817D01*
X138921435Y-88640821D01*
X138843085Y-88742928D01*
X138843082Y-88742933D01*
X138838139Y-88749375D01*
X138835029Y-88756883D01*
X138835028Y-88756885D01*
X138785782Y-88875776D01*
X138785780Y-88875781D01*
X138782670Y-88883291D01*
X138781609Y-88891348D01*
X138781608Y-88891353D01*
X138764811Y-89018941D01*
X138763750Y-89027000D01*
X138764811Y-89035059D01*
X138778471Y-89138821D01*
X138782670Y-89170709D01*
X138785781Y-89178220D01*
X138785782Y-89178223D01*
X138838139Y-89304625D01*
X138836440Y-89305328D01*
X138849372Y-89349001D01*
X138838817Y-89405922D01*
X138803572Y-89451848D01*
X138751319Y-89476769D01*
X138693447Y-89475253D01*
X138689819Y-89474280D01*
X138682309Y-89471170D01*
X138674253Y-89470109D01*
X138674248Y-89470108D01*
X138546659Y-89453311D01*
X138538600Y-89452250D01*
X138530541Y-89453311D01*
X138402953Y-89470108D01*
X138402948Y-89470109D01*
X138394891Y-89471170D01*
X138387381Y-89474280D01*
X138387376Y-89474282D01*
X138268485Y-89523528D01*
X138268483Y-89523529D01*
X138260975Y-89526639D01*
X138254533Y-89531582D01*
X138254528Y-89531585D01*
X138152421Y-89609935D01*
X138152417Y-89609938D01*
X138145979Y-89614879D01*
X138141038Y-89621317D01*
X138141035Y-89621321D01*
X138062685Y-89723428D01*
X138062682Y-89723433D01*
X138057739Y-89729875D01*
X138054629Y-89737383D01*
X138054628Y-89737385D01*
X138005382Y-89856276D01*
X138005380Y-89856281D01*
X138002270Y-89863791D01*
X138001209Y-89871848D01*
X138001208Y-89871853D01*
X137995396Y-89916000D01*
X137983350Y-90007500D01*
X137984411Y-90015559D01*
X138000784Y-90139928D01*
X138002270Y-90151209D01*
X138005381Y-90158720D01*
X138005382Y-90158723D01*
X138016728Y-90186114D01*
X138057739Y-90285125D01*
X138062682Y-90291566D01*
X138062685Y-90291572D01*
X138097502Y-90336945D01*
X138122065Y-90396246D01*
X138113687Y-90459884D01*
X138074613Y-90510807D01*
X138043826Y-90534430D01*
X138043817Y-90534438D01*
X138037379Y-90539379D01*
X138032438Y-90545817D01*
X138032435Y-90545821D01*
X137954085Y-90647928D01*
X137954082Y-90647933D01*
X137949139Y-90654375D01*
X137946029Y-90661883D01*
X137946028Y-90661885D01*
X137896782Y-90780776D01*
X137896780Y-90780781D01*
X137893670Y-90788291D01*
X137892609Y-90796348D01*
X137892608Y-90796353D01*
X137877860Y-90908375D01*
X137874750Y-90932000D01*
X134328212Y-90932000D01*
X134338861Y-90918122D01*
X134394330Y-90784206D01*
X134413250Y-90640497D01*
X134394330Y-90496788D01*
X134338861Y-90362872D01*
X134250621Y-90247876D01*
X134178083Y-90192215D01*
X134142071Y-90164582D01*
X134142069Y-90164581D01*
X134135625Y-90159636D01*
X134084177Y-90138326D01*
X134009223Y-90107279D01*
X134009220Y-90107278D01*
X134001709Y-90104167D01*
X133993649Y-90103105D01*
X133993646Y-90103105D01*
X133866059Y-90086308D01*
X133858000Y-90085247D01*
X133849941Y-90086308D01*
X133722353Y-90103105D01*
X133722348Y-90103106D01*
X133714291Y-90104167D01*
X133706781Y-90107277D01*
X133706776Y-90107279D01*
X133587885Y-90156525D01*
X133587883Y-90156526D01*
X133580375Y-90159636D01*
X133573933Y-90164579D01*
X133573928Y-90164582D01*
X133471821Y-90242932D01*
X133471817Y-90242935D01*
X133465379Y-90247876D01*
X133460438Y-90254314D01*
X133460435Y-90254318D01*
X133382085Y-90356425D01*
X133382082Y-90356430D01*
X133377139Y-90362872D01*
X133374029Y-90370380D01*
X133374028Y-90370382D01*
X133324782Y-90489273D01*
X133324780Y-90489278D01*
X133321670Y-90496788D01*
X133320609Y-90504845D01*
X133320608Y-90504850D01*
X133309037Y-90592744D01*
X133302750Y-90640497D01*
X132078181Y-90640497D01*
X132108330Y-90567709D01*
X132127250Y-90424000D01*
X132108330Y-90280291D01*
X132052861Y-90146375D01*
X131964621Y-90031379D01*
X131944004Y-90015559D01*
X131856071Y-89948085D01*
X131856069Y-89948084D01*
X131849625Y-89943139D01*
X131784105Y-89916000D01*
X134572750Y-89916000D01*
X134573811Y-89924059D01*
X134588670Y-90036928D01*
X134591670Y-90059709D01*
X134594781Y-90067220D01*
X134594782Y-90067223D01*
X134604295Y-90090189D01*
X134647139Y-90193625D01*
X134652084Y-90200069D01*
X134652085Y-90200071D01*
X134717350Y-90285125D01*
X134735379Y-90308621D01*
X134850375Y-90396861D01*
X134984291Y-90452330D01*
X135128000Y-90471250D01*
X135271709Y-90452330D01*
X135405625Y-90396861D01*
X135478424Y-90341000D01*
X135506149Y-90319726D01*
X135565450Y-90295162D01*
X135629088Y-90303540D01*
X135680011Y-90342613D01*
X135751379Y-90435621D01*
X135866375Y-90523861D01*
X136000291Y-90579330D01*
X136144000Y-90598250D01*
X136287709Y-90579330D01*
X136421625Y-90523861D01*
X136435248Y-90513408D01*
X136489579Y-90471718D01*
X136538227Y-90449032D01*
X136591905Y-90449032D01*
X136640553Y-90471718D01*
X136694879Y-90513405D01*
X136694887Y-90513409D01*
X136701332Y-90518355D01*
X136835248Y-90573824D01*
X136978957Y-90592744D01*
X137122666Y-90573824D01*
X137256582Y-90518355D01*
X137371578Y-90430115D01*
X137459818Y-90315119D01*
X137515287Y-90181203D01*
X137534207Y-90037494D01*
X137515287Y-89893785D01*
X137459818Y-89759869D01*
X137371578Y-89644873D01*
X137270207Y-89567088D01*
X137263028Y-89561579D01*
X137263026Y-89561578D01*
X137256582Y-89556633D01*
X137220549Y-89541708D01*
X137130180Y-89504276D01*
X137130177Y-89504275D01*
X137122666Y-89501164D01*
X137114606Y-89500102D01*
X137114603Y-89500102D01*
X136987016Y-89483305D01*
X136978957Y-89482244D01*
X136970898Y-89483305D01*
X136843310Y-89500102D01*
X136843305Y-89500103D01*
X136835248Y-89501164D01*
X136827738Y-89504274D01*
X136827733Y-89504276D01*
X136708842Y-89553522D01*
X136708840Y-89553523D01*
X136701332Y-89556633D01*
X136694889Y-89561576D01*
X136694880Y-89561582D01*
X136633376Y-89608776D01*
X136584728Y-89631461D01*
X136531051Y-89631461D01*
X136482403Y-89608776D01*
X136428071Y-89567085D01*
X136428069Y-89567084D01*
X136421625Y-89562139D01*
X136343609Y-89529824D01*
X136295223Y-89509782D01*
X136295220Y-89509781D01*
X136287709Y-89506670D01*
X136279649Y-89505608D01*
X136279646Y-89505608D01*
X136152059Y-89488811D01*
X136144000Y-89487750D01*
X136135941Y-89488811D01*
X136008353Y-89505608D01*
X136008348Y-89505609D01*
X136000291Y-89506670D01*
X135992781Y-89509780D01*
X135992776Y-89509782D01*
X135873885Y-89559028D01*
X135873883Y-89559029D01*
X135866375Y-89562139D01*
X135859932Y-89567082D01*
X135859923Y-89567088D01*
X135765849Y-89639274D01*
X135706548Y-89663837D01*
X135642910Y-89655459D01*
X135591987Y-89616384D01*
X135525567Y-89529824D01*
X135525564Y-89529821D01*
X135520621Y-89523379D01*
X135500398Y-89507861D01*
X135412071Y-89440085D01*
X135412069Y-89440084D01*
X135405625Y-89435139D01*
X135335088Y-89405922D01*
X135279223Y-89382782D01*
X135279220Y-89382781D01*
X135271709Y-89379670D01*
X135263649Y-89378608D01*
X135263646Y-89378608D01*
X135136059Y-89361811D01*
X135128000Y-89360750D01*
X135119941Y-89361811D01*
X134992353Y-89378608D01*
X134992348Y-89378609D01*
X134984291Y-89379670D01*
X134976781Y-89382780D01*
X134976776Y-89382782D01*
X134857885Y-89432028D01*
X134857883Y-89432029D01*
X134850375Y-89435139D01*
X134843933Y-89440082D01*
X134843928Y-89440085D01*
X134741821Y-89518435D01*
X134741817Y-89518438D01*
X134735379Y-89523379D01*
X134730438Y-89529817D01*
X134730435Y-89529821D01*
X134652085Y-89631928D01*
X134652082Y-89631933D01*
X134647139Y-89638375D01*
X134644029Y-89645883D01*
X134644028Y-89645885D01*
X134594782Y-89764776D01*
X134594780Y-89764781D01*
X134591670Y-89772291D01*
X134590609Y-89780348D01*
X134590608Y-89780353D01*
X134576480Y-89887670D01*
X134572750Y-89916000D01*
X131784105Y-89916000D01*
X131774619Y-89912071D01*
X131723223Y-89890782D01*
X131723220Y-89890781D01*
X131715709Y-89887670D01*
X131707649Y-89886608D01*
X131707646Y-89886608D01*
X131593738Y-89871611D01*
X131541032Y-89851773D01*
X131502536Y-89810671D01*
X131486189Y-89756780D01*
X131495363Y-89701220D01*
X131508830Y-89668709D01*
X131527750Y-89525000D01*
X131508830Y-89381291D01*
X131453361Y-89247375D01*
X131365121Y-89132379D01*
X131250125Y-89044139D01*
X131189291Y-89018941D01*
X131123723Y-88991782D01*
X131123720Y-88991781D01*
X131116209Y-88988670D01*
X131108149Y-88987608D01*
X131108146Y-88987608D01*
X130980559Y-88970811D01*
X130972500Y-88969750D01*
X130964441Y-88970811D01*
X130836853Y-88987608D01*
X130836848Y-88987609D01*
X130828791Y-88988670D01*
X130821281Y-88991780D01*
X130821276Y-88991782D01*
X130702385Y-89041028D01*
X130702383Y-89041029D01*
X130694875Y-89044139D01*
X130688433Y-89049082D01*
X130688428Y-89049085D01*
X130586321Y-89127435D01*
X130586317Y-89127438D01*
X130579879Y-89132379D01*
X130574938Y-89138817D01*
X130574935Y-89138821D01*
X130496585Y-89240928D01*
X130496582Y-89240933D01*
X130491639Y-89247375D01*
X130488529Y-89254883D01*
X130488528Y-89254885D01*
X130439282Y-89373776D01*
X130439280Y-89373781D01*
X130436170Y-89381291D01*
X130435109Y-89389348D01*
X130435108Y-89389353D01*
X130419097Y-89510971D01*
X130417250Y-89525000D01*
X117140500Y-89525000D01*
X117140500Y-88392000D01*
X147078750Y-88392000D01*
X147079811Y-88400059D01*
X147096438Y-88526358D01*
X147097670Y-88535709D01*
X147100781Y-88543220D01*
X147100782Y-88543223D01*
X147136492Y-88629435D01*
X147153139Y-88669625D01*
X147241379Y-88784621D01*
X147356375Y-88872861D01*
X147490291Y-88928330D01*
X147634000Y-88947250D01*
X147777709Y-88928330D01*
X147911625Y-88872861D01*
X148026621Y-88784621D01*
X148114861Y-88669625D01*
X148170330Y-88535709D01*
X148189250Y-88392000D01*
X151082750Y-88392000D01*
X151083811Y-88400059D01*
X151100438Y-88526358D01*
X151101670Y-88535709D01*
X151104781Y-88543220D01*
X151104782Y-88543223D01*
X151140492Y-88629435D01*
X151157139Y-88669625D01*
X151245379Y-88784621D01*
X151360375Y-88872861D01*
X151494291Y-88928330D01*
X151638000Y-88947250D01*
X151781709Y-88928330D01*
X151915625Y-88872861D01*
X152030621Y-88784621D01*
X152118861Y-88669625D01*
X152174330Y-88535709D01*
X152193250Y-88392000D01*
X152174330Y-88248291D01*
X152118861Y-88114375D01*
X152030621Y-87999379D01*
X151915625Y-87911139D01*
X151879592Y-87896214D01*
X151789223Y-87858782D01*
X151789220Y-87858781D01*
X151781709Y-87855670D01*
X151773649Y-87854608D01*
X151773646Y-87854608D01*
X151646059Y-87837811D01*
X151638000Y-87836750D01*
X151629941Y-87837811D01*
X151502353Y-87854608D01*
X151502348Y-87854609D01*
X151494291Y-87855670D01*
X151486781Y-87858780D01*
X151486776Y-87858782D01*
X151367885Y-87908028D01*
X151367883Y-87908029D01*
X151360375Y-87911139D01*
X151353933Y-87916082D01*
X151353928Y-87916085D01*
X151251821Y-87994435D01*
X151251817Y-87994438D01*
X151245379Y-87999379D01*
X151240438Y-88005817D01*
X151240435Y-88005821D01*
X151162085Y-88107928D01*
X151162082Y-88107933D01*
X151157139Y-88114375D01*
X151154029Y-88121883D01*
X151154028Y-88121885D01*
X151104782Y-88240776D01*
X151104780Y-88240781D01*
X151101670Y-88248291D01*
X151100609Y-88256348D01*
X151100608Y-88256353D01*
X151097693Y-88278498D01*
X151082750Y-88392000D01*
X148189250Y-88392000D01*
X148170330Y-88248291D01*
X148114861Y-88114375D01*
X148026621Y-87999379D01*
X147911625Y-87911139D01*
X147875592Y-87896214D01*
X147785223Y-87858782D01*
X147785220Y-87858781D01*
X147777709Y-87855670D01*
X147769649Y-87854608D01*
X147769646Y-87854608D01*
X147642059Y-87837811D01*
X147634000Y-87836750D01*
X147625941Y-87837811D01*
X147498353Y-87854608D01*
X147498348Y-87854609D01*
X147490291Y-87855670D01*
X147482781Y-87858780D01*
X147482776Y-87858782D01*
X147363885Y-87908028D01*
X147363883Y-87908029D01*
X147356375Y-87911139D01*
X147349933Y-87916082D01*
X147349928Y-87916085D01*
X147247821Y-87994435D01*
X147247817Y-87994438D01*
X147241379Y-87999379D01*
X147236438Y-88005817D01*
X147236435Y-88005821D01*
X147158085Y-88107928D01*
X147158082Y-88107933D01*
X147153139Y-88114375D01*
X147150029Y-88121883D01*
X147150028Y-88121885D01*
X147100782Y-88240776D01*
X147100780Y-88240781D01*
X147097670Y-88248291D01*
X147096609Y-88256348D01*
X147096608Y-88256353D01*
X147093693Y-88278498D01*
X147078750Y-88392000D01*
X117140500Y-88392000D01*
X117140500Y-86688398D01*
X163489746Y-86688398D01*
X163490026Y-86694282D01*
X163490026Y-86694289D01*
X163494757Y-86793602D01*
X163499746Y-86898330D01*
X163501135Y-86904058D01*
X163501137Y-86904067D01*
X163523389Y-86995788D01*
X163549296Y-87102576D01*
X163636604Y-87293753D01*
X163640031Y-87298566D01*
X163640032Y-87298567D01*
X163699626Y-87382256D01*
X163758514Y-87464952D01*
X163910622Y-87609986D01*
X164087428Y-87723613D01*
X164092911Y-87725808D01*
X164092913Y-87725809D01*
X164277060Y-87799530D01*
X164282543Y-87801725D01*
X164488915Y-87841500D01*
X164893471Y-87841500D01*
X164896425Y-87841500D01*
X165053218Y-87826528D01*
X165254875Y-87767316D01*
X165441682Y-87671011D01*
X165606886Y-87541092D01*
X165744519Y-87382256D01*
X165849604Y-87200244D01*
X165918344Y-87001633D01*
X165948254Y-86793602D01*
X165938254Y-86583670D01*
X165888704Y-86379424D01*
X165801396Y-86188247D01*
X165679486Y-86017048D01*
X165527378Y-85872014D01*
X165428210Y-85808282D01*
X165355544Y-85761582D01*
X165355541Y-85761580D01*
X165350572Y-85758387D01*
X165345092Y-85756193D01*
X165345086Y-85756190D01*
X165160939Y-85682469D01*
X165160932Y-85682467D01*
X165155457Y-85680275D01*
X165149662Y-85679158D01*
X165149655Y-85679156D01*
X164954882Y-85641617D01*
X164954879Y-85641616D01*
X164949085Y-85640500D01*
X164541575Y-85640500D01*
X164538646Y-85640779D01*
X164538639Y-85640780D01*
X164390662Y-85654910D01*
X164390656Y-85654911D01*
X164384782Y-85655472D01*
X164379112Y-85657136D01*
X164379111Y-85657137D01*
X164188787Y-85713021D01*
X164188782Y-85713022D01*
X164183125Y-85714684D01*
X164177884Y-85717385D01*
X164177881Y-85717387D01*
X164001568Y-85808282D01*
X164001564Y-85808284D01*
X163996318Y-85810989D01*
X163991676Y-85814638D01*
X163991672Y-85814642D01*
X163835759Y-85937254D01*
X163835752Y-85937260D01*
X163831114Y-85940908D01*
X163827250Y-85945367D01*
X163827245Y-85945372D01*
X163697347Y-86095282D01*
X163693481Y-86099744D01*
X163690530Y-86104854D01*
X163690528Y-86104858D01*
X163591352Y-86276635D01*
X163591349Y-86276640D01*
X163588396Y-86281756D01*
X163586465Y-86287335D01*
X163586461Y-86287344D01*
X163521587Y-86474785D01*
X163521584Y-86474794D01*
X163519656Y-86480367D01*
X163518816Y-86486203D01*
X163518815Y-86486211D01*
X163490585Y-86682558D01*
X163490584Y-86682564D01*
X163489746Y-86688398D01*
X117140500Y-86688398D01*
X117140500Y-84074000D01*
X147780750Y-84074000D01*
X147781811Y-84082059D01*
X147796586Y-84194289D01*
X147799670Y-84217709D01*
X147855139Y-84351625D01*
X147943379Y-84466621D01*
X148058375Y-84554861D01*
X148192291Y-84610330D01*
X148336000Y-84629250D01*
X148479709Y-84610330D01*
X148613625Y-84554861D01*
X148728621Y-84466621D01*
X148745624Y-84444463D01*
X148789156Y-84408737D01*
X148844000Y-84395949D01*
X148898844Y-84408737D01*
X148942376Y-84444463D01*
X148954432Y-84460175D01*
X148954435Y-84460178D01*
X148959379Y-84466621D01*
X149074375Y-84554861D01*
X149208291Y-84610330D01*
X149352000Y-84629250D01*
X149495709Y-84610330D01*
X149629625Y-84554861D01*
X149744621Y-84466621D01*
X149832861Y-84351625D01*
X149888330Y-84217709D01*
X149892189Y-84188398D01*
X163489746Y-84188398D01*
X163490026Y-84194282D01*
X163490026Y-84194289D01*
X163494757Y-84293602D01*
X163499746Y-84398330D01*
X163501135Y-84404058D01*
X163501137Y-84404067D01*
X163523389Y-84495788D01*
X163549296Y-84602576D01*
X163636604Y-84793753D01*
X163640031Y-84798566D01*
X163640032Y-84798567D01*
X163699626Y-84882256D01*
X163758514Y-84964952D01*
X163910622Y-85109986D01*
X164087428Y-85223613D01*
X164092911Y-85225808D01*
X164092913Y-85225809D01*
X164277060Y-85299530D01*
X164282543Y-85301725D01*
X164488915Y-85341500D01*
X164893471Y-85341500D01*
X164896425Y-85341500D01*
X165053218Y-85326528D01*
X165254875Y-85267316D01*
X165441682Y-85171011D01*
X165606886Y-85041092D01*
X165744519Y-84882256D01*
X165849604Y-84700244D01*
X165918344Y-84501633D01*
X165948254Y-84293602D01*
X165938254Y-84083670D01*
X165888704Y-83879424D01*
X165801396Y-83688247D01*
X165679486Y-83517048D01*
X165569758Y-83412423D01*
X165531651Y-83376088D01*
X165531649Y-83376086D01*
X165527378Y-83372014D01*
X165367489Y-83269259D01*
X165355544Y-83261582D01*
X165355541Y-83261580D01*
X165350572Y-83258387D01*
X165345092Y-83256193D01*
X165345086Y-83256190D01*
X165160939Y-83182469D01*
X165160932Y-83182467D01*
X165155457Y-83180275D01*
X165149662Y-83179158D01*
X165149655Y-83179156D01*
X164954882Y-83141617D01*
X164954879Y-83141616D01*
X164949085Y-83140500D01*
X164541575Y-83140500D01*
X164538646Y-83140779D01*
X164538639Y-83140780D01*
X164390662Y-83154910D01*
X164390656Y-83154911D01*
X164384782Y-83155472D01*
X164379112Y-83157136D01*
X164379111Y-83157137D01*
X164188787Y-83213021D01*
X164188782Y-83213022D01*
X164183125Y-83214684D01*
X164177884Y-83217385D01*
X164177881Y-83217387D01*
X164001568Y-83308282D01*
X164001564Y-83308284D01*
X163996318Y-83310989D01*
X163991676Y-83314638D01*
X163991672Y-83314642D01*
X163835759Y-83437254D01*
X163835752Y-83437260D01*
X163831114Y-83440908D01*
X163827250Y-83445367D01*
X163827245Y-83445372D01*
X163701900Y-83590028D01*
X163693481Y-83599744D01*
X163690530Y-83604854D01*
X163690528Y-83604858D01*
X163591352Y-83776635D01*
X163591349Y-83776640D01*
X163588396Y-83781756D01*
X163586465Y-83787335D01*
X163586461Y-83787344D01*
X163521587Y-83974785D01*
X163521584Y-83974794D01*
X163519656Y-83980367D01*
X163518816Y-83986203D01*
X163518815Y-83986211D01*
X163490585Y-84182558D01*
X163490584Y-84182564D01*
X163489746Y-84188398D01*
X149892189Y-84188398D01*
X149907250Y-84074000D01*
X149888330Y-83930291D01*
X149832861Y-83796375D01*
X149744621Y-83681379D01*
X149738174Y-83676432D01*
X149636071Y-83598085D01*
X149636069Y-83598084D01*
X149629625Y-83593139D01*
X149514060Y-83545271D01*
X149503223Y-83540782D01*
X149503220Y-83540781D01*
X149495709Y-83537670D01*
X149487649Y-83536608D01*
X149487646Y-83536608D01*
X149360059Y-83519811D01*
X149352000Y-83518750D01*
X149343941Y-83519811D01*
X149216353Y-83536608D01*
X149216348Y-83536609D01*
X149208291Y-83537670D01*
X149200781Y-83540780D01*
X149200776Y-83540782D01*
X149081885Y-83590028D01*
X149081883Y-83590029D01*
X149074375Y-83593139D01*
X149067933Y-83598082D01*
X149067928Y-83598085D01*
X148965821Y-83676435D01*
X148965817Y-83676438D01*
X148959379Y-83681379D01*
X148954438Y-83687817D01*
X148954433Y-83687823D01*
X148942375Y-83703538D01*
X148898843Y-83739263D01*
X148844000Y-83752050D01*
X148789157Y-83739263D01*
X148745625Y-83703538D01*
X148733566Y-83687823D01*
X148733564Y-83687821D01*
X148728621Y-83681379D01*
X148722178Y-83676435D01*
X148722175Y-83676432D01*
X148706463Y-83664376D01*
X148670737Y-83620844D01*
X148657949Y-83566000D01*
X148670737Y-83511156D01*
X148706463Y-83467624D01*
X148722175Y-83455567D01*
X148722174Y-83455567D01*
X148728621Y-83450621D01*
X148816861Y-83335625D01*
X148872330Y-83201709D01*
X148891250Y-83058000D01*
X148872330Y-82914291D01*
X148816861Y-82780375D01*
X148737538Y-82677000D01*
X149431750Y-82677000D01*
X149432811Y-82685059D01*
X149446348Y-82787885D01*
X149450670Y-82820709D01*
X149506139Y-82954625D01*
X149594379Y-83069621D01*
X149709375Y-83157861D01*
X149843291Y-83213330D01*
X149987000Y-83232250D01*
X150130709Y-83213330D01*
X150264625Y-83157861D01*
X150379621Y-83069621D01*
X150460124Y-82964707D01*
X150503656Y-82928983D01*
X150558500Y-82916195D01*
X150613344Y-82928983D01*
X150656875Y-82964707D01*
X150737379Y-83069621D01*
X150852375Y-83157861D01*
X150986291Y-83213330D01*
X151130000Y-83232250D01*
X151273709Y-83213330D01*
X151407625Y-83157861D01*
X151522621Y-83069621D01*
X151610861Y-82954625D01*
X151666330Y-82820709D01*
X151685250Y-82677000D01*
X151666330Y-82533291D01*
X151610861Y-82399375D01*
X151522621Y-82284379D01*
X151407625Y-82196139D01*
X151342105Y-82169000D01*
X151971750Y-82169000D01*
X151990670Y-82312709D01*
X152046139Y-82446625D01*
X152051084Y-82453069D01*
X152051085Y-82453071D01*
X152118827Y-82541353D01*
X152134379Y-82561621D01*
X152249375Y-82649861D01*
X152383291Y-82705330D01*
X152527000Y-82724250D01*
X152670709Y-82705330D01*
X152804625Y-82649861D01*
X152919621Y-82561621D01*
X153007861Y-82446625D01*
X153063330Y-82312709D01*
X153082250Y-82169000D01*
X153063330Y-82025291D01*
X153007861Y-81891375D01*
X152919621Y-81776379D01*
X152913178Y-81771435D01*
X152913175Y-81771432D01*
X152897463Y-81759376D01*
X152861737Y-81715844D01*
X152848949Y-81661000D01*
X152861737Y-81606156D01*
X152897463Y-81562624D01*
X152913175Y-81550567D01*
X152913174Y-81550567D01*
X152919621Y-81545621D01*
X153007861Y-81430625D01*
X153063330Y-81296709D01*
X153082250Y-81153000D01*
X153063330Y-81009291D01*
X153007861Y-80875375D01*
X152919621Y-80760379D01*
X152913178Y-80755435D01*
X152811071Y-80677085D01*
X152811069Y-80677084D01*
X152804625Y-80672139D01*
X152756642Y-80652264D01*
X152678223Y-80619782D01*
X152678220Y-80619781D01*
X152670709Y-80616670D01*
X152662649Y-80615608D01*
X152662646Y-80615608D01*
X152535059Y-80598811D01*
X152527000Y-80597750D01*
X152518941Y-80598811D01*
X152391353Y-80615608D01*
X152391348Y-80615609D01*
X152383291Y-80616670D01*
X152375781Y-80619780D01*
X152375776Y-80619782D01*
X152256885Y-80669028D01*
X152256883Y-80669029D01*
X152249375Y-80672139D01*
X152242933Y-80677082D01*
X152242928Y-80677085D01*
X152140821Y-80755435D01*
X152140817Y-80755438D01*
X152134379Y-80760379D01*
X152129438Y-80766817D01*
X152129435Y-80766821D01*
X152051085Y-80868928D01*
X152051082Y-80868933D01*
X152046139Y-80875375D01*
X152043029Y-80882883D01*
X152043028Y-80882885D01*
X151993782Y-81001776D01*
X151993780Y-81001781D01*
X151990670Y-81009291D01*
X151989609Y-81017348D01*
X151989608Y-81017353D01*
X151972811Y-81144941D01*
X151971750Y-81153000D01*
X151990670Y-81296709D01*
X152046139Y-81430625D01*
X152134379Y-81545621D01*
X152140821Y-81550564D01*
X152140823Y-81550566D01*
X152156538Y-81562625D01*
X152192263Y-81606157D01*
X152205050Y-81661000D01*
X152192263Y-81715843D01*
X152156538Y-81759375D01*
X152140823Y-81771433D01*
X152140817Y-81771438D01*
X152134379Y-81776379D01*
X152129438Y-81782817D01*
X152129435Y-81782821D01*
X152051085Y-81884928D01*
X152051082Y-81884933D01*
X152046139Y-81891375D01*
X152043029Y-81898883D01*
X152043028Y-81898885D01*
X151993782Y-82017776D01*
X151993780Y-82017781D01*
X151990670Y-82025291D01*
X151989609Y-82033348D01*
X151989608Y-82033353D01*
X151975480Y-82140670D01*
X151971750Y-82169000D01*
X151342105Y-82169000D01*
X151281223Y-82143782D01*
X151281220Y-82143781D01*
X151273709Y-82140670D01*
X151265649Y-82139608D01*
X151265646Y-82139608D01*
X151138059Y-82122811D01*
X151130000Y-82121750D01*
X151121941Y-82122811D01*
X150994353Y-82139608D01*
X150994348Y-82139609D01*
X150986291Y-82140670D01*
X150978781Y-82143780D01*
X150978776Y-82143782D01*
X150859885Y-82193028D01*
X150859883Y-82193029D01*
X150852375Y-82196139D01*
X150845933Y-82201082D01*
X150845928Y-82201085D01*
X150743821Y-82279435D01*
X150743817Y-82279438D01*
X150737379Y-82284379D01*
X150732438Y-82290817D01*
X150732430Y-82290826D01*
X150656875Y-82389291D01*
X150613343Y-82425016D01*
X150558500Y-82437804D01*
X150503657Y-82425016D01*
X150460125Y-82389291D01*
X150384569Y-82290826D01*
X150384564Y-82290821D01*
X150379621Y-82284379D01*
X150264625Y-82196139D01*
X150199105Y-82169000D01*
X150138223Y-82143782D01*
X150138220Y-82143781D01*
X150130709Y-82140670D01*
X150122649Y-82139608D01*
X150122646Y-82139608D01*
X149995059Y-82122811D01*
X149987000Y-82121750D01*
X149978941Y-82122811D01*
X149851353Y-82139608D01*
X149851348Y-82139609D01*
X149843291Y-82140670D01*
X149835781Y-82143780D01*
X149835776Y-82143782D01*
X149716885Y-82193028D01*
X149716883Y-82193029D01*
X149709375Y-82196139D01*
X149702933Y-82201082D01*
X149702928Y-82201085D01*
X149600821Y-82279435D01*
X149600817Y-82279438D01*
X149594379Y-82284379D01*
X149589438Y-82290817D01*
X149589435Y-82290821D01*
X149511085Y-82392928D01*
X149511082Y-82392933D01*
X149506139Y-82399375D01*
X149503029Y-82406883D01*
X149503028Y-82406885D01*
X149453782Y-82525776D01*
X149453780Y-82525781D01*
X149450670Y-82533291D01*
X149449609Y-82541348D01*
X149449608Y-82541353D01*
X149433931Y-82660435D01*
X149431750Y-82677000D01*
X148737538Y-82677000D01*
X148728621Y-82665379D01*
X148613625Y-82577139D01*
X148527229Y-82541353D01*
X148487223Y-82524782D01*
X148487220Y-82524781D01*
X148479709Y-82521670D01*
X148471649Y-82520608D01*
X148471646Y-82520608D01*
X148344059Y-82503811D01*
X148336000Y-82502750D01*
X148327941Y-82503811D01*
X148200353Y-82520608D01*
X148200348Y-82520609D01*
X148192291Y-82521670D01*
X148184781Y-82524780D01*
X148184776Y-82524782D01*
X148065885Y-82574028D01*
X148065883Y-82574029D01*
X148058375Y-82577139D01*
X148051933Y-82582082D01*
X148051928Y-82582085D01*
X147949821Y-82660435D01*
X147949817Y-82660438D01*
X147943379Y-82665379D01*
X147938438Y-82671817D01*
X147938435Y-82671821D01*
X147860085Y-82773928D01*
X147860082Y-82773933D01*
X147855139Y-82780375D01*
X147852029Y-82787883D01*
X147852028Y-82787885D01*
X147802782Y-82906776D01*
X147802780Y-82906781D01*
X147799670Y-82914291D01*
X147798609Y-82922348D01*
X147798608Y-82922353D01*
X147781811Y-83049941D01*
X147780750Y-83058000D01*
X147781811Y-83066059D01*
X147796700Y-83179156D01*
X147799670Y-83201709D01*
X147802781Y-83209220D01*
X147802782Y-83209223D01*
X147824470Y-83261582D01*
X147855139Y-83335625D01*
X147860084Y-83342069D01*
X147860085Y-83342071D01*
X147902116Y-83396846D01*
X147943379Y-83450621D01*
X147949821Y-83455564D01*
X147949823Y-83455566D01*
X147965538Y-83467625D01*
X148001263Y-83511157D01*
X148014050Y-83566000D01*
X148001263Y-83620843D01*
X147965538Y-83664375D01*
X147949823Y-83676433D01*
X147949817Y-83676438D01*
X147943379Y-83681379D01*
X147938438Y-83687817D01*
X147938435Y-83687821D01*
X147860085Y-83789928D01*
X147860082Y-83789933D01*
X147855139Y-83796375D01*
X147852029Y-83803883D01*
X147852028Y-83803885D01*
X147802782Y-83922776D01*
X147802780Y-83922781D01*
X147799670Y-83930291D01*
X147798609Y-83938348D01*
X147798608Y-83938353D01*
X147781811Y-84065941D01*
X147780750Y-84074000D01*
X117140500Y-84074000D01*
X117140500Y-83261200D01*
X120704350Y-83261200D01*
X120705411Y-83269259D01*
X120719475Y-83376088D01*
X120723270Y-83404909D01*
X120726381Y-83412420D01*
X120726382Y-83412423D01*
X120744253Y-83455567D01*
X120778739Y-83538825D01*
X120783684Y-83545269D01*
X120783685Y-83545271D01*
X120820416Y-83593139D01*
X120866979Y-83653821D01*
X120981975Y-83742061D01*
X121115891Y-83797530D01*
X121259600Y-83816450D01*
X121403309Y-83797530D01*
X121537225Y-83742061D01*
X121652221Y-83653821D01*
X121740461Y-83538825D01*
X121795930Y-83404909D01*
X121814850Y-83261200D01*
X121795930Y-83117491D01*
X121740461Y-82983575D01*
X121652221Y-82868579D01*
X121645778Y-82863635D01*
X121543671Y-82785285D01*
X121543669Y-82785284D01*
X121537225Y-82780339D01*
X121501192Y-82765414D01*
X121410823Y-82727982D01*
X121410820Y-82727981D01*
X121403309Y-82724870D01*
X121395249Y-82723808D01*
X121395246Y-82723808D01*
X121267659Y-82707011D01*
X121259600Y-82705950D01*
X121251541Y-82707011D01*
X121123953Y-82723808D01*
X121123948Y-82723809D01*
X121115891Y-82724870D01*
X121108381Y-82727980D01*
X121108376Y-82727982D01*
X120989485Y-82777228D01*
X120989483Y-82777229D01*
X120981975Y-82780339D01*
X120975533Y-82785282D01*
X120975528Y-82785285D01*
X120873421Y-82863635D01*
X120873417Y-82863638D01*
X120866979Y-82868579D01*
X120862038Y-82875017D01*
X120862035Y-82875021D01*
X120783685Y-82977128D01*
X120783682Y-82977133D01*
X120778739Y-82983575D01*
X120775629Y-82991083D01*
X120775628Y-82991085D01*
X120726382Y-83109976D01*
X120726380Y-83109981D01*
X120723270Y-83117491D01*
X120722209Y-83125548D01*
X120722208Y-83125553D01*
X120710474Y-83214684D01*
X120704350Y-83261200D01*
X117140500Y-83261200D01*
X117140500Y-79933800D01*
X131143750Y-79933800D01*
X131144811Y-79941859D01*
X131156684Y-80032046D01*
X131162670Y-80077509D01*
X131218139Y-80211425D01*
X131306379Y-80326421D01*
X131421375Y-80414661D01*
X131555291Y-80470130D01*
X131699000Y-80489050D01*
X131842709Y-80470130D01*
X131976625Y-80414661D01*
X132091621Y-80326421D01*
X132179861Y-80211425D01*
X132235330Y-80077509D01*
X132242252Y-80024935D01*
X161452669Y-80024935D01*
X161483135Y-80197711D01*
X161552623Y-80358804D01*
X161657390Y-80499530D01*
X161791786Y-80612302D01*
X161948567Y-80691040D01*
X162119279Y-80731500D01*
X163347111Y-80731500D01*
X163350709Y-80731500D01*
X163481255Y-80716241D01*
X163646117Y-80656237D01*
X163792696Y-80559830D01*
X163913092Y-80432218D01*
X164000812Y-80280281D01*
X164051130Y-80112210D01*
X164056213Y-80024935D01*
X165782669Y-80024935D01*
X165813135Y-80197711D01*
X165882623Y-80358804D01*
X165987390Y-80499530D01*
X166121786Y-80612302D01*
X166278567Y-80691040D01*
X166449279Y-80731500D01*
X167377111Y-80731500D01*
X167380709Y-80731500D01*
X167511255Y-80716241D01*
X167676117Y-80656237D01*
X167822696Y-80559830D01*
X167943092Y-80432218D01*
X168030812Y-80280281D01*
X168081130Y-80112210D01*
X168091331Y-79937065D01*
X168060865Y-79764289D01*
X167991377Y-79603196D01*
X167886610Y-79462470D01*
X167875251Y-79452939D01*
X167757745Y-79354339D01*
X167757744Y-79354338D01*
X167752214Y-79349698D01*
X167659810Y-79303291D01*
X167601883Y-79274199D01*
X167601880Y-79274198D01*
X167595433Y-79270960D01*
X167588407Y-79269294D01*
X167588405Y-79269294D01*
X167431749Y-79232165D01*
X167431743Y-79232164D01*
X167424721Y-79230500D01*
X166493291Y-79230500D01*
X166489725Y-79230916D01*
X166489721Y-79230917D01*
X166369915Y-79244920D01*
X166369907Y-79244921D01*
X166362745Y-79245759D01*
X166355967Y-79248225D01*
X166355958Y-79248228D01*
X166204674Y-79303291D01*
X166204671Y-79303292D01*
X166197883Y-79305763D01*
X166191850Y-79309730D01*
X166191842Y-79309735D01*
X166057340Y-79398199D01*
X166057334Y-79398203D01*
X166051304Y-79402170D01*
X166046351Y-79407419D01*
X166046346Y-79407424D01*
X165935865Y-79524527D01*
X165935861Y-79524531D01*
X165930908Y-79529782D01*
X165927299Y-79536032D01*
X165927296Y-79536037D01*
X165846799Y-79675463D01*
X165846796Y-79675468D01*
X165843188Y-79681719D01*
X165841117Y-79688634D01*
X165841117Y-79688636D01*
X165794941Y-79842869D01*
X165794939Y-79842877D01*
X165792870Y-79849790D01*
X165792450Y-79856996D01*
X165792449Y-79857004D01*
X165783088Y-80017725D01*
X165783088Y-80017733D01*
X165782669Y-80024935D01*
X164056213Y-80024935D01*
X164061331Y-79937065D01*
X164030865Y-79764289D01*
X163961377Y-79603196D01*
X163856610Y-79462470D01*
X163845251Y-79452939D01*
X163727745Y-79354339D01*
X163727744Y-79354338D01*
X163722214Y-79349698D01*
X163629810Y-79303291D01*
X163571883Y-79274199D01*
X163571880Y-79274198D01*
X163565433Y-79270960D01*
X163558410Y-79269295D01*
X163558406Y-79269294D01*
X163509470Y-79257696D01*
X163455141Y-79229230D01*
X163421101Y-79178207D01*
X163415680Y-79117112D01*
X163440202Y-79060893D01*
X163488666Y-79023305D01*
X163532609Y-79004219D01*
X163644665Y-78913054D01*
X163727971Y-78795037D01*
X163776346Y-78658921D01*
X163786204Y-78514801D01*
X163756814Y-78373366D01*
X163690354Y-78245105D01*
X163632907Y-78183594D01*
X163597545Y-78145730D01*
X163597542Y-78145728D01*
X163591755Y-78139531D01*
X163584509Y-78135124D01*
X163584507Y-78135123D01*
X163523099Y-78097781D01*
X163468328Y-78064474D01*
X163460166Y-78062187D01*
X163337392Y-78027787D01*
X163337388Y-78027786D01*
X163329228Y-78025500D01*
X163221051Y-78025500D01*
X163216867Y-78026075D01*
X163216853Y-78026076D01*
X163122294Y-78039073D01*
X163122288Y-78039074D01*
X163113889Y-78040229D01*
X163106110Y-78043607D01*
X163106106Y-78043609D01*
X162989173Y-78094400D01*
X162989168Y-78094402D01*
X162981391Y-78097781D01*
X162974813Y-78103132D01*
X162974809Y-78103135D01*
X162875913Y-78183594D01*
X162869335Y-78188946D01*
X162864446Y-78195871D01*
X162864445Y-78195873D01*
X162790920Y-78300033D01*
X162790917Y-78300037D01*
X162786029Y-78306963D01*
X162783190Y-78314950D01*
X162783189Y-78314953D01*
X162740493Y-78435088D01*
X162740491Y-78435094D01*
X162737654Y-78443079D01*
X162727796Y-78587199D01*
X162729519Y-78595493D01*
X162729520Y-78595500D01*
X162755460Y-78720332D01*
X162755462Y-78720337D01*
X162757186Y-78728634D01*
X162761086Y-78736161D01*
X162761087Y-78736163D01*
X162795184Y-78801966D01*
X162823646Y-78856895D01*
X162869624Y-78906126D01*
X162916454Y-78956269D01*
X162916456Y-78956271D01*
X162922245Y-78962469D01*
X162970003Y-78991511D01*
X162984870Y-79000552D01*
X163028940Y-79046466D01*
X163044430Y-79108194D01*
X163027260Y-79169475D01*
X162981952Y-79214168D01*
X162920442Y-79230500D01*
X162163291Y-79230500D01*
X162159725Y-79230916D01*
X162159721Y-79230917D01*
X162039915Y-79244920D01*
X162039907Y-79244921D01*
X162032745Y-79245759D01*
X162025967Y-79248225D01*
X162025958Y-79248228D01*
X161874674Y-79303291D01*
X161874671Y-79303292D01*
X161867883Y-79305763D01*
X161861850Y-79309730D01*
X161861842Y-79309735D01*
X161727340Y-79398199D01*
X161727334Y-79398203D01*
X161721304Y-79402170D01*
X161716351Y-79407419D01*
X161716346Y-79407424D01*
X161605865Y-79524527D01*
X161605861Y-79524531D01*
X161600908Y-79529782D01*
X161597299Y-79536032D01*
X161597296Y-79536037D01*
X161516799Y-79675463D01*
X161516796Y-79675468D01*
X161513188Y-79681719D01*
X161511117Y-79688634D01*
X161511117Y-79688636D01*
X161464941Y-79842869D01*
X161464939Y-79842877D01*
X161462870Y-79849790D01*
X161462450Y-79856996D01*
X161462449Y-79857004D01*
X161453088Y-80017725D01*
X161453088Y-80017733D01*
X161452669Y-80024935D01*
X132242252Y-80024935D01*
X132254250Y-79933800D01*
X132235330Y-79790091D01*
X132179861Y-79656175D01*
X132091621Y-79541179D01*
X131976625Y-79452939D01*
X131940592Y-79438014D01*
X131850223Y-79400582D01*
X131850220Y-79400581D01*
X131842709Y-79397470D01*
X131834649Y-79396408D01*
X131834646Y-79396408D01*
X131707059Y-79379611D01*
X131699000Y-79378550D01*
X131690941Y-79379611D01*
X131563353Y-79396408D01*
X131563348Y-79396409D01*
X131555291Y-79397470D01*
X131547781Y-79400580D01*
X131547776Y-79400582D01*
X131428885Y-79449828D01*
X131428883Y-79449829D01*
X131421375Y-79452939D01*
X131414933Y-79457882D01*
X131414928Y-79457885D01*
X131312821Y-79536235D01*
X131312817Y-79536238D01*
X131306379Y-79541179D01*
X131301438Y-79547617D01*
X131301435Y-79547621D01*
X131223085Y-79649728D01*
X131223082Y-79649733D01*
X131218139Y-79656175D01*
X131215029Y-79663683D01*
X131215028Y-79663685D01*
X131165782Y-79782576D01*
X131165780Y-79782581D01*
X131162670Y-79790091D01*
X131161609Y-79798148D01*
X131161608Y-79798153D01*
X131144811Y-79925741D01*
X131143750Y-79933800D01*
X117140500Y-79933800D01*
X117140500Y-76377425D01*
X120130500Y-76377425D01*
X120130779Y-76380354D01*
X120130780Y-76380360D01*
X120144900Y-76528234D01*
X120145472Y-76534218D01*
X120147137Y-76539888D01*
X120202966Y-76730026D01*
X120204684Y-76735875D01*
X120300989Y-76922682D01*
X120304642Y-76927327D01*
X120393054Y-77039752D01*
X120430908Y-77087886D01*
X120589744Y-77225519D01*
X120771756Y-77330604D01*
X120970367Y-77399344D01*
X121178398Y-77429254D01*
X121388330Y-77419254D01*
X121592576Y-77369704D01*
X121783753Y-77282396D01*
X121954952Y-77160486D01*
X122099986Y-77008378D01*
X122213613Y-76831572D01*
X122291725Y-76636457D01*
X122331500Y-76430085D01*
X122331500Y-76377425D01*
X122630500Y-76377425D01*
X122630779Y-76380354D01*
X122630780Y-76380360D01*
X122644900Y-76528234D01*
X122645472Y-76534218D01*
X122647137Y-76539888D01*
X122702966Y-76730026D01*
X122704684Y-76735875D01*
X122800989Y-76922682D01*
X122804642Y-76927327D01*
X122893054Y-77039752D01*
X122930908Y-77087886D01*
X123089744Y-77225519D01*
X123271756Y-77330604D01*
X123470367Y-77399344D01*
X123678398Y-77429254D01*
X123888330Y-77419254D01*
X124092576Y-77369704D01*
X124283753Y-77282396D01*
X124454952Y-77160486D01*
X124599986Y-77008378D01*
X124713613Y-76831572D01*
X124791725Y-76636457D01*
X124831500Y-76430085D01*
X124831500Y-76377425D01*
X125130500Y-76377425D01*
X125130779Y-76380354D01*
X125130780Y-76380360D01*
X125144900Y-76528234D01*
X125145472Y-76534218D01*
X125147137Y-76539888D01*
X125202966Y-76730026D01*
X125204684Y-76735875D01*
X125300989Y-76922682D01*
X125304642Y-76927327D01*
X125393054Y-77039752D01*
X125430908Y-77087886D01*
X125589744Y-77225519D01*
X125771756Y-77330604D01*
X125970367Y-77399344D01*
X126178398Y-77429254D01*
X126388330Y-77419254D01*
X126592576Y-77369704D01*
X126783753Y-77282396D01*
X126954952Y-77160486D01*
X127099986Y-77008378D01*
X127213613Y-76831572D01*
X127291725Y-76636457D01*
X127324337Y-76467251D01*
X127639579Y-76467251D01*
X127645402Y-76528234D01*
X127647630Y-76539796D01*
X127703487Y-76730026D01*
X127707853Y-76740932D01*
X127798704Y-76917159D01*
X127805064Y-76927055D01*
X127927617Y-77082894D01*
X127935735Y-77091408D01*
X128085572Y-77221243D01*
X128095149Y-77228062D01*
X128266846Y-77327191D01*
X128277549Y-77332079D01*
X128464904Y-77396924D01*
X128470488Y-77398279D01*
X128478681Y-77397693D01*
X128481000Y-77387036D01*
X128481000Y-77382181D01*
X128981000Y-77382181D01*
X128983505Y-77393072D01*
X128994679Y-77392939D01*
X129086670Y-77370622D01*
X129097788Y-77366774D01*
X129278121Y-77284419D01*
X129288319Y-77278531D01*
X129449806Y-77163536D01*
X129458703Y-77155827D01*
X129595517Y-77012341D01*
X129602784Y-77003100D01*
X129709971Y-76836314D01*
X129715363Y-76825856D01*
X129789049Y-76641798D01*
X129792362Y-76630514D01*
X129823828Y-76467251D01*
X130139579Y-76467251D01*
X130145402Y-76528234D01*
X130147630Y-76539796D01*
X130203487Y-76730026D01*
X130207853Y-76740932D01*
X130298704Y-76917159D01*
X130305064Y-76927055D01*
X130427617Y-77082894D01*
X130435735Y-77091408D01*
X130585572Y-77221243D01*
X130595149Y-77228062D01*
X130766846Y-77327191D01*
X130777549Y-77332079D01*
X130964904Y-77396924D01*
X130970488Y-77398279D01*
X130978681Y-77397693D01*
X130981000Y-77387036D01*
X130981000Y-77382181D01*
X131481000Y-77382181D01*
X131483505Y-77393072D01*
X131494679Y-77392939D01*
X131586670Y-77370622D01*
X131597788Y-77366774D01*
X131778121Y-77284419D01*
X131788319Y-77278531D01*
X131949806Y-77163536D01*
X131958703Y-77155827D01*
X132095517Y-77012341D01*
X132102784Y-77003100D01*
X132124327Y-76969578D01*
X132630500Y-76969578D01*
X132630501Y-76972872D01*
X132630853Y-76976150D01*
X132630854Y-76976161D01*
X132636079Y-77024768D01*
X132636080Y-77024773D01*
X132636909Y-77032483D01*
X132639619Y-77039749D01*
X132639620Y-77039753D01*
X132673217Y-77129831D01*
X132687204Y-77167331D01*
X132692518Y-77174430D01*
X132692519Y-77174431D01*
X132730763Y-77225519D01*
X132773454Y-77282546D01*
X132888669Y-77368796D01*
X133023517Y-77419091D01*
X133083127Y-77425500D01*
X134378872Y-77425499D01*
X134438483Y-77419091D01*
X134573331Y-77368796D01*
X134688546Y-77282546D01*
X134774796Y-77167331D01*
X134825091Y-77032483D01*
X134831500Y-76972873D01*
X134831499Y-76195700D01*
X157185350Y-76195700D01*
X157204270Y-76339409D01*
X157207381Y-76346920D01*
X157207382Y-76346923D01*
X157221232Y-76380360D01*
X157259739Y-76473325D01*
X157347979Y-76588321D01*
X157462975Y-76676561D01*
X157596891Y-76732030D01*
X157740600Y-76750950D01*
X157884309Y-76732030D01*
X158018225Y-76676561D01*
X158133221Y-76588321D01*
X158221461Y-76473325D01*
X158276930Y-76339409D01*
X158295850Y-76195700D01*
X158276930Y-76051991D01*
X158221461Y-75918075D01*
X158133221Y-75803079D01*
X158126778Y-75798135D01*
X158126775Y-75798132D01*
X158072618Y-75756576D01*
X158036892Y-75713044D01*
X158024104Y-75658200D01*
X158036892Y-75603356D01*
X158072618Y-75559824D01*
X158108871Y-75532004D01*
X158133221Y-75513321D01*
X158221461Y-75398325D01*
X158276930Y-75264409D01*
X158295850Y-75120700D01*
X158276930Y-74976991D01*
X158221461Y-74843075D01*
X158133221Y-74728079D01*
X158086351Y-74692114D01*
X158024671Y-74644785D01*
X158024669Y-74644784D01*
X158018225Y-74639839D01*
X157982192Y-74624914D01*
X157891823Y-74587482D01*
X157891820Y-74587481D01*
X157884309Y-74584370D01*
X157876249Y-74583308D01*
X157876246Y-74583308D01*
X157748659Y-74566511D01*
X157740600Y-74565450D01*
X157732541Y-74566511D01*
X157604953Y-74583308D01*
X157604948Y-74583309D01*
X157596891Y-74584370D01*
X157589381Y-74587480D01*
X157589376Y-74587482D01*
X157470485Y-74636728D01*
X157470483Y-74636729D01*
X157462975Y-74639839D01*
X157456533Y-74644782D01*
X157456528Y-74644785D01*
X157354421Y-74723135D01*
X157354417Y-74723138D01*
X157347979Y-74728079D01*
X157343038Y-74734517D01*
X157343035Y-74734521D01*
X157264685Y-74836628D01*
X157264682Y-74836633D01*
X157259739Y-74843075D01*
X157256629Y-74850583D01*
X157256628Y-74850585D01*
X157207382Y-74969476D01*
X157207380Y-74969481D01*
X157204270Y-74976991D01*
X157203209Y-74985048D01*
X157203208Y-74985053D01*
X157192359Y-75067461D01*
X157185350Y-75120700D01*
X157186411Y-75128759D01*
X157201605Y-75244172D01*
X157204270Y-75264409D01*
X157207381Y-75271920D01*
X157207382Y-75271923D01*
X157224030Y-75312114D01*
X157259739Y-75398325D01*
X157264684Y-75404769D01*
X157264685Y-75404771D01*
X157281840Y-75427128D01*
X157347979Y-75513321D01*
X157354421Y-75518264D01*
X157354426Y-75518269D01*
X157408582Y-75559825D01*
X157444307Y-75603357D01*
X157457095Y-75658200D01*
X157444307Y-75713043D01*
X157408582Y-75756575D01*
X157354426Y-75798130D01*
X157354417Y-75798138D01*
X157347979Y-75803079D01*
X157343038Y-75809517D01*
X157343035Y-75809521D01*
X157264685Y-75911628D01*
X157264682Y-75911633D01*
X157259739Y-75918075D01*
X157256629Y-75925583D01*
X157256628Y-75925585D01*
X157207382Y-76044476D01*
X157207380Y-76044481D01*
X157204270Y-76051991D01*
X157203209Y-76060048D01*
X157203208Y-76060053D01*
X157186411Y-76187641D01*
X157185350Y-76195700D01*
X134831499Y-76195700D01*
X134831499Y-75427128D01*
X134825091Y-75367517D01*
X134774796Y-75232669D01*
X134688546Y-75117454D01*
X134573331Y-75031204D01*
X134494280Y-75001720D01*
X134445752Y-74983620D01*
X134445750Y-74983619D01*
X134438483Y-74980909D01*
X134430770Y-74980079D01*
X134430767Y-74980079D01*
X134382180Y-74974855D01*
X134382169Y-74974854D01*
X134378873Y-74974500D01*
X134375550Y-74974500D01*
X133086439Y-74974500D01*
X133086420Y-74974500D01*
X133083128Y-74974501D01*
X133079850Y-74974853D01*
X133079838Y-74974854D01*
X133031231Y-74980079D01*
X133031225Y-74980080D01*
X133023517Y-74980909D01*
X133016252Y-74983618D01*
X133016246Y-74983620D01*
X132896980Y-75028104D01*
X132896978Y-75028104D01*
X132888669Y-75031204D01*
X132881572Y-75036516D01*
X132881568Y-75036519D01*
X132780550Y-75112141D01*
X132780546Y-75112144D01*
X132773454Y-75117454D01*
X132768144Y-75124546D01*
X132768141Y-75124550D01*
X132692519Y-75225568D01*
X132692516Y-75225572D01*
X132687204Y-75232669D01*
X132684104Y-75240978D01*
X132684104Y-75240980D01*
X132639620Y-75360247D01*
X132639619Y-75360250D01*
X132636909Y-75367517D01*
X132636079Y-75375227D01*
X132636079Y-75375232D01*
X132630855Y-75423819D01*
X132630854Y-75423831D01*
X132630500Y-75427127D01*
X132630500Y-75430448D01*
X132630500Y-75430449D01*
X132630500Y-76969560D01*
X132630500Y-76969578D01*
X132124327Y-76969578D01*
X132209971Y-76836314D01*
X132215363Y-76825856D01*
X132289049Y-76641798D01*
X132292362Y-76630514D01*
X132324559Y-76463457D01*
X132324230Y-76452412D01*
X132313448Y-76450000D01*
X131497326Y-76450000D01*
X131484450Y-76453450D01*
X131481000Y-76466326D01*
X131481000Y-77382181D01*
X130981000Y-77382181D01*
X130981000Y-76466326D01*
X130977549Y-76453450D01*
X130964674Y-76450000D01*
X130155260Y-76450000D01*
X130142068Y-76453760D01*
X130139579Y-76467251D01*
X129823828Y-76467251D01*
X129824559Y-76463457D01*
X129824230Y-76452412D01*
X129813448Y-76450000D01*
X128997326Y-76450000D01*
X128984450Y-76453450D01*
X128981000Y-76466326D01*
X128981000Y-77382181D01*
X128481000Y-77382181D01*
X128481000Y-76466326D01*
X128477549Y-76453450D01*
X128464674Y-76450000D01*
X127655260Y-76450000D01*
X127642068Y-76453760D01*
X127639579Y-76467251D01*
X127324337Y-76467251D01*
X127331500Y-76430085D01*
X127331500Y-76022575D01*
X127323285Y-75936542D01*
X127637440Y-75936542D01*
X127637769Y-75947587D01*
X127648552Y-75950000D01*
X128464674Y-75950000D01*
X128477549Y-75946549D01*
X128481000Y-75933674D01*
X128981000Y-75933674D01*
X128984450Y-75946549D01*
X128997326Y-75950000D01*
X129806740Y-75950000D01*
X129819931Y-75946239D01*
X129821720Y-75936542D01*
X130137440Y-75936542D01*
X130137769Y-75947587D01*
X130148552Y-75950000D01*
X130964674Y-75950000D01*
X130977549Y-75946549D01*
X130981000Y-75933674D01*
X131481000Y-75933674D01*
X131484450Y-75946549D01*
X131497326Y-75950000D01*
X132306740Y-75950000D01*
X132319931Y-75946239D01*
X132322420Y-75932748D01*
X132316597Y-75871765D01*
X132314369Y-75860203D01*
X132258512Y-75669973D01*
X132254146Y-75659067D01*
X132163295Y-75482840D01*
X132156935Y-75472944D01*
X132034382Y-75317105D01*
X132026264Y-75308591D01*
X131876427Y-75178756D01*
X131866850Y-75171937D01*
X131695153Y-75072808D01*
X131684450Y-75067920D01*
X131497095Y-75003075D01*
X131491511Y-75001720D01*
X131483318Y-75002306D01*
X131481000Y-75012964D01*
X131481000Y-75933674D01*
X130981000Y-75933674D01*
X130981000Y-75017819D01*
X130978494Y-75006927D01*
X130967320Y-75007060D01*
X130875329Y-75029377D01*
X130864211Y-75033225D01*
X130683878Y-75115580D01*
X130673680Y-75121468D01*
X130512193Y-75236463D01*
X130503296Y-75244172D01*
X130366482Y-75387658D01*
X130359215Y-75396899D01*
X130252028Y-75563685D01*
X130246636Y-75574143D01*
X130172950Y-75758201D01*
X130169637Y-75769485D01*
X130137440Y-75936542D01*
X129821720Y-75936542D01*
X129822420Y-75932748D01*
X129816597Y-75871765D01*
X129814369Y-75860203D01*
X129758512Y-75669973D01*
X129754146Y-75659067D01*
X129663295Y-75482840D01*
X129656935Y-75472944D01*
X129534382Y-75317105D01*
X129526264Y-75308591D01*
X129376427Y-75178756D01*
X129366850Y-75171937D01*
X129195153Y-75072808D01*
X129184450Y-75067920D01*
X128997095Y-75003075D01*
X128991511Y-75001720D01*
X128983318Y-75002306D01*
X128981000Y-75012964D01*
X128981000Y-75933674D01*
X128481000Y-75933674D01*
X128481000Y-75017819D01*
X128478494Y-75006927D01*
X128467320Y-75007060D01*
X128375329Y-75029377D01*
X128364211Y-75033225D01*
X128183878Y-75115580D01*
X128173680Y-75121468D01*
X128012193Y-75236463D01*
X128003296Y-75244172D01*
X127866482Y-75387658D01*
X127859215Y-75396899D01*
X127752028Y-75563685D01*
X127746636Y-75574143D01*
X127672950Y-75758201D01*
X127669637Y-75769485D01*
X127637440Y-75936542D01*
X127323285Y-75936542D01*
X127316528Y-75865782D01*
X127257316Y-75664125D01*
X127161011Y-75477318D01*
X127031092Y-75312114D01*
X126872256Y-75174481D01*
X126690244Y-75069396D01*
X126684660Y-75067463D01*
X126684655Y-75067461D01*
X126497214Y-75002587D01*
X126497208Y-75002585D01*
X126491633Y-75000656D01*
X126485794Y-74999816D01*
X126485788Y-74999815D01*
X126289441Y-74971585D01*
X126289435Y-74971584D01*
X126283602Y-74970746D01*
X126277716Y-74971026D01*
X126277710Y-74971026D01*
X126079567Y-74980465D01*
X126079565Y-74980465D01*
X126073670Y-74980746D01*
X126067942Y-74982135D01*
X126067932Y-74982137D01*
X125875160Y-75028904D01*
X125875155Y-75028905D01*
X125869424Y-75030296D01*
X125864054Y-75032747D01*
X125864052Y-75032749D01*
X125683621Y-75115149D01*
X125683614Y-75115152D01*
X125678247Y-75117604D01*
X125673437Y-75121028D01*
X125673432Y-75121032D01*
X125511865Y-75236083D01*
X125511859Y-75236087D01*
X125507048Y-75239514D01*
X125502974Y-75243786D01*
X125502969Y-75243791D01*
X125366088Y-75387348D01*
X125366082Y-75387355D01*
X125362014Y-75391622D01*
X125358822Y-75396588D01*
X125358821Y-75396590D01*
X125251582Y-75563455D01*
X125251578Y-75563462D01*
X125248387Y-75568428D01*
X125246195Y-75573903D01*
X125246190Y-75573913D01*
X125172469Y-75758060D01*
X125172466Y-75758069D01*
X125170275Y-75763543D01*
X125169158Y-75769334D01*
X125169156Y-75769344D01*
X125136932Y-75936542D01*
X125130500Y-75969915D01*
X125130500Y-76377425D01*
X124831500Y-76377425D01*
X124831500Y-76022575D01*
X124816528Y-75865782D01*
X124757316Y-75664125D01*
X124661011Y-75477318D01*
X124531092Y-75312114D01*
X124372256Y-75174481D01*
X124190244Y-75069396D01*
X124184660Y-75067463D01*
X124184655Y-75067461D01*
X123997214Y-75002587D01*
X123997208Y-75002585D01*
X123991633Y-75000656D01*
X123985794Y-74999816D01*
X123985788Y-74999815D01*
X123789441Y-74971585D01*
X123789435Y-74971584D01*
X123783602Y-74970746D01*
X123777716Y-74971026D01*
X123777710Y-74971026D01*
X123579567Y-74980465D01*
X123579565Y-74980465D01*
X123573670Y-74980746D01*
X123567942Y-74982135D01*
X123567932Y-74982137D01*
X123375160Y-75028904D01*
X123375155Y-75028905D01*
X123369424Y-75030296D01*
X123364054Y-75032747D01*
X123364052Y-75032749D01*
X123183621Y-75115149D01*
X123183614Y-75115152D01*
X123178247Y-75117604D01*
X123173437Y-75121028D01*
X123173432Y-75121032D01*
X123011865Y-75236083D01*
X123011859Y-75236087D01*
X123007048Y-75239514D01*
X123002974Y-75243786D01*
X123002969Y-75243791D01*
X122866088Y-75387348D01*
X122866082Y-75387355D01*
X122862014Y-75391622D01*
X122858822Y-75396588D01*
X122858821Y-75396590D01*
X122751582Y-75563455D01*
X122751578Y-75563462D01*
X122748387Y-75568428D01*
X122746195Y-75573903D01*
X122746190Y-75573913D01*
X122672469Y-75758060D01*
X122672466Y-75758069D01*
X122670275Y-75763543D01*
X122669158Y-75769334D01*
X122669156Y-75769344D01*
X122636932Y-75936542D01*
X122630500Y-75969915D01*
X122630500Y-76377425D01*
X122331500Y-76377425D01*
X122331500Y-76022575D01*
X122316528Y-75865782D01*
X122257316Y-75664125D01*
X122161011Y-75477318D01*
X122031092Y-75312114D01*
X121872256Y-75174481D01*
X121690244Y-75069396D01*
X121684660Y-75067463D01*
X121684655Y-75067461D01*
X121497214Y-75002587D01*
X121497208Y-75002585D01*
X121491633Y-75000656D01*
X121485794Y-74999816D01*
X121485788Y-74999815D01*
X121289441Y-74971585D01*
X121289435Y-74971584D01*
X121283602Y-74970746D01*
X121277716Y-74971026D01*
X121277710Y-74971026D01*
X121079567Y-74980465D01*
X121079565Y-74980465D01*
X121073670Y-74980746D01*
X121067942Y-74982135D01*
X121067932Y-74982137D01*
X120875160Y-75028904D01*
X120875155Y-75028905D01*
X120869424Y-75030296D01*
X120864054Y-75032747D01*
X120864052Y-75032749D01*
X120683621Y-75115149D01*
X120683614Y-75115152D01*
X120678247Y-75117604D01*
X120673437Y-75121028D01*
X120673432Y-75121032D01*
X120511865Y-75236083D01*
X120511859Y-75236087D01*
X120507048Y-75239514D01*
X120502974Y-75243786D01*
X120502969Y-75243791D01*
X120366088Y-75387348D01*
X120366082Y-75387355D01*
X120362014Y-75391622D01*
X120358822Y-75396588D01*
X120358821Y-75396590D01*
X120251582Y-75563455D01*
X120251578Y-75563462D01*
X120248387Y-75568428D01*
X120246195Y-75573903D01*
X120246190Y-75573913D01*
X120172469Y-75758060D01*
X120172466Y-75758069D01*
X120170275Y-75763543D01*
X120169158Y-75769334D01*
X120169156Y-75769344D01*
X120136932Y-75936542D01*
X120130500Y-75969915D01*
X120130500Y-76377425D01*
X117140500Y-76377425D01*
X117140500Y-73581400D01*
X138608950Y-73581400D01*
X138627870Y-73725109D01*
X138630981Y-73732620D01*
X138630982Y-73732623D01*
X138660180Y-73803114D01*
X138683339Y-73859025D01*
X138688284Y-73865469D01*
X138688285Y-73865471D01*
X138718888Y-73905353D01*
X138771579Y-73974021D01*
X138886575Y-74062261D01*
X139020491Y-74117730D01*
X139164200Y-74136650D01*
X139307909Y-74117730D01*
X139441825Y-74062261D01*
X139556821Y-73974021D01*
X139645061Y-73859025D01*
X139700530Y-73725109D01*
X139719450Y-73581400D01*
X139713078Y-73533000D01*
X143335750Y-73533000D01*
X143336811Y-73541059D01*
X143346875Y-73617505D01*
X143354670Y-73676709D01*
X143357781Y-73684220D01*
X143357782Y-73684223D01*
X143377830Y-73732623D01*
X143410139Y-73810625D01*
X143415084Y-73817069D01*
X143415085Y-73817071D01*
X143480951Y-73902909D01*
X143498379Y-73925621D01*
X143613375Y-74013861D01*
X143747291Y-74069330D01*
X143754280Y-74070250D01*
X143797023Y-74091329D01*
X143828924Y-74127705D01*
X143844476Y-74173519D01*
X143861608Y-74303646D01*
X143862670Y-74311709D01*
X143865781Y-74319220D01*
X143865782Y-74319223D01*
X143903214Y-74409592D01*
X143918139Y-74445625D01*
X144006379Y-74560621D01*
X144121375Y-74648861D01*
X144255291Y-74704330D01*
X144399000Y-74723250D01*
X144542709Y-74704330D01*
X144561825Y-74696411D01*
X144614686Y-74687090D01*
X144666535Y-74700982D01*
X144707654Y-74735485D01*
X144763430Y-74808173D01*
X144763435Y-74808178D01*
X144768379Y-74814621D01*
X144883375Y-74902861D01*
X145017291Y-74958330D01*
X145161000Y-74977250D01*
X145304709Y-74958330D01*
X145438625Y-74902861D01*
X145530013Y-74832735D01*
X145578661Y-74810051D01*
X145632339Y-74810051D01*
X145680986Y-74832735D01*
X145772375Y-74902861D01*
X145906291Y-74958330D01*
X146050000Y-74977250D01*
X146193709Y-74958330D01*
X146327625Y-74902861D01*
X146442621Y-74814621D01*
X146530861Y-74699625D01*
X146586330Y-74565709D01*
X146605250Y-74422000D01*
X146586330Y-74278291D01*
X146530861Y-74144375D01*
X146451538Y-74041000D01*
X149812750Y-74041000D01*
X149813811Y-74049059D01*
X149830196Y-74173519D01*
X149831670Y-74184709D01*
X149887139Y-74318625D01*
X149975379Y-74433621D01*
X150090375Y-74521861D01*
X150224291Y-74577330D01*
X150368000Y-74596250D01*
X150511709Y-74577330D01*
X150645625Y-74521861D01*
X150760621Y-74433621D01*
X150848861Y-74318625D01*
X150904330Y-74184709D01*
X150923250Y-74041000D01*
X150904330Y-73897291D01*
X150848861Y-73763375D01*
X150760621Y-73648379D01*
X150738061Y-73631068D01*
X150652071Y-73565085D01*
X150652069Y-73565084D01*
X150645625Y-73560139D01*
X150566776Y-73527479D01*
X150519223Y-73507782D01*
X150519220Y-73507781D01*
X150511709Y-73504670D01*
X150503649Y-73503608D01*
X150503646Y-73503608D01*
X150376059Y-73486811D01*
X150368000Y-73485750D01*
X150359941Y-73486811D01*
X150232353Y-73503608D01*
X150232348Y-73503609D01*
X150224291Y-73504670D01*
X150216781Y-73507780D01*
X150216776Y-73507782D01*
X150097885Y-73557028D01*
X150097883Y-73557029D01*
X150090375Y-73560139D01*
X150083933Y-73565082D01*
X150083928Y-73565085D01*
X149981821Y-73643435D01*
X149981817Y-73643438D01*
X149975379Y-73648379D01*
X149970438Y-73654817D01*
X149970435Y-73654821D01*
X149892085Y-73756928D01*
X149892082Y-73756933D01*
X149887139Y-73763375D01*
X149884029Y-73770883D01*
X149884028Y-73770885D01*
X149834782Y-73889776D01*
X149834780Y-73889781D01*
X149831670Y-73897291D01*
X149830609Y-73905348D01*
X149830608Y-73905353D01*
X149814931Y-74024435D01*
X149812750Y-74041000D01*
X146451538Y-74041000D01*
X146442621Y-74029379D01*
X146376919Y-73978964D01*
X146334071Y-73946085D01*
X146334069Y-73946084D01*
X146327625Y-73941139D01*
X146241229Y-73905353D01*
X146201223Y-73888782D01*
X146201220Y-73888781D01*
X146193709Y-73885670D01*
X146185649Y-73884608D01*
X146185646Y-73884608D01*
X146058059Y-73867811D01*
X146050000Y-73866750D01*
X146041941Y-73867811D01*
X145914353Y-73884608D01*
X145914348Y-73884609D01*
X145906291Y-73885670D01*
X145898781Y-73888780D01*
X145898776Y-73888782D01*
X145779885Y-73938028D01*
X145779883Y-73938029D01*
X145772375Y-73941139D01*
X145765932Y-73946082D01*
X145765923Y-73946088D01*
X145680986Y-74011263D01*
X145632338Y-74033948D01*
X145578662Y-74033948D01*
X145530014Y-74011263D01*
X145445076Y-73946088D01*
X145445070Y-73946084D01*
X145438625Y-73941139D01*
X145352229Y-73905353D01*
X145312223Y-73888782D01*
X145312220Y-73888781D01*
X145304709Y-73885670D01*
X145296649Y-73884608D01*
X145296646Y-73884608D01*
X145169059Y-73867811D01*
X145161000Y-73866750D01*
X145152941Y-73867811D01*
X145025353Y-73884608D01*
X145025348Y-73884609D01*
X145017291Y-73885670D01*
X145009781Y-73888780D01*
X145009776Y-73888782D01*
X144998166Y-73893591D01*
X144945306Y-73902909D01*
X144893461Y-73889015D01*
X144852345Y-73854514D01*
X144796569Y-73781826D01*
X144796564Y-73781821D01*
X144791621Y-73775379D01*
X144726108Y-73725109D01*
X144683071Y-73692085D01*
X144683069Y-73692084D01*
X144676625Y-73687139D01*
X144542709Y-73631670D01*
X144535718Y-73630749D01*
X144492973Y-73609668D01*
X144461074Y-73573293D01*
X144445523Y-73527479D01*
X144440029Y-73485750D01*
X144427330Y-73389291D01*
X144371861Y-73255375D01*
X144283621Y-73140379D01*
X144265046Y-73126126D01*
X144175071Y-73057085D01*
X144175069Y-73057084D01*
X144168625Y-73052139D01*
X144079052Y-73015037D01*
X144042223Y-72999782D01*
X144042220Y-72999781D01*
X144034709Y-72996670D01*
X144026649Y-72995608D01*
X144026646Y-72995608D01*
X143899059Y-72978811D01*
X143891000Y-72977750D01*
X143882941Y-72978811D01*
X143755353Y-72995608D01*
X143755348Y-72995609D01*
X143747291Y-72996670D01*
X143739781Y-72999780D01*
X143739776Y-72999782D01*
X143620885Y-73049028D01*
X143620883Y-73049029D01*
X143613375Y-73052139D01*
X143606933Y-73057082D01*
X143606928Y-73057085D01*
X143504821Y-73135435D01*
X143504817Y-73135438D01*
X143498379Y-73140379D01*
X143493438Y-73146817D01*
X143493435Y-73146821D01*
X143415085Y-73248928D01*
X143415082Y-73248933D01*
X143410139Y-73255375D01*
X143407029Y-73262883D01*
X143407028Y-73262885D01*
X143357782Y-73381776D01*
X143357780Y-73381781D01*
X143354670Y-73389291D01*
X143353609Y-73397348D01*
X143353608Y-73397353D01*
X143339480Y-73504670D01*
X143335750Y-73533000D01*
X139713078Y-73533000D01*
X139700530Y-73437691D01*
X139645061Y-73303775D01*
X139556821Y-73188779D01*
X139484199Y-73133054D01*
X139448271Y-73105485D01*
X139448269Y-73105484D01*
X139441825Y-73100539D01*
X139399708Y-73083094D01*
X139315423Y-73048182D01*
X139315420Y-73048181D01*
X139307909Y-73045070D01*
X139299849Y-73044008D01*
X139299846Y-73044008D01*
X139172259Y-73027211D01*
X139164200Y-73026150D01*
X139156141Y-73027211D01*
X139028553Y-73044008D01*
X139028548Y-73044009D01*
X139020491Y-73045070D01*
X139012981Y-73048180D01*
X139012976Y-73048182D01*
X138894085Y-73097428D01*
X138894083Y-73097429D01*
X138886575Y-73100539D01*
X138880133Y-73105482D01*
X138880128Y-73105485D01*
X138778021Y-73183835D01*
X138778017Y-73183838D01*
X138771579Y-73188779D01*
X138766638Y-73195217D01*
X138766635Y-73195221D01*
X138688285Y-73297328D01*
X138688282Y-73297333D01*
X138683339Y-73303775D01*
X138680229Y-73311283D01*
X138680228Y-73311285D01*
X138630982Y-73430176D01*
X138630980Y-73430181D01*
X138627870Y-73437691D01*
X138626809Y-73445748D01*
X138626808Y-73445753D01*
X138619052Y-73504670D01*
X138608950Y-73581400D01*
X117140500Y-73581400D01*
X117140500Y-72668653D01*
X140455180Y-72668653D01*
X140456241Y-72676712D01*
X140472223Y-72798109D01*
X140474100Y-72812362D01*
X140477211Y-72819873D01*
X140477212Y-72819876D01*
X140498164Y-72870458D01*
X140529569Y-72946278D01*
X140534514Y-72952722D01*
X140534515Y-72952724D01*
X140567421Y-72995608D01*
X140617809Y-73061274D01*
X140732805Y-73149514D01*
X140866721Y-73204983D01*
X141010430Y-73223903D01*
X141154139Y-73204983D01*
X141288055Y-73149514D01*
X141294502Y-73144566D01*
X141294507Y-73144564D01*
X141358741Y-73095275D01*
X141407389Y-73072589D01*
X141461066Y-73072589D01*
X141509714Y-73095273D01*
X141581375Y-73150261D01*
X141715291Y-73205730D01*
X141859000Y-73224650D01*
X142002709Y-73205730D01*
X142136625Y-73150261D01*
X142251621Y-73062021D01*
X142339861Y-72947025D01*
X142395330Y-72813109D01*
X142398366Y-72790050D01*
X146205950Y-72790050D01*
X146224870Y-72933759D01*
X146227981Y-72941270D01*
X146227982Y-72941273D01*
X146265414Y-73031642D01*
X146280339Y-73067675D01*
X146285284Y-73074119D01*
X146285285Y-73074121D01*
X146343710Y-73150261D01*
X146368579Y-73182671D01*
X146483575Y-73270911D01*
X146617491Y-73326380D01*
X146761200Y-73345300D01*
X146904909Y-73326380D01*
X147038825Y-73270911D01*
X147153821Y-73182671D01*
X147242061Y-73067675D01*
X147297530Y-72933759D01*
X147316450Y-72790050D01*
X147297530Y-72646341D01*
X147242061Y-72512425D01*
X147153821Y-72397429D01*
X147051408Y-72318844D01*
X147045271Y-72314135D01*
X147045269Y-72314134D01*
X147038825Y-72309189D01*
X146976132Y-72283221D01*
X146912423Y-72256832D01*
X146912420Y-72256831D01*
X146904909Y-72253720D01*
X146896849Y-72252658D01*
X146896846Y-72252658D01*
X146769259Y-72235861D01*
X146761200Y-72234800D01*
X146753141Y-72235861D01*
X146625553Y-72252658D01*
X146625548Y-72252659D01*
X146617491Y-72253720D01*
X146609981Y-72256830D01*
X146609976Y-72256832D01*
X146491085Y-72306078D01*
X146491083Y-72306079D01*
X146483575Y-72309189D01*
X146477133Y-72314132D01*
X146477128Y-72314135D01*
X146375021Y-72392485D01*
X146375017Y-72392488D01*
X146368579Y-72397429D01*
X146363638Y-72403867D01*
X146363635Y-72403871D01*
X146285285Y-72505978D01*
X146285282Y-72505983D01*
X146280339Y-72512425D01*
X146277229Y-72519933D01*
X146277228Y-72519935D01*
X146227982Y-72638826D01*
X146227980Y-72638831D01*
X146224870Y-72646341D01*
X146223809Y-72654398D01*
X146223808Y-72654403D01*
X146220773Y-72677459D01*
X146205950Y-72790050D01*
X142398366Y-72790050D01*
X142414250Y-72669400D01*
X142395330Y-72525691D01*
X142339861Y-72391775D01*
X142251621Y-72276779D01*
X142136625Y-72188539D01*
X142049676Y-72152524D01*
X142010223Y-72136182D01*
X142010220Y-72136181D01*
X142002709Y-72133070D01*
X141994649Y-72132008D01*
X141994646Y-72132008D01*
X141867059Y-72115211D01*
X141859000Y-72114150D01*
X141850941Y-72115211D01*
X141723353Y-72132008D01*
X141723348Y-72132009D01*
X141715291Y-72133070D01*
X141707781Y-72136180D01*
X141707776Y-72136182D01*
X141588885Y-72185428D01*
X141588883Y-72185429D01*
X141581375Y-72188539D01*
X141574933Y-72193482D01*
X141574928Y-72193485D01*
X141510687Y-72242779D01*
X141462039Y-72265463D01*
X141408362Y-72265463D01*
X141359714Y-72242778D01*
X141294502Y-72192739D01*
X141288055Y-72187792D01*
X141252022Y-72172867D01*
X141161653Y-72135435D01*
X141161650Y-72135434D01*
X141154139Y-72132323D01*
X141146079Y-72131261D01*
X141146076Y-72131261D01*
X141018489Y-72114464D01*
X141010430Y-72113403D01*
X141002371Y-72114464D01*
X140874783Y-72131261D01*
X140874778Y-72131262D01*
X140866721Y-72132323D01*
X140859211Y-72135433D01*
X140859206Y-72135435D01*
X140740315Y-72184681D01*
X140740313Y-72184682D01*
X140732805Y-72187792D01*
X140726363Y-72192735D01*
X140726358Y-72192738D01*
X140624251Y-72271088D01*
X140624247Y-72271091D01*
X140617809Y-72276032D01*
X140612868Y-72282470D01*
X140612865Y-72282474D01*
X140534515Y-72384581D01*
X140534512Y-72384586D01*
X140529569Y-72391028D01*
X140526459Y-72398536D01*
X140526458Y-72398538D01*
X140477212Y-72517429D01*
X140477210Y-72517434D01*
X140474100Y-72524944D01*
X140473039Y-72533001D01*
X140473038Y-72533006D01*
X140472940Y-72533753D01*
X140455180Y-72668653D01*
X117140500Y-72668653D01*
X117140500Y-68702000D01*
X121837706Y-68702000D01*
X121838088Y-68706854D01*
X121847478Y-68826175D01*
X121856854Y-68945302D01*
X121857988Y-68950026D01*
X121857989Y-68950031D01*
X121912690Y-69177873D01*
X121913828Y-69182612D01*
X121915693Y-69187116D01*
X121915694Y-69187117D01*
X122005357Y-69403586D01*
X122005361Y-69403594D01*
X122007223Y-69408089D01*
X122134741Y-69616179D01*
X122137905Y-69619884D01*
X122137909Y-69619889D01*
X122254659Y-69756585D01*
X122293241Y-69801759D01*
X122296948Y-69804925D01*
X122475110Y-69957090D01*
X122475113Y-69957092D01*
X122478821Y-69960259D01*
X122686911Y-70087777D01*
X122691410Y-70089640D01*
X122691413Y-70089642D01*
X122752600Y-70114986D01*
X122912388Y-70181172D01*
X123149698Y-70238146D01*
X123393000Y-70257294D01*
X123636302Y-70238146D01*
X123659819Y-70232500D01*
X141266650Y-70232500D01*
X141267711Y-70240559D01*
X141284233Y-70366059D01*
X141285570Y-70376209D01*
X141341039Y-70510125D01*
X141429279Y-70625121D01*
X141544275Y-70713361D01*
X141678191Y-70768830D01*
X141821900Y-70787750D01*
X141965609Y-70768830D01*
X142099525Y-70713361D01*
X142214521Y-70625121D01*
X142302761Y-70510125D01*
X142334210Y-70434200D01*
X143105953Y-70434200D01*
X143107215Y-70442977D01*
X143125172Y-70567877D01*
X143125173Y-70567881D01*
X143126435Y-70576657D01*
X143130119Y-70584725D01*
X143130120Y-70584726D01*
X143168942Y-70669735D01*
X143186223Y-70707573D01*
X143192030Y-70714275D01*
X143192031Y-70714276D01*
X143274665Y-70809642D01*
X143274667Y-70809644D01*
X143280472Y-70816343D01*
X143401547Y-70894153D01*
X143539639Y-70934700D01*
X143674690Y-70934700D01*
X143683561Y-70934700D01*
X143821653Y-70894153D01*
X143821769Y-70894549D01*
X143865600Y-70885013D01*
X143909430Y-70894549D01*
X143909547Y-70894153D01*
X144047639Y-70934700D01*
X144182690Y-70934700D01*
X144191561Y-70934700D01*
X144329653Y-70894153D01*
X144450728Y-70816343D01*
X144544977Y-70707573D01*
X144604765Y-70576657D01*
X144625247Y-70434200D01*
X144883953Y-70434200D01*
X144885215Y-70442977D01*
X144903172Y-70567877D01*
X144903173Y-70567881D01*
X144904435Y-70576657D01*
X144908119Y-70584725D01*
X144908120Y-70584726D01*
X144946942Y-70669735D01*
X144964223Y-70707573D01*
X144970030Y-70714275D01*
X144970031Y-70714276D01*
X145052665Y-70809642D01*
X145052667Y-70809644D01*
X145058472Y-70816343D01*
X145065926Y-70821133D01*
X145065928Y-70821135D01*
X145085813Y-70833914D01*
X145154867Y-70878292D01*
X145199577Y-70928868D01*
X145211168Y-70995373D01*
X145186203Y-71058093D01*
X145142288Y-71115323D01*
X145142282Y-71115332D01*
X145137339Y-71121775D01*
X145134229Y-71129283D01*
X145134228Y-71129285D01*
X145084982Y-71248176D01*
X145084980Y-71248181D01*
X145081870Y-71255691D01*
X145080809Y-71263748D01*
X145080808Y-71263753D01*
X145065804Y-71377725D01*
X145062950Y-71399400D01*
X145081870Y-71543109D01*
X145084981Y-71550620D01*
X145084982Y-71550623D01*
X145119254Y-71633363D01*
X145137339Y-71677025D01*
X145225579Y-71792021D01*
X145340575Y-71880261D01*
X145474491Y-71935730D01*
X145618200Y-71954650D01*
X145761909Y-71935730D01*
X145895825Y-71880261D01*
X146010821Y-71792021D01*
X146099061Y-71677025D01*
X146154530Y-71543109D01*
X146173450Y-71399400D01*
X146171546Y-71384935D01*
X161452669Y-71384935D01*
X161483135Y-71557711D01*
X161552623Y-71718804D01*
X161556936Y-71724597D01*
X161556937Y-71724599D01*
X161602620Y-71785962D01*
X161657390Y-71859530D01*
X161791786Y-71972302D01*
X161948567Y-72051040D01*
X162119279Y-72091500D01*
X162126500Y-72091500D01*
X162913155Y-72091500D01*
X162974665Y-72107831D01*
X163019973Y-72152524D01*
X163037143Y-72213805D01*
X163021655Y-72275532D01*
X162981259Y-72317619D01*
X162981391Y-72317781D01*
X162974813Y-72323132D01*
X162974809Y-72323135D01*
X162875913Y-72403594D01*
X162869335Y-72408946D01*
X162864446Y-72415871D01*
X162864445Y-72415873D01*
X162790920Y-72520033D01*
X162790917Y-72520037D01*
X162786029Y-72526963D01*
X162783190Y-72534950D01*
X162783189Y-72534953D01*
X162740493Y-72655088D01*
X162740491Y-72655094D01*
X162737654Y-72663079D01*
X162727796Y-72807199D01*
X162729519Y-72815493D01*
X162729520Y-72815500D01*
X162755460Y-72940332D01*
X162755462Y-72940337D01*
X162757186Y-72948634D01*
X162761086Y-72956161D01*
X162761087Y-72956163D01*
X162819743Y-73069363D01*
X162823646Y-73076895D01*
X162845728Y-73100539D01*
X162916454Y-73176269D01*
X162916456Y-73176271D01*
X162922245Y-73182469D01*
X163045672Y-73257526D01*
X163184772Y-73296500D01*
X163288712Y-73296500D01*
X163292949Y-73296500D01*
X163400111Y-73281771D01*
X163532609Y-73224219D01*
X163644665Y-73133054D01*
X163727971Y-73015037D01*
X163776346Y-72878921D01*
X163786204Y-72734801D01*
X163774288Y-72677459D01*
X163758539Y-72601667D01*
X163758538Y-72601666D01*
X163756814Y-72593366D01*
X163690354Y-72465105D01*
X163615150Y-72384581D01*
X163597545Y-72365730D01*
X163597542Y-72365728D01*
X163591755Y-72359531D01*
X163584509Y-72355124D01*
X163584507Y-72355123D01*
X163479570Y-72291310D01*
X163433047Y-72240733D01*
X163420601Y-72173149D01*
X163446054Y-72109316D01*
X163501586Y-72068840D01*
X163646117Y-72016237D01*
X163792696Y-71919830D01*
X163913092Y-71792218D01*
X164000812Y-71640281D01*
X164051130Y-71472210D01*
X164056213Y-71384935D01*
X165782669Y-71384935D01*
X165813135Y-71557711D01*
X165882623Y-71718804D01*
X165886936Y-71724597D01*
X165886937Y-71724599D01*
X165932620Y-71785962D01*
X165987390Y-71859530D01*
X166121786Y-71972302D01*
X166278567Y-72051040D01*
X166449279Y-72091500D01*
X167377111Y-72091500D01*
X167380709Y-72091500D01*
X167511255Y-72076241D01*
X167676117Y-72016237D01*
X167822696Y-71919830D01*
X167943092Y-71792218D01*
X168030812Y-71640281D01*
X168081130Y-71472210D01*
X168091331Y-71297065D01*
X168060865Y-71124289D01*
X167991377Y-70963196D01*
X167886610Y-70822470D01*
X167845232Y-70787750D01*
X167757745Y-70714339D01*
X167757744Y-70714338D01*
X167752214Y-70709698D01*
X167604722Y-70635625D01*
X167601883Y-70634199D01*
X167601880Y-70634198D01*
X167595433Y-70630960D01*
X167588407Y-70629294D01*
X167588405Y-70629294D01*
X167431749Y-70592165D01*
X167431743Y-70592164D01*
X167424721Y-70590500D01*
X166493291Y-70590500D01*
X166489725Y-70590916D01*
X166489721Y-70590917D01*
X166369915Y-70604920D01*
X166369907Y-70604921D01*
X166362745Y-70605759D01*
X166355967Y-70608225D01*
X166355958Y-70608228D01*
X166204674Y-70663291D01*
X166204671Y-70663292D01*
X166197883Y-70665763D01*
X166191850Y-70669730D01*
X166191842Y-70669735D01*
X166057340Y-70758199D01*
X166057334Y-70758203D01*
X166051304Y-70762170D01*
X166046351Y-70767419D01*
X166046346Y-70767424D01*
X165935865Y-70884527D01*
X165935861Y-70884531D01*
X165930908Y-70889782D01*
X165927299Y-70896032D01*
X165927296Y-70896037D01*
X165846799Y-71035463D01*
X165846796Y-71035468D01*
X165843188Y-71041719D01*
X165841117Y-71048634D01*
X165841117Y-71048636D01*
X165794941Y-71202869D01*
X165794939Y-71202877D01*
X165792870Y-71209790D01*
X165792450Y-71216996D01*
X165792449Y-71217004D01*
X165783088Y-71377725D01*
X165783088Y-71377733D01*
X165782669Y-71384935D01*
X164056213Y-71384935D01*
X164061331Y-71297065D01*
X164030865Y-71124289D01*
X163961377Y-70963196D01*
X163856610Y-70822470D01*
X163815232Y-70787750D01*
X163727745Y-70714339D01*
X163727744Y-70714338D01*
X163722214Y-70709698D01*
X163574722Y-70635625D01*
X163571883Y-70634199D01*
X163571880Y-70634198D01*
X163565433Y-70630960D01*
X163558407Y-70629294D01*
X163558405Y-70629294D01*
X163401749Y-70592165D01*
X163401743Y-70592164D01*
X163394721Y-70590500D01*
X162163291Y-70590500D01*
X162159725Y-70590916D01*
X162159721Y-70590917D01*
X162039915Y-70604920D01*
X162039907Y-70604921D01*
X162032745Y-70605759D01*
X162025967Y-70608225D01*
X162025958Y-70608228D01*
X161874674Y-70663291D01*
X161874671Y-70663292D01*
X161867883Y-70665763D01*
X161861850Y-70669730D01*
X161861842Y-70669735D01*
X161727340Y-70758199D01*
X161727334Y-70758203D01*
X161721304Y-70762170D01*
X161716351Y-70767419D01*
X161716346Y-70767424D01*
X161605865Y-70884527D01*
X161605861Y-70884531D01*
X161600908Y-70889782D01*
X161597299Y-70896032D01*
X161597296Y-70896037D01*
X161516799Y-71035463D01*
X161516796Y-71035468D01*
X161513188Y-71041719D01*
X161511117Y-71048634D01*
X161511117Y-71048636D01*
X161464941Y-71202869D01*
X161464939Y-71202877D01*
X161462870Y-71209790D01*
X161462450Y-71216996D01*
X161462449Y-71217004D01*
X161453088Y-71377725D01*
X161453088Y-71377733D01*
X161452669Y-71384935D01*
X146171546Y-71384935D01*
X146154530Y-71255691D01*
X146099061Y-71121775D01*
X146094113Y-71115327D01*
X146094111Y-71115323D01*
X146065987Y-71078671D01*
X146042966Y-71028458D01*
X146044036Y-70973229D01*
X146068985Y-70923945D01*
X146107746Y-70894298D01*
X146107653Y-70894153D01*
X146107652Y-70894153D01*
X146228728Y-70816343D01*
X146322977Y-70707573D01*
X146382765Y-70576657D01*
X146403247Y-70434200D01*
X146392291Y-70358000D01*
X147272750Y-70358000D01*
X147273811Y-70366059D01*
X147283937Y-70442977D01*
X147291670Y-70501709D01*
X147347139Y-70635625D01*
X147352084Y-70642069D01*
X147352085Y-70642071D01*
X147406788Y-70713361D01*
X147435379Y-70750621D01*
X147550375Y-70838861D01*
X147684291Y-70894330D01*
X147828000Y-70913250D01*
X147971709Y-70894330D01*
X148105625Y-70838861D01*
X148220621Y-70750621D01*
X148308861Y-70635625D01*
X148364330Y-70501709D01*
X148383250Y-70358000D01*
X148364330Y-70214291D01*
X148308861Y-70080375D01*
X148220621Y-69965379D01*
X148105625Y-69877139D01*
X148031223Y-69846321D01*
X147979223Y-69824782D01*
X147979220Y-69824781D01*
X147971709Y-69821670D01*
X147963649Y-69820608D01*
X147963646Y-69820608D01*
X147836059Y-69803811D01*
X147828000Y-69802750D01*
X147819941Y-69803811D01*
X147692353Y-69820608D01*
X147692348Y-69820609D01*
X147684291Y-69821670D01*
X147676781Y-69824780D01*
X147676776Y-69824782D01*
X147557885Y-69874028D01*
X147557883Y-69874029D01*
X147550375Y-69877139D01*
X147543933Y-69882082D01*
X147543928Y-69882085D01*
X147441821Y-69960435D01*
X147441817Y-69960438D01*
X147435379Y-69965379D01*
X147430438Y-69971817D01*
X147430435Y-69971821D01*
X147352085Y-70073928D01*
X147352082Y-70073933D01*
X147347139Y-70080375D01*
X147344029Y-70087883D01*
X147344028Y-70087885D01*
X147294782Y-70206776D01*
X147294780Y-70206781D01*
X147291670Y-70214291D01*
X147290609Y-70222348D01*
X147290608Y-70222353D01*
X147281473Y-70291743D01*
X147272750Y-70358000D01*
X146392291Y-70358000D01*
X146382765Y-70291743D01*
X146355349Y-70231711D01*
X146344143Y-70180198D01*
X146355347Y-70128690D01*
X146382765Y-70068657D01*
X146403247Y-69926200D01*
X146382765Y-69783743D01*
X146322977Y-69652827D01*
X146287618Y-69612020D01*
X146234534Y-69550757D01*
X146234532Y-69550755D01*
X146228728Y-69544057D01*
X146107653Y-69466247D01*
X146024601Y-69441861D01*
X145978073Y-69428199D01*
X145978070Y-69428198D01*
X145969561Y-69425700D01*
X145825639Y-69425700D01*
X145817130Y-69428198D01*
X145817126Y-69428199D01*
X145696051Y-69463749D01*
X145696044Y-69463751D01*
X145693050Y-69464630D01*
X145693046Y-69464632D01*
X145687547Y-69466247D01*
X145687431Y-69465853D01*
X145643594Y-69475385D01*
X145599769Y-69465851D01*
X145599653Y-69466247D01*
X145594124Y-69464623D01*
X145594116Y-69464621D01*
X145591146Y-69463749D01*
X145470073Y-69428199D01*
X145470070Y-69428198D01*
X145461561Y-69425700D01*
X145317639Y-69425700D01*
X145309130Y-69428198D01*
X145309126Y-69428199D01*
X145222377Y-69453671D01*
X145179547Y-69466247D01*
X145172084Y-69471042D01*
X145172084Y-69471043D01*
X145065929Y-69539264D01*
X145065925Y-69539266D01*
X145058472Y-69544057D01*
X145052670Y-69550751D01*
X145052665Y-69550757D01*
X144970031Y-69646123D01*
X144970028Y-69646127D01*
X144964223Y-69652827D01*
X144960541Y-69660889D01*
X144960538Y-69660894D01*
X144908120Y-69775673D01*
X144904435Y-69783743D01*
X144903173Y-69792516D01*
X144903172Y-69792522D01*
X144891454Y-69874028D01*
X144883953Y-69926200D01*
X144904435Y-70068657D01*
X144908120Y-70076726D01*
X144931851Y-70128690D01*
X144943056Y-70180200D01*
X144931851Y-70231710D01*
X144920342Y-70256912D01*
X144904435Y-70291743D01*
X144883953Y-70434200D01*
X144625247Y-70434200D01*
X144604765Y-70291743D01*
X144577349Y-70231711D01*
X144566143Y-70180198D01*
X144577347Y-70128690D01*
X144604765Y-70068657D01*
X144625247Y-69926200D01*
X144604765Y-69783743D01*
X144544977Y-69652827D01*
X144509618Y-69612020D01*
X144456534Y-69550757D01*
X144456532Y-69550755D01*
X144450728Y-69544057D01*
X144329653Y-69466247D01*
X144246601Y-69441861D01*
X144200073Y-69428199D01*
X144200070Y-69428198D01*
X144191561Y-69425700D01*
X144047639Y-69425700D01*
X144039130Y-69428198D01*
X144039126Y-69428199D01*
X143918051Y-69463749D01*
X143918044Y-69463751D01*
X143915050Y-69464630D01*
X143915046Y-69464632D01*
X143909547Y-69466247D01*
X143909431Y-69465853D01*
X143865594Y-69475385D01*
X143821769Y-69465851D01*
X143821653Y-69466247D01*
X143816124Y-69464623D01*
X143816116Y-69464621D01*
X143813146Y-69463749D01*
X143692073Y-69428199D01*
X143692070Y-69428198D01*
X143683561Y-69425700D01*
X143539639Y-69425700D01*
X143531130Y-69428198D01*
X143531126Y-69428199D01*
X143444377Y-69453671D01*
X143401547Y-69466247D01*
X143394084Y-69471042D01*
X143394084Y-69471043D01*
X143287929Y-69539264D01*
X143287925Y-69539266D01*
X143280472Y-69544057D01*
X143274670Y-69550751D01*
X143274665Y-69550757D01*
X143192031Y-69646123D01*
X143192028Y-69646127D01*
X143186223Y-69652827D01*
X143182541Y-69660889D01*
X143182538Y-69660894D01*
X143130120Y-69775673D01*
X143126435Y-69783743D01*
X143125173Y-69792516D01*
X143125172Y-69792522D01*
X143113454Y-69874028D01*
X143105953Y-69926200D01*
X143126435Y-70068657D01*
X143130120Y-70076726D01*
X143153851Y-70128690D01*
X143165056Y-70180200D01*
X143153851Y-70231710D01*
X143142342Y-70256912D01*
X143126435Y-70291743D01*
X143105953Y-70434200D01*
X142334210Y-70434200D01*
X142358230Y-70376209D01*
X142377150Y-70232500D01*
X142358230Y-70088791D01*
X142302761Y-69954875D01*
X142214521Y-69839879D01*
X142160010Y-69798051D01*
X142105971Y-69756585D01*
X142105969Y-69756584D01*
X142099525Y-69751639D01*
X142009686Y-69714427D01*
X141958762Y-69675353D01*
X141934199Y-69616051D01*
X141942577Y-69552413D01*
X141981652Y-69501490D01*
X142040952Y-69476927D01*
X142078909Y-69471930D01*
X142212825Y-69416461D01*
X142327821Y-69328221D01*
X142416061Y-69213225D01*
X142442615Y-69149115D01*
X142481688Y-69098195D01*
X142540990Y-69073631D01*
X142604625Y-69082008D01*
X142629691Y-69092391D01*
X142773400Y-69111311D01*
X142917109Y-69092391D01*
X143051025Y-69036922D01*
X143149968Y-68961000D01*
X149304750Y-68961000D01*
X149305811Y-68969059D01*
X149321638Y-69089279D01*
X149323670Y-69104709D01*
X149379139Y-69238625D01*
X149384084Y-69245069D01*
X149384085Y-69245071D01*
X149442945Y-69321778D01*
X149467379Y-69353621D01*
X149582375Y-69441861D01*
X149716291Y-69497330D01*
X149860000Y-69516250D01*
X150003709Y-69497330D01*
X150137625Y-69441861D01*
X150155430Y-69428199D01*
X150165512Y-69420463D01*
X150214161Y-69397776D01*
X150267839Y-69397776D01*
X150316488Y-69420463D01*
X150337922Y-69436910D01*
X150337925Y-69436911D01*
X150344375Y-69441861D01*
X150478291Y-69497330D01*
X150622000Y-69516250D01*
X150765709Y-69497330D01*
X150899625Y-69441861D01*
X151014621Y-69353621D01*
X151102861Y-69238625D01*
X151132156Y-69167900D01*
X155756350Y-69167900D01*
X155775270Y-69311609D01*
X155778381Y-69319120D01*
X155778382Y-69319123D01*
X155794719Y-69358564D01*
X155830739Y-69445525D01*
X155835684Y-69451969D01*
X155835685Y-69451971D01*
X155871305Y-69498391D01*
X155918979Y-69560521D01*
X156033975Y-69648761D01*
X156167891Y-69704230D01*
X156311600Y-69723150D01*
X156455309Y-69704230D01*
X156589225Y-69648761D01*
X156704221Y-69560521D01*
X156792461Y-69445525D01*
X156847930Y-69311609D01*
X156866850Y-69167900D01*
X156847930Y-69024191D01*
X156792461Y-68890275D01*
X156704221Y-68775279D01*
X156615609Y-68707284D01*
X156595671Y-68691985D01*
X156595669Y-68691984D01*
X156589225Y-68687039D01*
X156537188Y-68665485D01*
X156462823Y-68634682D01*
X156462820Y-68634681D01*
X156455309Y-68631570D01*
X156447249Y-68630508D01*
X156447246Y-68630508D01*
X156319659Y-68613711D01*
X156311600Y-68612650D01*
X156303541Y-68613711D01*
X156175953Y-68630508D01*
X156175948Y-68630509D01*
X156167891Y-68631570D01*
X156160381Y-68634680D01*
X156160376Y-68634682D01*
X156041485Y-68683928D01*
X156041483Y-68683929D01*
X156033975Y-68687039D01*
X156027533Y-68691982D01*
X156027528Y-68691985D01*
X155925421Y-68770335D01*
X155925417Y-68770338D01*
X155918979Y-68775279D01*
X155914038Y-68781717D01*
X155914035Y-68781721D01*
X155835685Y-68883828D01*
X155835682Y-68883833D01*
X155830739Y-68890275D01*
X155827629Y-68897783D01*
X155827628Y-68897785D01*
X155778382Y-69016676D01*
X155778380Y-69016681D01*
X155775270Y-69024191D01*
X155774209Y-69032248D01*
X155774208Y-69032253D01*
X155773184Y-69040032D01*
X155756350Y-69167900D01*
X151132156Y-69167900D01*
X151158330Y-69104709D01*
X151177250Y-68961000D01*
X151158330Y-68817291D01*
X151102861Y-68683375D01*
X151014621Y-68568379D01*
X150927513Y-68501538D01*
X150906071Y-68485085D01*
X150906069Y-68485084D01*
X150899625Y-68480139D01*
X150836442Y-68453968D01*
X150773223Y-68427782D01*
X150773220Y-68427781D01*
X150765709Y-68424670D01*
X150757649Y-68423608D01*
X150757646Y-68423608D01*
X150630059Y-68406811D01*
X150622000Y-68405750D01*
X150613941Y-68406811D01*
X150486353Y-68423608D01*
X150486348Y-68423609D01*
X150478291Y-68424670D01*
X150470781Y-68427780D01*
X150470776Y-68427782D01*
X150351887Y-68477027D01*
X150351884Y-68477028D01*
X150344375Y-68480139D01*
X150337930Y-68485083D01*
X150337920Y-68485090D01*
X150316484Y-68501539D01*
X150267837Y-68524223D01*
X150214161Y-68524223D01*
X150165514Y-68501538D01*
X150144076Y-68485088D01*
X150144070Y-68485084D01*
X150137625Y-68480139D01*
X150074442Y-68453968D01*
X150011223Y-68427782D01*
X150011220Y-68427781D01*
X150003709Y-68424670D01*
X149995649Y-68423608D01*
X149995646Y-68423608D01*
X149868059Y-68406811D01*
X149860000Y-68405750D01*
X149851941Y-68406811D01*
X149724353Y-68423608D01*
X149724348Y-68423609D01*
X149716291Y-68424670D01*
X149708781Y-68427780D01*
X149708776Y-68427782D01*
X149589885Y-68477028D01*
X149589883Y-68477029D01*
X149582375Y-68480139D01*
X149575933Y-68485082D01*
X149575928Y-68485085D01*
X149473821Y-68563435D01*
X149473817Y-68563438D01*
X149467379Y-68568379D01*
X149462438Y-68574817D01*
X149462435Y-68574821D01*
X149384085Y-68676928D01*
X149384082Y-68676933D01*
X149379139Y-68683375D01*
X149376029Y-68690883D01*
X149376028Y-68690885D01*
X149326782Y-68809776D01*
X149326780Y-68809781D01*
X149323670Y-68817291D01*
X149322609Y-68825348D01*
X149322608Y-68825353D01*
X149309155Y-68927541D01*
X149304750Y-68961000D01*
X143149968Y-68961000D01*
X143166021Y-68948682D01*
X143254261Y-68833686D01*
X143309730Y-68699770D01*
X143328650Y-68556061D01*
X143309730Y-68412352D01*
X143254261Y-68278436D01*
X143166021Y-68163440D01*
X143051025Y-68075200D01*
X143014992Y-68060275D01*
X142924623Y-68022843D01*
X142924620Y-68022842D01*
X142917109Y-68019731D01*
X142909049Y-68018669D01*
X142909046Y-68018669D01*
X142781459Y-68001872D01*
X142773400Y-68000811D01*
X142765341Y-68001872D01*
X142637753Y-68018669D01*
X142637748Y-68018670D01*
X142629691Y-68019731D01*
X142622181Y-68022841D01*
X142622176Y-68022843D01*
X142503285Y-68072089D01*
X142503283Y-68072090D01*
X142495775Y-68075200D01*
X142489333Y-68080143D01*
X142489328Y-68080146D01*
X142387221Y-68158496D01*
X142387217Y-68158499D01*
X142380779Y-68163440D01*
X142375838Y-68169878D01*
X142375835Y-68169882D01*
X142297485Y-68271989D01*
X142297482Y-68271994D01*
X142292539Y-68278436D01*
X142289429Y-68285943D01*
X142289429Y-68285944D01*
X142265985Y-68342543D01*
X142226911Y-68393466D01*
X142167610Y-68418029D01*
X142103974Y-68409652D01*
X142078909Y-68399270D01*
X142070849Y-68398208D01*
X142070846Y-68398208D01*
X141943259Y-68381411D01*
X141935200Y-68380350D01*
X141927141Y-68381411D01*
X141799553Y-68398208D01*
X141799548Y-68398209D01*
X141791491Y-68399270D01*
X141783981Y-68402380D01*
X141783976Y-68402382D01*
X141665085Y-68451628D01*
X141665083Y-68451629D01*
X141657575Y-68454739D01*
X141651133Y-68459682D01*
X141651128Y-68459685D01*
X141549021Y-68538035D01*
X141549017Y-68538038D01*
X141542579Y-68542979D01*
X141537638Y-68549417D01*
X141537635Y-68549421D01*
X141459285Y-68651528D01*
X141459282Y-68651533D01*
X141454339Y-68657975D01*
X141451229Y-68665483D01*
X141451228Y-68665485D01*
X141401982Y-68784376D01*
X141401980Y-68784381D01*
X141398870Y-68791891D01*
X141397809Y-68799948D01*
X141397808Y-68799953D01*
X141381011Y-68927541D01*
X141379950Y-68935600D01*
X141381011Y-68943659D01*
X141393289Y-69036922D01*
X141398870Y-69079309D01*
X141401981Y-69086820D01*
X141401982Y-69086823D01*
X141409391Y-69104709D01*
X141454339Y-69213225D01*
X141542579Y-69328221D01*
X141657575Y-69416461D01*
X141747417Y-69453674D01*
X141798336Y-69492745D01*
X141822900Y-69552046D01*
X141814523Y-69615683D01*
X141775450Y-69666607D01*
X141716149Y-69691172D01*
X141686253Y-69695108D01*
X141686248Y-69695109D01*
X141678191Y-69696170D01*
X141670681Y-69699280D01*
X141670676Y-69699282D01*
X141551785Y-69748528D01*
X141551783Y-69748529D01*
X141544275Y-69751639D01*
X141537833Y-69756582D01*
X141537828Y-69756585D01*
X141435721Y-69834935D01*
X141435717Y-69834938D01*
X141429279Y-69839879D01*
X141424338Y-69846317D01*
X141424335Y-69846321D01*
X141345985Y-69948428D01*
X141345982Y-69948433D01*
X141341039Y-69954875D01*
X141337929Y-69962383D01*
X141337928Y-69962385D01*
X141288682Y-70081276D01*
X141288680Y-70081281D01*
X141285570Y-70088791D01*
X141284509Y-70096848D01*
X141284508Y-70096853D01*
X141273258Y-70182309D01*
X141266650Y-70232500D01*
X123659819Y-70232500D01*
X123873612Y-70181172D01*
X124099089Y-70087777D01*
X124307179Y-69960259D01*
X124492759Y-69801759D01*
X124651259Y-69616179D01*
X124778777Y-69408089D01*
X124872172Y-69182612D01*
X124929146Y-68945302D01*
X124948294Y-68702000D01*
X124929146Y-68458698D01*
X124872172Y-68221388D01*
X124778777Y-67995911D01*
X124651259Y-67787821D01*
X124570889Y-67693720D01*
X124495925Y-67605948D01*
X124492759Y-67602241D01*
X124489051Y-67599074D01*
X124310889Y-67446909D01*
X124310884Y-67446905D01*
X124307179Y-67443741D01*
X124303023Y-67441194D01*
X124303020Y-67441192D01*
X124211374Y-67385031D01*
X124099089Y-67316223D01*
X124094594Y-67314361D01*
X124094586Y-67314357D01*
X123923225Y-67243378D01*
X163443100Y-67243378D01*
X163443101Y-67246672D01*
X163443453Y-67249950D01*
X163443454Y-67249961D01*
X163448679Y-67298568D01*
X163448680Y-67298573D01*
X163449509Y-67306283D01*
X163452219Y-67313549D01*
X163452220Y-67313553D01*
X163485817Y-67403631D01*
X163499804Y-67441131D01*
X163586054Y-67556346D01*
X163701269Y-67642596D01*
X163836117Y-67692891D01*
X163895727Y-67699300D01*
X165491472Y-67699299D01*
X165551083Y-67692891D01*
X165685931Y-67642596D01*
X165801146Y-67556346D01*
X165887396Y-67441131D01*
X165937691Y-67306283D01*
X165944100Y-67246673D01*
X165944099Y-65950928D01*
X165937691Y-65891317D01*
X165887396Y-65756469D01*
X165801146Y-65641254D01*
X165685931Y-65555004D01*
X165551083Y-65504709D01*
X165543370Y-65503879D01*
X165543367Y-65503879D01*
X165494780Y-65498655D01*
X165494769Y-65498654D01*
X165491473Y-65498300D01*
X165488150Y-65498300D01*
X163899039Y-65498300D01*
X163899020Y-65498300D01*
X163895728Y-65498301D01*
X163892450Y-65498653D01*
X163892438Y-65498654D01*
X163843831Y-65503879D01*
X163843825Y-65503880D01*
X163836117Y-65504709D01*
X163828852Y-65507418D01*
X163828846Y-65507420D01*
X163709580Y-65551904D01*
X163709578Y-65551904D01*
X163701269Y-65555004D01*
X163694172Y-65560316D01*
X163694168Y-65560319D01*
X163593150Y-65635941D01*
X163593146Y-65635944D01*
X163586054Y-65641254D01*
X163580744Y-65648346D01*
X163580741Y-65648350D01*
X163505119Y-65749368D01*
X163505116Y-65749372D01*
X163499804Y-65756469D01*
X163496704Y-65764778D01*
X163496704Y-65764780D01*
X163452220Y-65884047D01*
X163452219Y-65884050D01*
X163449509Y-65891317D01*
X163448679Y-65899027D01*
X163448679Y-65899032D01*
X163443455Y-65947619D01*
X163443454Y-65947631D01*
X163443100Y-65950927D01*
X163443100Y-65954248D01*
X163443100Y-65954249D01*
X163443100Y-67243360D01*
X163443100Y-67243378D01*
X123923225Y-67243378D01*
X123878117Y-67224694D01*
X123878116Y-67224693D01*
X123873612Y-67222828D01*
X123868875Y-67221690D01*
X123868873Y-67221690D01*
X123641031Y-67166989D01*
X123641026Y-67166988D01*
X123636302Y-67165854D01*
X123631455Y-67165472D01*
X123631452Y-67165472D01*
X123397854Y-67147088D01*
X123393000Y-67146706D01*
X123388146Y-67147088D01*
X123154547Y-67165472D01*
X123154542Y-67165472D01*
X123149698Y-67165854D01*
X123144975Y-67166987D01*
X123144968Y-67166989D01*
X122917126Y-67221690D01*
X122917120Y-67221691D01*
X122912388Y-67222828D01*
X122907886Y-67224692D01*
X122907882Y-67224694D01*
X122691413Y-67314357D01*
X122691400Y-67314363D01*
X122686911Y-67316223D01*
X122682757Y-67318768D01*
X122682756Y-67318769D01*
X122482979Y-67441192D01*
X122482970Y-67441198D01*
X122478821Y-67443741D01*
X122475121Y-67446900D01*
X122475110Y-67446909D01*
X122296948Y-67599074D01*
X122296941Y-67599080D01*
X122293241Y-67602241D01*
X122290080Y-67605941D01*
X122290074Y-67605948D01*
X122137909Y-67784110D01*
X122137900Y-67784121D01*
X122134741Y-67787821D01*
X122132198Y-67791970D01*
X122132192Y-67791979D01*
X122009769Y-67991756D01*
X122007223Y-67995911D01*
X122005363Y-68000400D01*
X122005357Y-68000413D01*
X121935162Y-68169882D01*
X121913828Y-68221388D01*
X121912691Y-68226120D01*
X121912690Y-68226126D01*
X121857989Y-68453968D01*
X121857987Y-68453975D01*
X121856854Y-68458698D01*
X121856472Y-68463542D01*
X121856472Y-68463547D01*
X121849714Y-68549421D01*
X121837706Y-68702000D01*
X117140500Y-68702000D01*
X117140500Y-66598800D01*
X141913350Y-66598800D01*
X141932270Y-66742509D01*
X141987739Y-66876425D01*
X142075979Y-66991421D01*
X142190975Y-67079661D01*
X142324891Y-67135130D01*
X142468600Y-67154050D01*
X142612309Y-67135130D01*
X142746225Y-67079661D01*
X142752672Y-67074713D01*
X142752677Y-67074711D01*
X142824913Y-67019282D01*
X142873561Y-66996596D01*
X142927239Y-66996596D01*
X142975887Y-67019282D01*
X143048122Y-67074711D01*
X143048130Y-67074715D01*
X143054575Y-67079661D01*
X143188491Y-67135130D01*
X143332200Y-67154050D01*
X143475909Y-67135130D01*
X143609825Y-67079661D01*
X143724821Y-66991421D01*
X143813061Y-66876425D01*
X143868530Y-66742509D01*
X143887450Y-66598800D01*
X143868530Y-66455091D01*
X143813061Y-66321175D01*
X143808729Y-66315529D01*
X143792305Y-66257288D01*
X143805780Y-66197748D01*
X143846032Y-66151853D01*
X143903306Y-66130726D01*
X143963717Y-66139487D01*
X143975891Y-66144530D01*
X144119600Y-66163450D01*
X144263309Y-66144530D01*
X144397225Y-66089061D01*
X144512221Y-66000821D01*
X144600461Y-65885825D01*
X144640039Y-65790271D01*
X144674068Y-65743435D01*
X144725653Y-65717151D01*
X144783547Y-65717151D01*
X144835132Y-65743435D01*
X144869160Y-65790271D01*
X144908739Y-65885825D01*
X144913684Y-65892269D01*
X144913685Y-65892271D01*
X144961235Y-65954239D01*
X144996979Y-66000821D01*
X145111975Y-66089061D01*
X145245891Y-66144530D01*
X145389600Y-66163450D01*
X145505126Y-66148240D01*
X145568762Y-66156618D01*
X145619685Y-66195692D01*
X145644249Y-66254992D01*
X145635872Y-66318630D01*
X145589870Y-66429691D01*
X145588809Y-66437748D01*
X145588808Y-66437753D01*
X145572011Y-66565341D01*
X145570950Y-66573400D01*
X145589870Y-66717109D01*
X145645339Y-66851025D01*
X145733579Y-66966021D01*
X145848575Y-67054261D01*
X145982491Y-67109730D01*
X146126200Y-67128650D01*
X146269909Y-67109730D01*
X146403825Y-67054261D01*
X146410276Y-67049310D01*
X146417312Y-67045249D01*
X146418211Y-67046806D01*
X146454952Y-67029667D01*
X146508648Y-67029667D01*
X146545388Y-67046806D01*
X146546288Y-67045249D01*
X146553324Y-67049311D01*
X146559775Y-67054261D01*
X146693691Y-67109730D01*
X146837400Y-67128650D01*
X146981109Y-67109730D01*
X147115025Y-67054261D01*
X147230021Y-66966021D01*
X147318261Y-66851025D01*
X147373730Y-66717109D01*
X147392650Y-66573400D01*
X147373730Y-66429691D01*
X147318261Y-66295775D01*
X147230021Y-66180779D01*
X147187616Y-66148240D01*
X147121471Y-66097485D01*
X147121469Y-66097484D01*
X147115025Y-66092539D01*
X147024747Y-66055145D01*
X146988623Y-66040182D01*
X146988620Y-66040181D01*
X146981109Y-66037070D01*
X146973049Y-66036008D01*
X146973046Y-66036008D01*
X146845459Y-66019211D01*
X146837400Y-66018150D01*
X146829341Y-66019211D01*
X146701753Y-66036008D01*
X146701748Y-66036009D01*
X146693691Y-66037070D01*
X146686181Y-66040180D01*
X146686176Y-66040182D01*
X146567287Y-66089427D01*
X146567284Y-66089428D01*
X146559775Y-66092539D01*
X146553325Y-66097487D01*
X146546288Y-66101551D01*
X146545392Y-66099999D01*
X146508630Y-66117135D01*
X146454970Y-66117135D01*
X146418207Y-66099999D01*
X146417312Y-66101551D01*
X146410275Y-66097488D01*
X146403825Y-66092539D01*
X146343406Y-66067513D01*
X146277423Y-66040182D01*
X146277420Y-66040181D01*
X146269909Y-66037070D01*
X146261849Y-66036008D01*
X146261846Y-66036008D01*
X146134259Y-66019211D01*
X146126200Y-66018150D01*
X146118141Y-66019211D01*
X146118140Y-66019211D01*
X146010674Y-66033359D01*
X145947036Y-66024981D01*
X145896113Y-65985906D01*
X145871550Y-65926605D01*
X145879927Y-65862970D01*
X145925930Y-65751909D01*
X145944850Y-65608200D01*
X145925930Y-65464491D01*
X145870461Y-65330575D01*
X145782221Y-65215579D01*
X145720931Y-65168549D01*
X145673671Y-65132285D01*
X145673669Y-65132284D01*
X145667225Y-65127339D01*
X145623008Y-65109024D01*
X145540823Y-65074982D01*
X145540820Y-65074981D01*
X145533309Y-65071870D01*
X145525249Y-65070808D01*
X145525246Y-65070808D01*
X145397659Y-65054011D01*
X145389600Y-65052950D01*
X145381541Y-65054011D01*
X145253953Y-65070808D01*
X145253948Y-65070809D01*
X145245891Y-65071870D01*
X145238381Y-65074980D01*
X145238376Y-65074982D01*
X145119485Y-65124228D01*
X145119483Y-65124229D01*
X145111975Y-65127339D01*
X145105533Y-65132282D01*
X145105528Y-65132285D01*
X145003421Y-65210635D01*
X145003417Y-65210638D01*
X144996979Y-65215579D01*
X144992038Y-65222017D01*
X144992035Y-65222021D01*
X144913685Y-65324128D01*
X144913682Y-65324133D01*
X144908739Y-65330575D01*
X144905629Y-65338083D01*
X144905628Y-65338085D01*
X144869161Y-65426126D01*
X144835132Y-65472964D01*
X144783547Y-65499248D01*
X144725653Y-65499248D01*
X144674068Y-65472964D01*
X144640039Y-65426126D01*
X144636825Y-65418367D01*
X144600461Y-65330575D01*
X144512221Y-65215579D01*
X144450931Y-65168549D01*
X144403671Y-65132285D01*
X144403669Y-65132284D01*
X144397225Y-65127339D01*
X144353008Y-65109024D01*
X144270823Y-65074982D01*
X144270820Y-65074981D01*
X144263309Y-65071870D01*
X144255249Y-65070808D01*
X144255246Y-65070808D01*
X144127659Y-65054011D01*
X144119600Y-65052950D01*
X144111541Y-65054011D01*
X143983953Y-65070808D01*
X143983948Y-65070809D01*
X143975891Y-65071870D01*
X143968381Y-65074980D01*
X143968376Y-65074982D01*
X143849485Y-65124228D01*
X143849483Y-65124229D01*
X143841975Y-65127339D01*
X143835533Y-65132282D01*
X143835528Y-65132285D01*
X143733421Y-65210635D01*
X143733417Y-65210638D01*
X143726979Y-65215579D01*
X143722038Y-65222017D01*
X143722035Y-65222021D01*
X143643685Y-65324128D01*
X143643682Y-65324133D01*
X143638739Y-65330575D01*
X143635629Y-65338083D01*
X143635628Y-65338085D01*
X143586382Y-65456976D01*
X143586380Y-65456981D01*
X143583270Y-65464491D01*
X143582209Y-65472548D01*
X143582208Y-65472553D01*
X143570654Y-65560319D01*
X143564350Y-65608200D01*
X143583270Y-65751909D01*
X143586381Y-65759420D01*
X143586382Y-65759423D01*
X143599160Y-65790273D01*
X143638739Y-65885825D01*
X143643070Y-65891469D01*
X143659494Y-65949711D01*
X143646019Y-66009250D01*
X143605768Y-66055145D01*
X143548497Y-66076273D01*
X143488084Y-66067513D01*
X143483423Y-66065582D01*
X143483420Y-66065581D01*
X143475909Y-66062470D01*
X143467849Y-66061408D01*
X143467846Y-66061408D01*
X143340259Y-66044611D01*
X143332200Y-66043550D01*
X143324141Y-66044611D01*
X143196553Y-66061408D01*
X143196548Y-66061409D01*
X143188491Y-66062470D01*
X143180981Y-66065580D01*
X143180976Y-66065582D01*
X143062085Y-66114828D01*
X143062083Y-66114829D01*
X143054575Y-66117939D01*
X143048132Y-66122882D01*
X143048123Y-66122888D01*
X142975886Y-66178318D01*
X142927238Y-66201003D01*
X142873562Y-66201003D01*
X142824914Y-66178318D01*
X142752676Y-66122888D01*
X142752670Y-66122884D01*
X142746225Y-66117939D01*
X142684015Y-66092171D01*
X142619823Y-66065582D01*
X142619820Y-66065581D01*
X142612309Y-66062470D01*
X142604249Y-66061408D01*
X142604246Y-66061408D01*
X142476659Y-66044611D01*
X142468600Y-66043550D01*
X142460541Y-66044611D01*
X142332953Y-66061408D01*
X142332948Y-66061409D01*
X142324891Y-66062470D01*
X142317381Y-66065580D01*
X142317376Y-66065582D01*
X142198485Y-66114828D01*
X142198483Y-66114829D01*
X142190975Y-66117939D01*
X142184533Y-66122882D01*
X142184528Y-66122885D01*
X142082421Y-66201235D01*
X142082417Y-66201238D01*
X142075979Y-66206179D01*
X142071038Y-66212617D01*
X142071035Y-66212621D01*
X141992685Y-66314728D01*
X141992682Y-66314733D01*
X141987739Y-66321175D01*
X141984630Y-66328681D01*
X141984628Y-66328685D01*
X141935382Y-66447576D01*
X141935380Y-66447581D01*
X141932270Y-66455091D01*
X141931209Y-66463148D01*
X141931208Y-66463153D01*
X141917755Y-66565341D01*
X141913350Y-66598800D01*
X117140500Y-66598800D01*
X117140500Y-64940528D01*
X121843000Y-64940528D01*
X121844189Y-64952604D01*
X121855122Y-65007566D01*
X121864289Y-65029699D01*
X121905975Y-65092086D01*
X121922913Y-65109024D01*
X121985300Y-65150710D01*
X122007433Y-65159877D01*
X122062395Y-65170810D01*
X122074472Y-65172000D01*
X123126674Y-65172000D01*
X123139549Y-65168549D01*
X123143000Y-65155674D01*
X123643000Y-65155674D01*
X123646450Y-65168549D01*
X123659326Y-65172000D01*
X124711528Y-65172000D01*
X124723604Y-65170810D01*
X124778566Y-65159877D01*
X124800699Y-65150710D01*
X124863086Y-65109024D01*
X124880024Y-65092086D01*
X124921710Y-65029699D01*
X124930877Y-65007566D01*
X124941810Y-64952604D01*
X124943000Y-64940528D01*
X124943000Y-64236600D01*
X143564350Y-64236600D01*
X143565411Y-64244659D01*
X143580521Y-64359433D01*
X143583270Y-64380309D01*
X143586381Y-64387820D01*
X143586382Y-64387823D01*
X143614058Y-64454639D01*
X143638739Y-64514225D01*
X143726979Y-64629221D01*
X143841975Y-64717461D01*
X143975891Y-64772930D01*
X144119600Y-64791850D01*
X144263309Y-64772930D01*
X144397225Y-64717461D01*
X144512221Y-64629221D01*
X144600461Y-64514225D01*
X144640039Y-64418671D01*
X144674068Y-64371835D01*
X144725653Y-64345551D01*
X144783547Y-64345551D01*
X144835132Y-64371835D01*
X144869160Y-64418671D01*
X144908739Y-64514225D01*
X144996979Y-64629221D01*
X145111975Y-64717461D01*
X145245891Y-64772930D01*
X145389600Y-64791850D01*
X145533309Y-64772930D01*
X145667225Y-64717461D01*
X145782221Y-64629221D01*
X145870461Y-64514225D01*
X145925930Y-64380309D01*
X145944850Y-64236600D01*
X145925930Y-64092891D01*
X145906589Y-64046198D01*
X163439346Y-64046198D01*
X163439626Y-64052082D01*
X163439626Y-64052089D01*
X163444357Y-64151402D01*
X163449346Y-64256130D01*
X163450735Y-64261858D01*
X163450737Y-64261867D01*
X163488779Y-64418673D01*
X163498896Y-64460376D01*
X163501349Y-64465747D01*
X163578262Y-64634164D01*
X163586204Y-64651553D01*
X163589631Y-64656366D01*
X163589632Y-64656367D01*
X163673391Y-64773991D01*
X163708114Y-64822752D01*
X163712391Y-64826830D01*
X163844299Y-64952604D01*
X163860222Y-64967786D01*
X164037028Y-65081413D01*
X164042511Y-65083608D01*
X164042513Y-65083609D01*
X164226660Y-65157330D01*
X164232143Y-65159525D01*
X164438515Y-65199300D01*
X164893071Y-65199300D01*
X164896025Y-65199300D01*
X165052818Y-65184328D01*
X165254475Y-65125116D01*
X165441282Y-65028811D01*
X165606486Y-64898892D01*
X165744119Y-64740056D01*
X165849204Y-64558044D01*
X165917944Y-64359433D01*
X165947854Y-64151402D01*
X165937854Y-63941470D01*
X165888304Y-63737224D01*
X165800996Y-63546047D01*
X165679086Y-63374848D01*
X165526978Y-63229814D01*
X165427810Y-63166082D01*
X165355144Y-63119382D01*
X165355141Y-63119380D01*
X165350172Y-63116187D01*
X165344692Y-63113993D01*
X165344686Y-63113990D01*
X165160539Y-63040269D01*
X165160532Y-63040267D01*
X165155057Y-63038075D01*
X165149262Y-63036958D01*
X165149255Y-63036956D01*
X164954482Y-62999417D01*
X164954479Y-62999416D01*
X164948685Y-62998300D01*
X164491175Y-62998300D01*
X164488246Y-62998579D01*
X164488239Y-62998580D01*
X164340262Y-63012710D01*
X164340256Y-63012711D01*
X164334382Y-63013272D01*
X164328712Y-63014936D01*
X164328711Y-63014937D01*
X164138387Y-63070821D01*
X164138382Y-63070822D01*
X164132725Y-63072484D01*
X164127484Y-63075185D01*
X164127481Y-63075187D01*
X163951168Y-63166082D01*
X163951164Y-63166084D01*
X163945918Y-63168789D01*
X163941276Y-63172438D01*
X163941272Y-63172442D01*
X163785359Y-63295054D01*
X163785352Y-63295060D01*
X163780714Y-63298708D01*
X163776850Y-63303167D01*
X163776845Y-63303172D01*
X163646947Y-63453082D01*
X163643081Y-63457544D01*
X163640130Y-63462654D01*
X163640128Y-63462658D01*
X163540952Y-63634435D01*
X163540949Y-63634440D01*
X163537996Y-63639556D01*
X163536065Y-63645135D01*
X163536061Y-63645144D01*
X163471187Y-63832585D01*
X163471184Y-63832594D01*
X163469256Y-63838167D01*
X163468416Y-63844003D01*
X163468415Y-63844011D01*
X163440185Y-64040358D01*
X163440184Y-64040364D01*
X163439346Y-64046198D01*
X145906589Y-64046198D01*
X145870461Y-63958975D01*
X145782221Y-63843979D01*
X145667225Y-63755739D01*
X145609556Y-63731852D01*
X145540823Y-63703382D01*
X145540820Y-63703381D01*
X145533309Y-63700270D01*
X145525249Y-63699208D01*
X145525246Y-63699208D01*
X145397659Y-63682411D01*
X145389600Y-63681350D01*
X145381541Y-63682411D01*
X145253953Y-63699208D01*
X145253948Y-63699209D01*
X145245891Y-63700270D01*
X145238381Y-63703380D01*
X145238376Y-63703382D01*
X145119485Y-63752628D01*
X145119483Y-63752629D01*
X145111975Y-63755739D01*
X145105533Y-63760682D01*
X145105528Y-63760685D01*
X145003421Y-63839035D01*
X145003417Y-63839038D01*
X144996979Y-63843979D01*
X144992038Y-63850417D01*
X144992035Y-63850421D01*
X144913685Y-63952528D01*
X144913682Y-63952533D01*
X144908739Y-63958975D01*
X144905629Y-63966483D01*
X144905628Y-63966485D01*
X144869161Y-64054526D01*
X144835132Y-64101364D01*
X144783547Y-64127648D01*
X144725653Y-64127648D01*
X144674068Y-64101364D01*
X144640039Y-64054526D01*
X144634170Y-64040358D01*
X144600461Y-63958975D01*
X144512221Y-63843979D01*
X144397225Y-63755739D01*
X144339556Y-63731852D01*
X144270823Y-63703382D01*
X144270820Y-63703381D01*
X144263309Y-63700270D01*
X144255249Y-63699208D01*
X144255246Y-63699208D01*
X144127659Y-63682411D01*
X144119600Y-63681350D01*
X144111541Y-63682411D01*
X143983953Y-63699208D01*
X143983948Y-63699209D01*
X143975891Y-63700270D01*
X143968381Y-63703380D01*
X143968376Y-63703382D01*
X143849485Y-63752628D01*
X143849483Y-63752629D01*
X143841975Y-63755739D01*
X143835533Y-63760682D01*
X143835528Y-63760685D01*
X143733421Y-63839035D01*
X143733417Y-63839038D01*
X143726979Y-63843979D01*
X143722038Y-63850417D01*
X143722035Y-63850421D01*
X143643685Y-63952528D01*
X143643682Y-63952533D01*
X143638739Y-63958975D01*
X143635629Y-63966483D01*
X143635628Y-63966485D01*
X143586382Y-64085376D01*
X143586380Y-64085381D01*
X143583270Y-64092891D01*
X143582209Y-64100948D01*
X143582208Y-64100953D01*
X143574798Y-64157241D01*
X143564350Y-64236600D01*
X124943000Y-64236600D01*
X124943000Y-63888326D01*
X124939549Y-63875450D01*
X124926674Y-63872000D01*
X123659326Y-63872000D01*
X123646450Y-63875450D01*
X123643000Y-63888326D01*
X123643000Y-65155674D01*
X123143000Y-65155674D01*
X123143000Y-63888326D01*
X123139549Y-63875450D01*
X123126674Y-63872000D01*
X121859326Y-63872000D01*
X121846450Y-63875450D01*
X121843000Y-63888326D01*
X121843000Y-64940528D01*
X117140500Y-64940528D01*
X117140500Y-63355674D01*
X121843000Y-63355674D01*
X121846450Y-63368549D01*
X121859326Y-63372000D01*
X123126674Y-63372000D01*
X123139549Y-63368549D01*
X123143000Y-63355674D01*
X123643000Y-63355674D01*
X123646450Y-63368549D01*
X123659326Y-63372000D01*
X124926674Y-63372000D01*
X124939549Y-63368549D01*
X124943000Y-63355674D01*
X124943000Y-62303472D01*
X124941810Y-62291395D01*
X124930877Y-62236433D01*
X124921710Y-62214300D01*
X124880024Y-62151913D01*
X124863086Y-62134975D01*
X124800699Y-62093289D01*
X124778566Y-62084122D01*
X124723604Y-62073189D01*
X124711528Y-62072000D01*
X123659326Y-62072000D01*
X123646450Y-62075450D01*
X123643000Y-62088326D01*
X123643000Y-63355674D01*
X123143000Y-63355674D01*
X123143000Y-62088326D01*
X123139549Y-62075450D01*
X123126674Y-62072000D01*
X122074472Y-62072000D01*
X122062395Y-62073189D01*
X122007433Y-62084122D01*
X121985300Y-62093289D01*
X121922913Y-62134975D01*
X121905975Y-62151913D01*
X121864289Y-62214300D01*
X121855122Y-62236433D01*
X121844189Y-62291395D01*
X121843000Y-62303472D01*
X121843000Y-63355674D01*
X117140500Y-63355674D01*
X117140500Y-60706000D01*
X155603950Y-60706000D01*
X155622870Y-60849709D01*
X155678339Y-60983625D01*
X155766579Y-61098621D01*
X155881575Y-61186861D01*
X156015491Y-61242330D01*
X156159200Y-61261250D01*
X156302909Y-61242330D01*
X156436825Y-61186861D01*
X156551821Y-61098621D01*
X156640061Y-60983625D01*
X156695530Y-60849709D01*
X156714450Y-60706000D01*
X156695530Y-60562291D01*
X156640061Y-60428375D01*
X156551821Y-60313379D01*
X156436825Y-60225139D01*
X156400792Y-60210214D01*
X156310423Y-60172782D01*
X156310420Y-60172781D01*
X156302909Y-60169670D01*
X156294849Y-60168608D01*
X156294846Y-60168608D01*
X156167259Y-60151811D01*
X156159200Y-60150750D01*
X156151141Y-60151811D01*
X156023553Y-60168608D01*
X156023548Y-60168609D01*
X156015491Y-60169670D01*
X156007981Y-60172780D01*
X156007976Y-60172782D01*
X155889085Y-60222028D01*
X155889083Y-60222029D01*
X155881575Y-60225139D01*
X155875133Y-60230082D01*
X155875128Y-60230085D01*
X155773021Y-60308435D01*
X155773017Y-60308438D01*
X155766579Y-60313379D01*
X155761638Y-60319817D01*
X155761635Y-60319821D01*
X155683285Y-60421928D01*
X155683282Y-60421933D01*
X155678339Y-60428375D01*
X155675229Y-60435883D01*
X155675228Y-60435885D01*
X155625982Y-60554776D01*
X155625980Y-60554781D01*
X155622870Y-60562291D01*
X155621809Y-60570348D01*
X155621808Y-60570353D01*
X155605011Y-60697941D01*
X155603950Y-60706000D01*
X117140500Y-60706000D01*
X117140500Y-58258000D01*
X119240750Y-58258000D01*
X119259670Y-58401709D01*
X119315139Y-58535625D01*
X119403379Y-58650621D01*
X119518375Y-58738861D01*
X119652291Y-58794330D01*
X119796000Y-58813250D01*
X119939709Y-58794330D01*
X120073625Y-58738861D01*
X120188621Y-58650621D01*
X120276861Y-58535625D01*
X120320786Y-58429578D01*
X163468500Y-58429578D01*
X163468501Y-58432872D01*
X163468853Y-58436150D01*
X163468854Y-58436161D01*
X163474079Y-58484768D01*
X163474080Y-58484773D01*
X163474909Y-58492483D01*
X163477619Y-58499749D01*
X163477620Y-58499753D01*
X163488198Y-58528114D01*
X163525204Y-58627331D01*
X163611454Y-58742546D01*
X163726669Y-58828796D01*
X163861517Y-58879091D01*
X163921127Y-58885500D01*
X165516872Y-58885499D01*
X165576483Y-58879091D01*
X165711331Y-58828796D01*
X165826546Y-58742546D01*
X165912796Y-58627331D01*
X165963091Y-58492483D01*
X165969500Y-58432873D01*
X165969499Y-57137128D01*
X165963091Y-57077517D01*
X165912796Y-56942669D01*
X165826546Y-56827454D01*
X165711331Y-56741204D01*
X165623261Y-56708356D01*
X165583752Y-56693620D01*
X165583750Y-56693619D01*
X165576483Y-56690909D01*
X165568770Y-56690079D01*
X165568767Y-56690079D01*
X165520180Y-56684855D01*
X165520169Y-56684854D01*
X165516873Y-56684500D01*
X165513550Y-56684500D01*
X163924439Y-56684500D01*
X163924420Y-56684500D01*
X163921128Y-56684501D01*
X163917850Y-56684853D01*
X163917838Y-56684854D01*
X163869231Y-56690079D01*
X163869225Y-56690080D01*
X163861517Y-56690909D01*
X163854252Y-56693618D01*
X163854246Y-56693620D01*
X163734980Y-56738104D01*
X163734978Y-56738104D01*
X163726669Y-56741204D01*
X163719572Y-56746516D01*
X163719568Y-56746519D01*
X163618550Y-56822141D01*
X163618546Y-56822144D01*
X163611454Y-56827454D01*
X163606144Y-56834546D01*
X163606141Y-56834550D01*
X163530519Y-56935568D01*
X163530516Y-56935572D01*
X163525204Y-56942669D01*
X163522104Y-56950978D01*
X163522104Y-56950980D01*
X163477620Y-57070247D01*
X163477619Y-57070250D01*
X163474909Y-57077517D01*
X163474079Y-57085227D01*
X163474079Y-57085232D01*
X163468855Y-57133819D01*
X163468854Y-57133831D01*
X163468500Y-57137127D01*
X163468500Y-57140448D01*
X163468500Y-57140449D01*
X163468500Y-58429560D01*
X163468500Y-58429578D01*
X120320786Y-58429578D01*
X120332330Y-58401709D01*
X120351250Y-58258000D01*
X120332330Y-58114291D01*
X120276861Y-57980375D01*
X120188621Y-57865379D01*
X120073625Y-57777139D01*
X120037592Y-57762214D01*
X119947223Y-57724782D01*
X119947220Y-57724781D01*
X119939709Y-57721670D01*
X119931649Y-57720608D01*
X119931646Y-57720608D01*
X119804059Y-57703811D01*
X119796000Y-57702750D01*
X119787941Y-57703811D01*
X119660353Y-57720608D01*
X119660348Y-57720609D01*
X119652291Y-57721670D01*
X119644781Y-57724780D01*
X119644776Y-57724782D01*
X119525885Y-57774028D01*
X119525883Y-57774029D01*
X119518375Y-57777139D01*
X119511933Y-57782082D01*
X119511928Y-57782085D01*
X119409821Y-57860435D01*
X119409817Y-57860438D01*
X119403379Y-57865379D01*
X119398438Y-57871817D01*
X119398435Y-57871821D01*
X119320085Y-57973928D01*
X119320082Y-57973933D01*
X119315139Y-57980375D01*
X119312029Y-57987883D01*
X119312028Y-57987885D01*
X119262782Y-58106776D01*
X119262780Y-58106781D01*
X119259670Y-58114291D01*
X119258609Y-58122348D01*
X119258608Y-58122353D01*
X119241811Y-58249941D01*
X119240750Y-58258000D01*
X117140500Y-58258000D01*
X117140500Y-57031674D01*
X121198400Y-57031674D01*
X121199588Y-57037649D01*
X121199589Y-57037653D01*
X121210550Y-57092759D01*
X121210551Y-57092762D01*
X121212934Y-57104740D01*
X121268299Y-57187601D01*
X121351160Y-57242966D01*
X121424226Y-57257500D01*
X123372479Y-57257500D01*
X123378574Y-57257500D01*
X123451640Y-57242966D01*
X123534501Y-57187601D01*
X123589866Y-57104740D01*
X123604400Y-57031674D01*
X123604400Y-56595551D01*
X123621785Y-56532233D01*
X123669064Y-56486669D01*
X123732982Y-56471636D01*
X123795614Y-56491348D01*
X123839400Y-56540279D01*
X123911652Y-56685381D01*
X123911654Y-56685385D01*
X123914207Y-56690511D01*
X123917660Y-56695084D01*
X123917661Y-56695085D01*
X123931257Y-56713089D01*
X124048563Y-56868428D01*
X124052797Y-56872288D01*
X124052800Y-56872291D01*
X124209089Y-57014767D01*
X124209092Y-57014769D01*
X124213325Y-57018628D01*
X124402879Y-57135995D01*
X124610773Y-57216533D01*
X124829926Y-57257500D01*
X125047145Y-57257500D01*
X125052874Y-57257500D01*
X125272027Y-57216533D01*
X125479921Y-57135995D01*
X125669475Y-57018628D01*
X125834237Y-56868428D01*
X125968593Y-56690511D01*
X126067970Y-56490936D01*
X126092134Y-56406007D01*
X126124533Y-56351454D01*
X126179675Y-56320069D01*
X126243125Y-56320069D01*
X126298267Y-56351454D01*
X126330665Y-56406007D01*
X126354830Y-56490936D01*
X126357382Y-56496061D01*
X126357384Y-56496066D01*
X126451652Y-56685381D01*
X126451654Y-56685385D01*
X126454207Y-56690511D01*
X126457660Y-56695084D01*
X126457661Y-56695085D01*
X126471257Y-56713089D01*
X126588563Y-56868428D01*
X126592797Y-56872288D01*
X126592800Y-56872291D01*
X126749089Y-57014767D01*
X126749092Y-57014769D01*
X126753325Y-57018628D01*
X126942879Y-57135995D01*
X127150773Y-57216533D01*
X127369926Y-57257500D01*
X127587145Y-57257500D01*
X127592874Y-57257500D01*
X127812027Y-57216533D01*
X128019921Y-57135995D01*
X128209475Y-57018628D01*
X128374237Y-56868428D01*
X128508593Y-56690511D01*
X128607970Y-56490936D01*
X128668983Y-56276498D01*
X128684400Y-56110121D01*
X128684400Y-56007000D01*
X134308106Y-56007000D01*
X134308488Y-56011854D01*
X134324689Y-56217717D01*
X134327254Y-56250302D01*
X134328388Y-56255026D01*
X134328389Y-56255031D01*
X134383090Y-56482873D01*
X134384228Y-56487612D01*
X134386093Y-56492116D01*
X134386094Y-56492117D01*
X134475757Y-56708586D01*
X134475761Y-56708594D01*
X134477623Y-56713089D01*
X134605141Y-56921179D01*
X134608305Y-56924884D01*
X134608309Y-56924889D01*
X134688370Y-57018628D01*
X134763641Y-57106759D01*
X134767348Y-57109925D01*
X134945510Y-57262090D01*
X134945513Y-57262092D01*
X134949221Y-57265259D01*
X135157311Y-57392777D01*
X135161810Y-57394640D01*
X135161813Y-57394642D01*
X135186192Y-57404740D01*
X135382788Y-57486172D01*
X135620098Y-57543146D01*
X135863400Y-57562294D01*
X136106702Y-57543146D01*
X136344012Y-57486172D01*
X136569489Y-57392777D01*
X136773073Y-57268020D01*
X140039468Y-57268020D01*
X140047445Y-57275841D01*
X140233380Y-57389782D01*
X140242043Y-57394196D01*
X140458442Y-57483831D01*
X140467679Y-57486833D01*
X140695443Y-57541514D01*
X140705028Y-57543032D01*
X140938546Y-57561411D01*
X140948254Y-57561411D01*
X141181771Y-57543032D01*
X141191356Y-57541514D01*
X141419120Y-57486833D01*
X141428357Y-57483831D01*
X141644756Y-57394196D01*
X141653419Y-57389782D01*
X141839353Y-57275841D01*
X141847330Y-57268020D01*
X145119468Y-57268020D01*
X145127445Y-57275841D01*
X145313380Y-57389782D01*
X145322043Y-57394196D01*
X145538442Y-57483831D01*
X145547679Y-57486833D01*
X145775443Y-57541514D01*
X145785028Y-57543032D01*
X146018546Y-57561411D01*
X146028254Y-57561411D01*
X146261771Y-57543032D01*
X146271356Y-57541514D01*
X146499120Y-57486833D01*
X146508357Y-57483831D01*
X146724756Y-57394196D01*
X146733419Y-57389782D01*
X146828242Y-57331674D01*
X149552900Y-57331674D01*
X149554088Y-57337649D01*
X149554089Y-57337653D01*
X149565050Y-57392759D01*
X149565051Y-57392762D01*
X149567434Y-57404740D01*
X149622799Y-57487601D01*
X149705660Y-57542966D01*
X149778726Y-57557500D01*
X152421979Y-57557500D01*
X152428074Y-57557500D01*
X152501140Y-57542966D01*
X152584001Y-57487601D01*
X152639366Y-57404740D01*
X152653900Y-57331674D01*
X152653900Y-55232398D01*
X163464746Y-55232398D01*
X163465026Y-55238282D01*
X163465026Y-55238289D01*
X163469757Y-55337602D01*
X163474746Y-55442330D01*
X163476135Y-55448058D01*
X163476137Y-55448067D01*
X163498389Y-55539788D01*
X163524296Y-55646576D01*
X163526749Y-55651947D01*
X163580035Y-55768628D01*
X163611604Y-55837753D01*
X163615031Y-55842566D01*
X163615032Y-55842567D01*
X163674626Y-55926256D01*
X163733514Y-56008952D01*
X163885622Y-56153986D01*
X164062428Y-56267613D01*
X164067911Y-56269808D01*
X164067913Y-56269809D01*
X164193457Y-56320069D01*
X164257543Y-56345725D01*
X164463915Y-56385500D01*
X164918471Y-56385500D01*
X164921425Y-56385500D01*
X165078218Y-56370528D01*
X165279875Y-56311316D01*
X165466682Y-56215011D01*
X165631886Y-56085092D01*
X165769519Y-55926256D01*
X165874604Y-55744244D01*
X165943344Y-55545633D01*
X165973254Y-55337602D01*
X165963254Y-55127670D01*
X165913704Y-54923424D01*
X165826396Y-54732247D01*
X165704486Y-54561048D01*
X165617199Y-54477820D01*
X165556651Y-54420088D01*
X165556649Y-54420086D01*
X165552378Y-54416014D01*
X165453210Y-54352282D01*
X165380544Y-54305582D01*
X165380541Y-54305580D01*
X165375572Y-54302387D01*
X165370092Y-54300193D01*
X165370086Y-54300190D01*
X165185939Y-54226469D01*
X165185932Y-54226467D01*
X165180457Y-54224275D01*
X165174662Y-54223158D01*
X165174655Y-54223156D01*
X164979882Y-54185617D01*
X164979879Y-54185616D01*
X164974085Y-54184500D01*
X164516575Y-54184500D01*
X164513646Y-54184779D01*
X164513639Y-54184780D01*
X164365662Y-54198910D01*
X164365656Y-54198911D01*
X164359782Y-54199472D01*
X164354112Y-54201136D01*
X164354111Y-54201137D01*
X164163787Y-54257021D01*
X164163782Y-54257022D01*
X164158125Y-54258684D01*
X164152884Y-54261385D01*
X164152881Y-54261387D01*
X163976568Y-54352282D01*
X163976564Y-54352284D01*
X163971318Y-54354989D01*
X163966676Y-54358638D01*
X163966672Y-54358642D01*
X163810759Y-54481254D01*
X163810752Y-54481260D01*
X163806114Y-54484908D01*
X163802250Y-54489367D01*
X163802245Y-54489372D01*
X163685401Y-54624217D01*
X163668481Y-54643744D01*
X163665530Y-54648854D01*
X163665528Y-54648858D01*
X163566352Y-54820635D01*
X163566349Y-54820640D01*
X163563396Y-54825756D01*
X163561465Y-54831335D01*
X163561461Y-54831344D01*
X163496587Y-55018785D01*
X163496584Y-55018794D01*
X163494656Y-55024367D01*
X163493816Y-55030203D01*
X163493815Y-55030211D01*
X163465585Y-55226558D01*
X163465584Y-55226564D01*
X163464746Y-55232398D01*
X152653900Y-55232398D01*
X152653900Y-54682326D01*
X152639366Y-54609260D01*
X152584001Y-54526399D01*
X152501140Y-54471034D01*
X152489162Y-54468651D01*
X152489159Y-54468650D01*
X152434053Y-54457689D01*
X152434049Y-54457688D01*
X152428074Y-54456500D01*
X149778726Y-54456500D01*
X149772751Y-54457688D01*
X149772746Y-54457689D01*
X149717640Y-54468650D01*
X149717635Y-54468651D01*
X149705660Y-54471034D01*
X149695505Y-54477819D01*
X149695503Y-54477820D01*
X149632951Y-54519615D01*
X149632948Y-54519617D01*
X149622799Y-54526399D01*
X149616017Y-54536548D01*
X149616015Y-54536551D01*
X149574220Y-54599103D01*
X149574219Y-54599105D01*
X149567434Y-54609260D01*
X149565051Y-54621235D01*
X149565050Y-54621240D01*
X149554089Y-54676346D01*
X149554088Y-54676351D01*
X149552900Y-54682326D01*
X149552900Y-57331674D01*
X146828242Y-57331674D01*
X146919353Y-57275841D01*
X146927330Y-57268020D01*
X146921399Y-57258552D01*
X146034942Y-56372095D01*
X146023400Y-56365431D01*
X146011857Y-56372095D01*
X145125399Y-57258552D01*
X145119468Y-57268020D01*
X141847330Y-57268020D01*
X141841399Y-57258552D01*
X140954942Y-56372095D01*
X140943400Y-56365431D01*
X140931857Y-56372095D01*
X140045399Y-57258552D01*
X140039468Y-57268020D01*
X136773073Y-57268020D01*
X136777579Y-57265259D01*
X136963159Y-57106759D01*
X137121659Y-56921179D01*
X137249177Y-56713089D01*
X137342572Y-56487612D01*
X137399546Y-56250302D01*
X137418312Y-56011854D01*
X139388989Y-56011854D01*
X139407367Y-56245371D01*
X139408885Y-56254956D01*
X139463566Y-56482720D01*
X139466568Y-56491957D01*
X139556203Y-56708356D01*
X139560617Y-56717019D01*
X139674557Y-56902953D01*
X139682378Y-56910930D01*
X139691846Y-56904999D01*
X140578304Y-56018542D01*
X140584968Y-56007000D01*
X141301831Y-56007000D01*
X141308495Y-56018542D01*
X142194952Y-56904999D01*
X142204420Y-56910930D01*
X142212241Y-56902953D01*
X142326182Y-56717019D01*
X142330596Y-56708356D01*
X142420231Y-56491957D01*
X142423233Y-56482720D01*
X142477914Y-56254956D01*
X142479432Y-56245371D01*
X142497811Y-56011854D01*
X144468989Y-56011854D01*
X144487367Y-56245371D01*
X144488885Y-56254956D01*
X144543566Y-56482720D01*
X144546568Y-56491957D01*
X144636203Y-56708356D01*
X144640617Y-56717019D01*
X144754557Y-56902953D01*
X144762378Y-56910930D01*
X144771846Y-56904999D01*
X145658304Y-56018542D01*
X145664968Y-56007000D01*
X146381831Y-56007000D01*
X146388495Y-56018542D01*
X147274952Y-56904999D01*
X147284420Y-56910930D01*
X147292241Y-56902953D01*
X147406182Y-56717019D01*
X147410596Y-56708356D01*
X147500231Y-56491957D01*
X147503233Y-56482720D01*
X147557914Y-56254956D01*
X147559432Y-56245371D01*
X147577811Y-56011854D01*
X147577811Y-56002146D01*
X147559432Y-55768628D01*
X147557914Y-55759043D01*
X147503233Y-55531279D01*
X147500231Y-55522042D01*
X147410596Y-55305643D01*
X147406182Y-55296980D01*
X147292241Y-55111045D01*
X147284420Y-55103068D01*
X147274952Y-55108999D01*
X146388495Y-55995457D01*
X146381831Y-56007000D01*
X145664968Y-56007000D01*
X145658304Y-55995457D01*
X144771846Y-55108999D01*
X144762378Y-55103068D01*
X144754557Y-55111044D01*
X144640612Y-55296988D01*
X144636206Y-55305636D01*
X144546568Y-55522042D01*
X144543566Y-55531279D01*
X144488885Y-55759043D01*
X144487367Y-55768628D01*
X144468989Y-56002146D01*
X144468989Y-56011854D01*
X142497811Y-56011854D01*
X142497811Y-56002146D01*
X142479432Y-55768628D01*
X142477914Y-55759043D01*
X142423233Y-55531279D01*
X142420231Y-55522042D01*
X142330596Y-55305643D01*
X142326182Y-55296980D01*
X142212241Y-55111045D01*
X142204420Y-55103068D01*
X142194952Y-55108999D01*
X141308495Y-55995457D01*
X141301831Y-56007000D01*
X140584968Y-56007000D01*
X140578304Y-55995457D01*
X139691846Y-55108999D01*
X139682378Y-55103068D01*
X139674557Y-55111044D01*
X139560612Y-55296988D01*
X139556206Y-55305636D01*
X139466568Y-55522042D01*
X139463566Y-55531279D01*
X139408885Y-55759043D01*
X139407367Y-55768628D01*
X139388989Y-56002146D01*
X139388989Y-56011854D01*
X137418312Y-56011854D01*
X137418694Y-56007000D01*
X137399546Y-55763698D01*
X137342572Y-55526388D01*
X137249177Y-55300911D01*
X137121659Y-55092821D01*
X137058426Y-55018785D01*
X136966325Y-54910948D01*
X136963159Y-54907241D01*
X136928928Y-54878005D01*
X136781289Y-54751909D01*
X136781284Y-54751905D01*
X136777579Y-54748741D01*
X136773423Y-54746194D01*
X136773420Y-54746192D01*
X136773071Y-54745978D01*
X140039468Y-54745978D01*
X140045399Y-54755446D01*
X140931857Y-55641904D01*
X140943400Y-55648568D01*
X140954942Y-55641904D01*
X141841399Y-54755446D01*
X141847330Y-54745978D01*
X145119468Y-54745978D01*
X145125399Y-54755446D01*
X146011857Y-55641904D01*
X146023400Y-55648568D01*
X146034942Y-55641904D01*
X146921399Y-54755446D01*
X146927330Y-54745978D01*
X146919353Y-54738157D01*
X146733419Y-54624217D01*
X146724756Y-54619803D01*
X146508357Y-54530168D01*
X146499120Y-54527166D01*
X146271356Y-54472485D01*
X146261771Y-54470967D01*
X146028254Y-54452589D01*
X146018546Y-54452589D01*
X145785028Y-54470967D01*
X145775443Y-54472485D01*
X145547679Y-54527166D01*
X145538442Y-54530168D01*
X145322036Y-54619806D01*
X145313388Y-54624212D01*
X145127444Y-54738157D01*
X145119468Y-54745978D01*
X141847330Y-54745978D01*
X141839353Y-54738157D01*
X141653419Y-54624217D01*
X141644756Y-54619803D01*
X141428357Y-54530168D01*
X141419120Y-54527166D01*
X141191356Y-54472485D01*
X141181771Y-54470967D01*
X140948254Y-54452589D01*
X140938546Y-54452589D01*
X140705028Y-54470967D01*
X140695443Y-54472485D01*
X140467679Y-54527166D01*
X140458442Y-54530168D01*
X140242036Y-54619806D01*
X140233388Y-54624212D01*
X140047444Y-54738157D01*
X140039468Y-54745978D01*
X136773071Y-54745978D01*
X136614585Y-54648858D01*
X136569489Y-54621223D01*
X136564994Y-54619361D01*
X136564986Y-54619357D01*
X136348517Y-54529694D01*
X136348516Y-54529693D01*
X136344012Y-54527828D01*
X136339275Y-54526690D01*
X136339273Y-54526690D01*
X136111431Y-54471989D01*
X136111426Y-54471988D01*
X136106702Y-54470854D01*
X136101855Y-54470472D01*
X136101852Y-54470472D01*
X135868254Y-54452088D01*
X135863400Y-54451706D01*
X135858546Y-54452088D01*
X135624947Y-54470472D01*
X135624942Y-54470472D01*
X135620098Y-54470854D01*
X135615375Y-54471987D01*
X135615368Y-54471989D01*
X135387526Y-54526690D01*
X135387520Y-54526691D01*
X135382788Y-54527828D01*
X135378286Y-54529692D01*
X135378282Y-54529694D01*
X135161813Y-54619357D01*
X135161800Y-54619363D01*
X135157311Y-54621223D01*
X135153157Y-54623768D01*
X135153156Y-54623769D01*
X134953379Y-54746192D01*
X134953370Y-54746198D01*
X134949221Y-54748741D01*
X134945521Y-54751900D01*
X134945510Y-54751909D01*
X134767348Y-54904074D01*
X134767341Y-54904080D01*
X134763641Y-54907241D01*
X134760480Y-54910941D01*
X134760474Y-54910948D01*
X134608309Y-55089110D01*
X134608300Y-55089121D01*
X134605141Y-55092821D01*
X134602598Y-55096970D01*
X134602592Y-55096979D01*
X134480169Y-55296756D01*
X134477623Y-55300911D01*
X134475763Y-55305400D01*
X134475757Y-55305413D01*
X134416669Y-55448067D01*
X134384228Y-55526388D01*
X134383091Y-55531120D01*
X134383090Y-55531126D01*
X134328389Y-55758968D01*
X134328387Y-55758975D01*
X134327254Y-55763698D01*
X134326872Y-55768542D01*
X134326872Y-55768547D01*
X134309014Y-55995457D01*
X134308106Y-56007000D01*
X128684400Y-56007000D01*
X128684400Y-55903879D01*
X128668983Y-55737502D01*
X128607970Y-55523064D01*
X128518528Y-55343441D01*
X128511147Y-55328618D01*
X128511146Y-55328617D01*
X128508593Y-55323489D01*
X128374237Y-55145572D01*
X128370002Y-55141711D01*
X128369999Y-55141708D01*
X128213710Y-54999232D01*
X128213705Y-54999228D01*
X128209475Y-54995372D01*
X128204609Y-54992359D01*
X128204605Y-54992356D01*
X128024792Y-54881021D01*
X128019921Y-54878005D01*
X128014583Y-54875937D01*
X128014579Y-54875935D01*
X127817374Y-54799538D01*
X127817369Y-54799536D01*
X127812027Y-54797467D01*
X127806389Y-54796413D01*
X127598503Y-54757552D01*
X127598500Y-54757551D01*
X127592874Y-54756500D01*
X127369926Y-54756500D01*
X127364300Y-54757551D01*
X127364296Y-54757552D01*
X127156410Y-54796413D01*
X127156407Y-54796413D01*
X127150773Y-54797467D01*
X127145432Y-54799535D01*
X127145425Y-54799538D01*
X126948220Y-54875935D01*
X126948211Y-54875939D01*
X126942879Y-54878005D01*
X126938012Y-54881018D01*
X126938007Y-54881021D01*
X126758194Y-54992356D01*
X126758184Y-54992362D01*
X126753325Y-54995372D01*
X126749099Y-54999224D01*
X126749089Y-54999232D01*
X126592800Y-55141708D01*
X126592792Y-55141716D01*
X126588563Y-55145572D01*
X126585109Y-55150144D01*
X126585106Y-55150149D01*
X126457661Y-55318914D01*
X126457657Y-55318920D01*
X126454207Y-55323489D01*
X126451657Y-55328609D01*
X126451652Y-55328618D01*
X126357384Y-55517933D01*
X126357380Y-55517941D01*
X126354830Y-55523064D01*
X126353264Y-55528567D01*
X126353260Y-55528578D01*
X126330666Y-55607991D01*
X126298267Y-55662545D01*
X126243124Y-55693930D01*
X126179676Y-55693930D01*
X126124533Y-55662545D01*
X126092134Y-55607991D01*
X126069539Y-55528578D01*
X126069538Y-55528576D01*
X126067970Y-55523064D01*
X125978528Y-55343441D01*
X125971147Y-55328618D01*
X125971146Y-55328617D01*
X125968593Y-55323489D01*
X125834237Y-55145572D01*
X125830002Y-55141711D01*
X125829999Y-55141708D01*
X125673710Y-54999232D01*
X125673705Y-54999228D01*
X125669475Y-54995372D01*
X125664609Y-54992359D01*
X125664605Y-54992356D01*
X125484792Y-54881021D01*
X125479921Y-54878005D01*
X125474583Y-54875937D01*
X125474579Y-54875935D01*
X125277374Y-54799538D01*
X125277369Y-54799536D01*
X125272027Y-54797467D01*
X125266389Y-54796413D01*
X125058503Y-54757552D01*
X125058500Y-54757551D01*
X125052874Y-54756500D01*
X124829926Y-54756500D01*
X124824300Y-54757551D01*
X124824296Y-54757552D01*
X124616410Y-54796413D01*
X124616407Y-54796413D01*
X124610773Y-54797467D01*
X124605432Y-54799535D01*
X124605425Y-54799538D01*
X124408220Y-54875935D01*
X124408211Y-54875939D01*
X124402879Y-54878005D01*
X124398012Y-54881018D01*
X124398007Y-54881021D01*
X124218194Y-54992356D01*
X124218184Y-54992362D01*
X124213325Y-54995372D01*
X124209099Y-54999224D01*
X124209089Y-54999232D01*
X124052800Y-55141708D01*
X124052792Y-55141716D01*
X124048563Y-55145572D01*
X124045109Y-55150144D01*
X124045106Y-55150149D01*
X123917661Y-55318914D01*
X123917657Y-55318920D01*
X123914207Y-55323489D01*
X123911657Y-55328609D01*
X123911652Y-55328618D01*
X123839400Y-55473721D01*
X123795614Y-55522652D01*
X123732982Y-55542364D01*
X123669064Y-55527331D01*
X123621785Y-55481767D01*
X123604400Y-55418449D01*
X123604400Y-54988421D01*
X123604400Y-54982326D01*
X123589866Y-54909260D01*
X123534501Y-54826399D01*
X123451640Y-54771034D01*
X123439662Y-54768651D01*
X123439659Y-54768650D01*
X123384553Y-54757689D01*
X123384549Y-54757688D01*
X123378574Y-54756500D01*
X121424226Y-54756500D01*
X121418251Y-54757688D01*
X121418246Y-54757689D01*
X121363140Y-54768650D01*
X121363135Y-54768651D01*
X121351160Y-54771034D01*
X121341005Y-54777819D01*
X121341003Y-54777820D01*
X121278451Y-54819615D01*
X121278448Y-54819617D01*
X121268299Y-54826399D01*
X121261517Y-54836548D01*
X121261515Y-54836551D01*
X121219720Y-54899103D01*
X121219719Y-54899105D01*
X121212934Y-54909260D01*
X121210551Y-54921235D01*
X121210550Y-54921240D01*
X121199589Y-54976346D01*
X121199588Y-54976351D01*
X121198400Y-54982326D01*
X121198400Y-57031674D01*
X117140500Y-57031674D01*
X117140500Y-52073751D01*
X117140726Y-52066264D01*
X117156375Y-51807544D01*
X117158180Y-51792679D01*
X117204225Y-51541424D01*
X117207803Y-51526906D01*
X117283805Y-51283004D01*
X117289102Y-51269038D01*
X117393949Y-51036077D01*
X117400894Y-51022845D01*
X117533056Y-50804223D01*
X117541543Y-50791927D01*
X117699093Y-50590829D01*
X117709008Y-50579638D01*
X117889638Y-50399008D01*
X117900829Y-50389093D01*
X118101927Y-50231543D01*
X118114223Y-50223056D01*
X118332845Y-50090894D01*
X118346077Y-50083949D01*
X118579038Y-49979102D01*
X118593004Y-49973805D01*
X118836906Y-49897803D01*
X118851420Y-49894225D01*
X119102683Y-49848179D01*
X119117540Y-49846375D01*
X119376263Y-49830726D01*
X119383751Y-49830500D01*
X119427595Y-49830500D01*
X167592405Y-49830500D01*
X167636249Y-49830500D01*
X167643736Y-49830726D01*
G37*
%TD.AperFunction*%
%TD*%
M02*
